<?xml version="1.0" encoding="UTF-8"?><svg id="Layer_2" xmlns="http://www.w3.org/2000/svg" viewBox="0 0 1151.06 625.22"><defs><style>.cls-1{fill:#6e6e6e;}</style></defs><g id="Layer_1-2"><g><path class="cls-1" d="M183.34,193.49c-12.7,7.89-25.6,15.48-38.06,23.74-32.22,21.36-62.11,45.21-83.71,78.09-28.76,43.8-19.63,85.53,15.32,119.86,27.35,26.87,60.57,44.69,95.56,59.45,55.29,23.33,112.93,37.96,171.94,48.47,101.22,18.04,203.13,22.95,305.57,17.98,87.62-4.25,174.18-16.68,258.54-41.2,51.83-15.07,102.06-34.52,145.87-67.38,18.62-13.97,35.16-30.11,45.02-51.39,15.59-33.67,6.53-64.46-14.21-92.74-27.81-37.9-65.62-63.92-105.56-87.27-3.84-2.24-7.68-4.49-11.45-6.84-.42-.26-.44-1.16-.91-2.53,1.71-.19,3.37-.85,4.7-.44,50.98,15.73,99.26,36.48,137.69,75.17,50.42,50.76,55.03,118.81,12.64,176.67-25.32,34.57-58.77,59.3-95.1,80.66-45.54,26.78-94.66,45.03-145.16,59.93-48.45,14.3-97.95,23.1-147.88,30.42-83.68,12.27-167.63,13.76-251.68,7.33-76.42-5.84-151.82-18.16-225.29-41.07-57.3-17.87-112.55-40.12-162.02-74.61-32.62-22.74-61.66-49.24-80.26-85.46-28.22-54.95-15.16-114.9,29.15-156.82,38.47-36.39,85.16-56.97,134.78-72.31,1.15-.36,2.56,.11,3.85,.2,.22,.69,.45,1.39,.67,2.08Z"/><path class="cls-1" d="M693.81,152.43c0-24.01-.2-48.03,.04-72.04,.5-50.22,30.25-80.08,80.45-79.79,13.88,.08,28.26,1.43,41.5,5.29,28.92,8.44,45.42,30.65,46.57,59.1,2.35,58.2,1.96,116.57,.61,174.83-.77,33.34-26.32,58-59.07,64.54-16.91,3.38-33.07,3.19-49.88,.09-38.52-7.1-57.68-34.95-59.7-70.74-1.53-27.02-.3-54.19-.3-81.29h-.23Zm128.85,1.89h.14c0-12.02,0-24.04,0-36.06,0-12.02,.12-24.04-.08-36.06-.44-27.91-15.31-41.84-44.58-41.99-27.14-.13-43.12,14.42-43.35,41.31-.41,48.42-.3,96.86,.38,145.27,.18,12.86,4.4,25.34,16.15,32.94,16.39,10.59,33.94,10.67,51.06,2.41,15.4-7.43,20.13-21.68,20.23-37.75,.15-23.35,.04-46.71,.04-70.06Z"/><path class="cls-1" d="M599.22,6.88c-10.21,20.07-20.38,40.17-30.65,60.22-10.25,20.03-20.6,40.01-31.72,61.59,3.91,0,5.83,.38,7.55-.06,46.44-11.87,85.75,14.43,90.45,62.25,1.82,18.54,2.33,38.19-1.76,56.14-9.8,43.01-37.84,60.05-79.63,60.03-38.51-.02-64.31-13.44-77.41-49.59-7.75-21.38-7.71-43.62-4.43-66.1,4.72-32.29,19.49-60.51,34.13-88.9,15.25-29.58,30.41-59.21,45.13-89.06,3.56-7.21,8.15-10.26,16.02-9.95,10.14,.4,20.3,.1,30.46,.1,.62,1.11,1.24,2.22,1.86,3.33Zm-89.38,213.16c-.06,29.14,16.37,47.69,42.52,47.99,25.99,.29,43.43-19.38,43.55-49.11,.11-27.24-18.5-47.25-43.81-47.12-25.47,.14-42.2,19.23-42.26,48.24Z"/><path class="cls-1" d="M368.85,146.31c2.69,2.38,3.53,3.66,4.67,4.06,24.77,8.78,36.47,27.54,40.5,52.38,3.66,22.59,2.42,44.82-8.1,65.29-16.3,31.7-46.08,39.2-78.24,39.43-42.73,.3-74.15-23.13-84.89-61.4-4.24-15.09-3-16.8,12.22-16.91,3.09-.02,6.22,.31,9.26-.11,11.78-1.63,18.5,2.31,22.71,14.48,6.29,18.16,31.04,27.76,53.29,22.75,19.39-4.37,30.18-15.09,32.22-34.91,1.14-11.09,.77-22.73-1.33-33.67-3.81-19.81-17.94-29.4-40.97-29.97-19.57-.48-19.62,2.86-19.42-19.68,.18-19.84,.09-19.84,19.69-20.41,23.7-.69,35.99-12.3,37.86-35.9,.3-3.76,.29-7.55,.22-11.32-.36-21.38-9.9-34.91-27.05-38.46-22.45-4.65-41.98,3.3-49.65,22.87-4.52,11.53-10.74,15.38-22.17,13.87-4.72-.63-9.62-.45-14.39-.05-9.22,.76-10.26-3.7-8.5-11.39C257.85,18.84,296.93-6.81,347.22,1.57c56.95,9.49,84.16,75.95,49.97,123.09-4.63,6.39-12.43,10.51-18.89,15.53-2.58,2-5.49,3.58-9.45,6.12Z"/><path class="cls-1" d="M1032.81,62.88c.16,22.68-5.83,42.84-27.65,53.42-22.55,10.93-46.01,10.73-67.96-2.11-13.67-7.99-21.65-21.02-23.4-36.87-2.33-21.07-2.73-42.05,13.04-59.22,16.46-17.92,47.68-23.02,74.71-12.38,21.45,8.44,31.59,26.98,31.27,57.16Zm-85.53-.96c-.04,17.47,9.82,28.59,25.49,28.76,15.58,.17,26.03-11.62,26.1-29.44,.07-16.33-11.09-28.32-26.26-28.24-15.27,.08-25.29,11.53-25.33,28.92Z"/></g></g></svg>