<svg version="1.2" xmlns="http://www.w3.org/2000/svg" viewBox="0 0 90 90" width="90" height="90">
	<title>6</title>
	<style>
		.s0 { fill: #005a84 } 
	</style>
	<filter id="f0">
		<feFlood flood-color="#1b8354" flood-opacity="1" />
		<feBlend mode="normal" in2="SourceGraphic"/>
		<feComposite in2="SourceAlpha" operator="in" />
	</filter>
	<g filter="url(#f0)">
		<path class="s0" d="m57.7 37.9c-1.2 1.2-2.5 2.5-3.7 3.7-1.2-1.2-2.5-2.5-3.7-3.7 1.2-1.2 2.5-2.4 3.7-3.6 1.2 1.1 2.4 2.3 3.7 3.6z"/>
		<path class="s0" d="m76.6 18.9c-1.2 1.2-2.5 2.5-3.7 3.7-1.2-1.2-2.5-2.5-3.7-3.7 1.2-1.2 2.5-2.5 3.7-3.7 1.2 1.2 2.5 2.5 3.7 3.7z"/>
		<path class="s0" d="m35 60.6c-1.3-1.3-2.5-2.5-3.7-3.7 1.2-1.2 2.5-2.5 3.7-3.7 1.2 1.2 2.5 2.5 3.7 3.7-1.2 1.2-2.5 2.4-3.7 3.7z"/>
		<path class="s0" d="m77.6 17.8q-1.8-1.8-3.6-3.6c1.2-1.2 2.5-2.5 3.7-3.7 1.2 1.2 2.4 2.4 3.6 3.7-1.2 1.1-2.4 2.4-3.7 3.6z"/>
		<path class="s0" d="m63.4 32.1q-1.8-1.8-3.6-3.6c1.2-1.2 2.5-2.5 3.7-3.7 1.1 1.1 2.4 2.4 3.6 3.6-1.2 1.1-2.5 2.4-3.7 3.7z"/>
		<path class="s0" d="m55 33.1c1.2-1.2 2.5-2.5 3.7-3.7 1.2 1.2 2.4 2.5 3.6 3.7-1.2 1.2-2.5 2.5-3.7 3.7-1.1-1.2-2.4-2.4-3.6-3.7z"/>
		<path class="s0" d="m78.8 9.4c1.2-1.2 2.4-2.4 3.6-3.7 1.2 1.2 2.4 2.5 3.6 3.7q-1.8 1.8-3.6 3.6c-1.2-1.1-2.4-2.4-3.6-3.6z"/>
		<path class="s0" d="m49.2 46.3c-1.2-1.2-2.5-2.5-3.7-3.7 1.2-1.2 2.5-2.5 3.7-3.7 1.2 1.2 2.4 2.5 3.6 3.7-1.1 1.2-2.4 2.4-3.6 3.7z"/>
		<path class="s0" d="m40.7 47.3c1.2-1.2 2.5-2.5 3.7-3.7 1.2 1.2 2.5 2.5 3.7 3.8q-1.8 1.8-3.6 3.6c-1.3-1.2-2.5-2.4-3.8-3.7z"/>
		<path class="s0" d="m71.9 23.7q-1.8 1.8-3.6 3.6c-1.2-1.2-2.5-2.5-3.7-3.7 1.2-1.2 2.4-2.4 3.7-3.7 1.1 1.3 2.3 2.5 3.6 3.8z"/>
		<path class="s0" d="m26.6 61.5q1.8-1.8 3.6-3.6c1.2 1.2 2.4 2.5 3.6 3.7q-1.8 1.8-3.6 3.6c-1.1-1.2-2.4-2.4-3.6-3.7z"/>
		<path class="s0" d="m29.2 56.9q-1.8 1.8-3.6 3.6c-1.2-1.2-2.5-2.5-3.7-3.7q1.8-1.8 3.6-3.6c1.2 1.2 2.5 2.4 3.7 3.7z"/>
		<path class="s0" d="m39.7 55.8c-1.2-1.2-2.5-2.4-3.7-3.7 1.2-1.2 2.5-2.4 3.7-3.6q1.8 1.8 3.6 3.6c-1.1 1.2-2.4 2.5-3.6 3.7z"/>
		<path class="s0" d="m20.8 48.4q1.8 1.8 3.6 3.6c-1.2 1.2-2.5 2.5-3.7 3.7q-1.8-1.8-3.6-3.6c1.2-1.2 2.5-2.5 3.7-3.7z"/>
		<path class="s0" d="m19.7 47.4c-1.2 1.2-2.5 2.5-3.7 3.7-1.2-1.2-2.5-2.5-3.7-3.7 1.2-1.2 2.4-2.5 3.7-3.7 1.2 1.2 2.5 2.4 3.7 3.7z"/>
		<path class="s0" d="m41.2 56.8c1-1 2.2-2.2 3.2-3.2 1.1 1.1 2.2 2.2 3.2 3.3-1 1-2.1 2.2-3.2 3.3-1-1.2-2.1-2.3-3.2-3.4z"/>
		<path class="s0" d="m79.2 18.8c1-1 2.1-2.1 3.2-3.2q1.7 1.6 3.3 3.3c-1 1-2.2 2.2-3.2 3.2-1.1-1-2.2-2.2-3.3-3.3z"/>
		<path class="s0" d="m53.9 50.6c-1-1-2.2-2.1-3.3-3.2q1.7-1.7 3.3-3.3 1.7 1.7 3.3 3.3c-1 1-2.2 2.1-3.3 3.2z"/>
		<path class="s0" d="m60.2 37.8c1.1-1.1 2.2-2.2 3.2-3.3q1.7 1.7 3.3 3.3-1.6 1.7-3.3 3.3c-1-1-2.1-2.2-3.2-3.3z"/>
		<path class="s0" d="m76.2 28.3q-1.6 1.7-3.3 3.3-1.7-1.6-3.3-3.3 1.6-1.6 3.3-3.3c1.1 1.2 2.3 2.3 3.3 3.3z"/>
		<path class="s0" d="m38.3 66.3q-1.7 1.6-3.3 3.3-1.7-1.7-3.3-3.3 1.6-1.6 3.3-3.3 1.7 1.7 3.3 3.3z"/>
		<path class="s0" d="m68.2 36.4q-1.6-1.6-3.3-3.3 1.7-1.6 3.3-3.3 1.6 1.7 3.3 3.3-1.7 1.7-3.3 3.3z"/>
		<path class="s0" d="m36.4 61.6q1.7-1.7 3.3-3.3 1.6 1.7 3.3 3.3-1.7 1.7-3.3 3.3-1.6-1.7-3.3-3.3z"/>
		<path class="s0" d="m77.6 26.9c-1-1.1-2.1-2.2-3.2-3.3 1.1-1.1 2.2-2.2 3.2-3.2 1.1 1.1 2.2 2.2 3.2 3.3-0.9 1-2.1 2.1-3.2 3.2z"/>
		<path class="s0" d="m20.8 58.3q1.7 1.7 3.3 3.3c-1.1 1.1-2.2 2.2-3.4 3.2-1-1-2.1-2.2-3.2-3.3 1-1 2.2-2.1 3.3-3.2z"/>
		<path class="s0" d="m58.7 39.3q1.7 1.7 3.3 3.3-1.7 1.7-3.3 3.3c-1.1-1.1-2.2-2.2-3.2-3.3 1-1.1 2.1-2.2 3.2-3.3z"/>
		<path class="s0" d="m16.1 53.6q1.6 1.7 3.3 3.3-1.7 1.7-3.3 3.3-1.6-1.7-3.3-3.3 1.5-1.7 3.3-3.3z"/>
		<path class="s0" d="m30.2 74.3c-1-1-2.1-2.1-3.2-3.2 1.1-1.1 2.2-2.2 3.3-3.2 1 1 2.1 2.1 3.2 3.2-1.1 1-2.2 2.1-3.3 3.2z"/>
		<path class="s0" d="m22.2 66.3q1.6-1.6 3.3-3.3c1.1 1.1 2.2 2.2 3.2 3.3-1 1-2.1 2.1-3.2 3.2-1.1-1-2.2-2.1-3.3-3.2z"/>
		<path class="s0" d="m46 52c1.1-1 2.2-2.1 3.2-3.2q1.7 1.7 3.3 3.3c-1 1-2.2 2.1-3.2 3.2-1.1-1-2.2-2.2-3.3-3.3z"/>
		<path class="s0" d="m8 52c1-1 2.1-2.1 3.2-3.2 1.1 1.1 2.2 2.2 3.2 3.3-1 1-2.1 2.1-3.2 3.2-1-1-2.1-2.2-3.2-3.3z"/>
		<path class="s0" d="m22.7 75.8c0.9-0.9 1.9-1.9 2.8-2.8 0.9 0.9 1.9 1.9 2.8 2.8-0.9 0.9-1.9 1.9-2.9 2.9-0.8-1-1.8-1.9-2.7-2.9z"/>
		<path class="s0" d="m13.1 66.3c1-1 1.9-1.9 2.8-2.8 0.9 0.9 1.9 1.9 2.9 2.9-0.9 0.9-1.9 1.9-2.9 2.8-0.8-1-1.8-1.9-2.8-2.9z"/>
		<path class="s0" d="m6.5 59.7c-0.9-0.9-1.9-1.9-2.8-2.8 0.9-0.9 1.9-1.9 2.9-2.9 0.9 0.9 1.8 1.9 2.7 2.8-0.9 0.9-1.8 1.9-2.8 2.9z"/>
		<path class="s0" d="m30.2 83.4c-0.9-0.9-1.9-1.8-2.8-2.7 1-1 1.9-1.9 2.9-2.9q1.3 1.4 2.7 2.7c-0.9 0.9-1.8 1.9-2.8 2.9z"/>
		<path class="s0" d="m55.9 52.1c0.9-1 1.9-1.9 2.8-2.9 1 0.9 1.9 1.9 2.9 2.8-0.9 0.9-1.9 1.9-2.9 2.8-0.9-0.8-1.9-1.7-2.8-2.7z"/>
		<path class="s0" d="m68.1 45.4c-0.9-0.9-1.9-1.8-2.8-2.8 1-0.9 2-1.9 2.9-2.8q1.4 1.4 2.7 2.7c-0.8 1-1.8 2-2.8 2.9z"/>
		<path class="s0" d="m8.5 61.6c0.9-0.9 1.9-1.9 2.9-2.8 0.9 0.9 1.9 1.9 2.8 2.8-0.9 1-1.9 1.9-2.8 2.9-1.1-1-2-2-2.9-2.9z"/>
		<path class="s0" d="m49.3 58.8c0.9 0.9 1.9 1.9 2.8 2.8-0.9 1-1.9 1.9-2.8 2.9-0.9-0.9-1.8-1.9-2.8-2.9 0.8-0.9 1.8-1.9 2.8-2.8z"/>
		<path class="s0" d="m77.7 30.3c0.9 1 1.9 1.9 2.8 2.8-0.9 0.9-1.9 1.9-2.9 2.8-0.9-0.9-1.8-1.8-2.8-2.8 1-0.9 1.9-1.9 2.9-2.8z"/>
		<path class="s0" d="m23.5 71.1c-0.9 0.9-1.9 1.9-2.8 2.8-0.9-0.9-1.9-1.9-2.8-2.8 0.9-0.9 1.9-1.9 2.8-2.9 1 1 1.9 2 2.8 2.9z"/>
		<path class="s0" d="m39.8 68.2c0.9 0.9 1.8 1.9 2.7 2.8-0.9 0.9-1.9 1.9-2.9 2.8-0.9-0.8-1.8-1.8-2.8-2.7 1.1-0.9 2-1.9 3-2.9z"/>
		<path class="s0" d="m56.8 56.8c-0.9 0.9-1.9 1.9-2.8 2.8-0.9-0.9-1.9-1.9-2.8-2.8 0.9-0.9 1.8-1.8 2.8-2.8 0.9 1 1.9 1.9 2.8 2.8z"/>
		<path class="s0" d="m75.7 37.9c-0.9 0.9-1.9 1.8-2.8 2.8-0.9-0.9-1.9-1.9-2.8-2.8 1-0.9 1.9-1.9 2.9-2.8 0.8 0.9 1.8 1.9 2.7 2.8z"/>
		<path class="s0" d="m32.2 75.8c0.9-0.9 1.9-1.9 2.8-2.8 0.9 0.9 1.9 1.9 2.8 2.8-0.9 0.9-1.9 1.8-2.8 2.8-0.9-0.9-1.9-1.9-2.8-2.8z"/>
		<path class="s0" d="m60.7 47.3q1.3-1.3 2.7-2.7c0.9 0.9 1.9 1.9 2.8 2.8-0.9 0.9-1.9 1.8-2.8 2.7-0.8-0.9-1.8-1.8-2.7-2.8z"/>
		<path class="s0" d="m47.3 66.4c-0.9 0.9-1.9 1.9-2.8 2.8-0.9-0.9-1.8-1.9-2.8-2.8 0.9-0.9 1.9-1.8 2.8-2.7 0.9 0.8 1.8 1.7 2.8 2.7z"/>
		<path class="s0" d="m82.4 31.1q-1.3-1.4-2.7-2.7c0.9-0.9 1.9-1.9 2.9-2.8 0.9 0.9 1.8 1.9 2.7 2.7-1 0.9-2 1.9-2.9 2.8z"/>
	</g>
</svg>