<?xml version="1.0" encoding="UTF-8"?><svg id="Layer_2" xmlns="http://www.w3.org/2000/svg" viewBox="0 0 291.04 291.04"><defs><style>.cls-1{fill:#696868;}.cls-2{fill:#f36c38;}</style></defs><g id="Layer_3"><path class="cls-1" d="M63.19,123.82l-15.75,43.4h12.9l2.35-7.62h13.02l2.35,7.62h13.03l-15.75-43.4h-12.15Zm42.7,0v43.4h20.82c10.93,0,16.32-5.14,16.32-14,0-4.9-2.3-7.95-6.2-9.62,2.9-1.68,5.2-3.78,5.2-8.5,0-7.25-4.4-11.28-15.18-11.28h-20.96Zm52.65,0v43.4h33.66v-10.1h-21.77v-7.44h12.83v-9.98h-12.83v-5.76h21.33v-10.1l-33.22-.02Zm48.7,0v10.48h12.16v32.92h12.02v-32.92h12.15v-10.48h-36.33Zm-89.82,9.5h9.06c2.86,0,3.8,1.48,3.8,3.4,0,2.04-1,3.4-3.8,3.4h-9.07v-6.8Zm-48.19,3.03c.55,2.9,1.23,5.27,2.78,10.85l.8,2.85h-7.2l.82-2.85c1.55-5.52,2.23-7.94,2.8-10.85Zm48.2,12.95h9.56c2.86,0,4.28,1.62,4.28,4.16s-1.36,4.27-4.34,4.27h-9.5v-8.43Z"/><path class="cls-2" d="M145.52,37.17c-59.72,0-108.37,48.61-108.37,108.35,0,59.76,48.66,108.37,108.37,108.37,59.74,0,108.35-48.66,108.35-108.4,0-59.74-48.61-108.35-108.35-108.35m0,253.89C65.27,291.04,0,225.75,0,145.52,0,65.24,65.27,0,145.52,0s145.52,65.24,145.52,145.52c0,80.23-65.27,145.52-145.52,145.52"/></g></svg>