<svg width="39" height="40" viewBox="0 0 39 40" fill="none" xmlns="http://www.w3.org/2000/svg">
<path d="M32.8571 15.5709C33.4487 15.5709 33.9537 15.7801 34.3722 16.1987C34.7907 16.6172 35 17.1222 35 17.7137C35 18.3052 34.7907 18.8103 34.3722 19.2288C33.9537 19.6473 33.4487 19.8566 32.8571 19.8566V26.2851C32.8571 26.8655 32.6451 27.3677 32.221 27.7918C31.7969 28.216 31.2946 28.428 30.7143 28.428C26.0603 24.5552 21.529 22.4347 17.1205 22.0664C16.4732 22.2785 15.9654 22.6468 15.5971 23.1713C15.2288 23.6959 15.0558 24.2567 15.0781 24.8538C15.1004 25.4509 15.3237 25.9671 15.7478 26.4023C15.5246 26.7706 15.3962 27.1362 15.3627 27.4989C15.3292 27.8616 15.3627 28.1853 15.4632 28.4699C15.5636 28.7545 15.7506 29.0614 16.024 29.3906C16.2974 29.7199 16.5653 29.9989 16.8276 30.2277C17.0898 30.4565 17.433 30.7383 17.8571 31.0731C17.5335 31.7204 16.9113 32.1836 15.9905 32.4626C15.0698 32.7416 14.1295 32.8058 13.1696 32.6551C12.2098 32.5045 11.4732 32.1947 10.9598 31.726C10.8817 31.4693 10.7171 30.981 10.466 30.2612C10.2148 29.5413 10.0363 29.0139 9.93025 28.6791C9.82422 28.3443 9.69587 27.8476 9.5452 27.1892C9.39453 26.5307 9.31083 25.9671 9.29408 25.4983C9.27734 25.0296 9.29687 24.4799 9.35268 23.8493C9.40848 23.2187 9.53125 22.6021 9.72098 21.9994H7.67857C6.94196 21.9994 6.31138 21.7372 5.78683 21.2126C5.26228 20.6881 5 20.0575 5 19.3209V16.1066C5 15.37 5.26228 14.7394 5.78683 14.2148C6.31138 13.6903 6.94196 13.428 7.67857 13.428H15.7143C20.5692 13.428 25.5692 11.2851 30.7143 6.99944C31.2946 6.99944 31.7969 7.21149 32.221 7.6356C32.6451 8.0597 32.8571 8.56194 32.8571 9.14229V15.5709ZM30.7143 25.6825V9.71149C26.317 13.082 22.0312 14.9961 17.8571 15.4537V19.9738C22.0647 20.4425 26.3504 22.3454 30.7143 25.6825Z" fill="#676A6C"/>
</svg>
