<svg width="318" height="321" viewBox="0 0 318 321" fill="none" xmlns="http://www.w3.org/2000/svg">
<path d="M2 2H265.936C278.108 2 287.975 11.8674 287.975 24.0394V265.936C287.975 278.108 278.108 287.975 265.936 287.975H24.0394C11.8674 287.975 2 278.108 2 265.936V2Z" stroke="#0E70A0" stroke-width="4"/>
<g filter="url(#filter0_d_548_4499)">
<path d="M15.0234 15.0254H280.959C294.236 15.0254 304.999 25.7882 304.999 39.0648V280.961C304.999 294.238 294.236 305.001 280.959 305.001H39.0628C25.7862 305.001 15.0234 294.238 15.0234 280.961V15.0254Z" fill="url(#paint0_linear_548_4499)"/>
</g>
<path d="M229.859 224.597H231.855V229.701H232.885V224.597H234.9V223.707H229.859V224.597Z" fill="#231F20"/>
<path d="M240.17 223.707L238.664 228.493L237.107 223.707H235.594V229.701H236.541V224.597L238.194 229.701H239.128L240.717 224.673V229.701H241.658V223.707H240.17Z" fill="#231F20"/>
<path d="M159.5 254C210.586 254 252 212.586 252 161.5C252 110.414 210.586 69 159.5 69C108.414 69 67 110.414 67 161.5C67 212.586 108.414 254 159.5 254Z" fill="#097798"/>
<path d="M159.499 249.487C208.092 249.487 247.485 210.094 247.485 161.501C247.485 112.907 208.092 73.5137 159.499 73.5137C110.905 73.5137 71.5117 112.907 71.5117 161.501C71.5117 210.094 110.905 249.487 159.499 249.487Z" fill="white"/>
<path d="M159.496 247.739C206.956 247.739 245.43 209.242 245.43 161.754C245.43 114.266 206.956 75.7695 159.496 75.7695C112.036 75.7695 73.5625 114.266 73.5625 161.754C73.5625 209.242 112.036 247.739 159.496 247.739Z" fill="#102A4D"/>
<path d="M215.016 161.836C215.016 131.179 190.156 106.318 159.498 106.318C128.841 106.318 103.98 131.179 103.98 161.836C103.98 192.494 128.834 217.354 159.498 217.354C190.162 217.354 215.016 192.5 215.016 161.836Z" fill="white"/>
<path d="M143.557 176.61L140.315 178.129C140.099 178.256 139.966 178.479 139.953 178.727V202.812C139.966 203.06 140.106 203.282 140.315 203.403L143.557 204.922C143.678 204.992 143.831 204.954 143.901 204.833C143.926 204.782 143.939 204.731 143.932 204.674V176.858C143.951 176.725 143.856 176.597 143.723 176.578C143.665 176.572 143.608 176.578 143.557 176.61Z" fill="#102B4E"/>
<path d="M151.844 174.314L148.66 174.976C148.431 175.039 148.272 175.243 148.266 175.478V206.065C148.272 206.3 148.437 206.504 148.66 206.567L151.844 207.228C152.022 207.267 152.194 207.159 152.238 206.981C152.245 206.949 152.245 206.923 152.245 206.892V174.658C152.251 174.473 152.111 174.321 151.933 174.314C151.902 174.314 151.876 174.314 151.844 174.321V174.314Z" fill="#102B4E"/>
<path d="M160.996 173.677C160.996 173.677 160.265 173.658 159.693 173.658C158.93 173.658 157.837 173.696 157.837 173.696C157.608 173.709 157.43 173.893 157.43 174.122V207.411C157.43 207.64 157.614 207.824 157.837 207.837C157.837 207.837 158.93 207.875 159.693 207.875C160.265 207.875 160.996 207.856 160.996 207.856C161.218 207.85 161.403 207.666 161.403 207.437V174.103C161.403 173.874 161.225 173.696 160.996 173.684V173.677Z" fill="#102B4E"/>
<path d="M170.177 174.835L166.998 174.218C166.82 174.18 166.642 174.295 166.604 174.479C166.604 174.504 166.598 174.53 166.598 174.562V206.961C166.592 207.145 166.731 207.304 166.916 207.31C166.941 207.31 166.973 207.31 166.998 207.304L170.177 206.687C170.405 206.63 170.571 206.427 170.577 206.192V175.324C170.571 175.089 170.405 174.886 170.177 174.828V174.835Z" fill="#102B4E"/>
<path d="M178.683 177.911L175.448 176.449C175.327 176.379 175.168 176.424 175.104 176.545C175.079 176.589 175.066 176.646 175.073 176.704V204.812C175.054 204.952 175.155 205.079 175.295 205.098C175.346 205.104 175.403 205.098 175.454 205.066L178.689 203.611C178.906 203.49 179.039 203.267 179.058 203.019V178.496C179.045 178.248 178.906 178.032 178.689 177.911H178.683Z" fill="#102B4E"/>
<path d="M191.329 158.867H127.675C127.497 158.861 127.345 159.001 127.332 159.179C127.332 159.211 127.332 159.236 127.338 159.268L128.661 165.574C128.724 165.802 128.928 165.961 129.163 165.968H189.848C190.084 165.955 190.287 165.796 190.351 165.574L191.673 159.268C191.711 159.09 191.603 158.918 191.425 158.874C191.393 158.867 191.368 158.867 191.336 158.867H191.329Z" fill="#102B4E"/>
<path d="M186.941 167.936H132.065C131.893 167.923 131.747 168.057 131.734 168.228C131.734 168.26 131.734 168.298 131.747 168.33L132.294 170.618C132.364 170.847 132.567 171.006 132.802 171.013H186.203C186.439 171 186.642 170.841 186.712 170.618L187.259 168.33C187.303 168.165 187.208 167.993 187.042 167.942C187.011 167.93 186.972 167.93 186.941 167.93V167.936Z" fill="#102B4E"/>
<path d="M178.415 130.258L165.988 129.107C165.467 129.031 165.016 128.701 164.78 128.23L159.848 116.776C159.752 116.553 159.625 116.445 159.505 116.445C159.384 116.445 159.257 116.553 159.161 116.776L154.229 128.23C153.993 128.701 153.542 129.031 153.021 129.107L140.594 130.258C140.117 130.303 140.022 130.595 140.384 130.913L149.754 139.144C150.129 139.513 150.3 140.041 150.211 140.562L147.472 152.741C147.37 153.205 147.618 153.389 148.031 153.141L158.761 146.766C159.231 146.524 159.784 146.524 160.255 146.766L170.984 153.141C171.398 153.389 171.646 153.205 171.537 152.741L168.798 140.562C168.709 140.041 168.887 139.513 169.262 139.144L178.638 130.913C178.994 130.595 178.898 130.303 178.422 130.258H178.415Z" fill="#C6922C"/>
<path d="M100.882 180.908C99.3182 176.191 94.2711 173.763 89.5546 175.327C84.9207 176.928 82.4671 181.988 84.0753 186.616C85.6771 191.25 90.7369 193.703 95.3645 192.095C99.9602 190.506 102.42 185.516 100.882 180.901V180.908ZM87.1328 185.465C86.1412 182.465 87.7875 180.043 90.7878 179.045C93.788 178.047 96.5786 178.994 97.5765 182.001C98.5745 185.008 96.9091 187.455 93.9025 188.453C90.9022 189.451 88.1244 188.472 87.1264 185.465H87.1328Z" fill="white"/>
<path d="M100.032 214.927L102.708 206.893C104.558 207.999 106.891 207.897 108.639 206.638C111.137 204.871 111.817 201.445 109.904 198.737L104.444 191.008L90.2305 201.051L92.4934 204.255L97.5913 200.651L99.7017 203.638L97.2226 210.955L100.026 214.927H100.032ZM104.126 196.036L106.872 199.92C107.673 200.968 107.476 202.469 106.427 203.27C106.389 203.295 106.357 203.327 106.319 203.352C105.232 204.159 103.694 203.931 102.886 202.837C102.867 202.812 102.855 202.793 102.835 202.767L100.089 198.884L104.119 196.036H104.126Z" fill="white"/>
<path d="M115.575 205.539L104.375 218.862L113.795 226.789L115.969 224.208L109.543 218.805L118.575 208.063L115.575 205.539Z" fill="white"/>
<path d="M129.829 215.976L126.162 214.189L118.527 229.833L122.195 231.619C128.253 234.575 133.808 233.272 136.046 228.689C138.283 224.106 135.893 218.925 129.829 215.969V215.976ZM132.378 226.909C130.751 230.246 127.452 230.322 124.375 228.822L123.581 228.434L128.17 219.039L128.965 219.427C132.041 220.927 134.005 223.578 132.378 226.915V226.909Z" fill="white"/>
<path d="M150.038 240.647L153.953 240.736L154.093 234.487L157.754 234.57L162.159 240.92L167.016 241.028L162.153 234.093C164.143 233.267 165.452 231.335 165.478 229.173C165.548 226.116 163.202 223.529 159.884 223.452L150.425 223.236L150.031 240.64L150.038 240.647ZM154.277 226.497L159.032 226.605C160.392 226.637 161.492 227.629 161.46 229.091C161.46 230.445 160.354 231.544 159 231.544C158.975 231.544 158.949 231.544 158.924 231.544L154.169 231.436L154.277 226.504V226.497Z" fill="white"/>
<path d="M172.938 239.915L185.34 236.813L184.52 233.539L175.926 235.694L174.972 231.893L183.083 229.859L182.263 226.585L174.152 228.619L173.332 225.352L181.926 223.197L181.106 219.93L168.711 223.032L172.938 239.915Z" fill="white"/>
<path d="M192.736 217.559C193.823 216.967 194.992 216.535 196.2 216.275L195.418 213.014C193.721 213.319 192.094 213.91 190.6 214.762C185.521 217.508 183.977 222.892 186.341 227.259C188.706 231.626 194.115 233.278 199.15 230.551C200.65 229.757 202.004 228.714 203.154 227.462L200.948 225.034C200.065 225.905 199.067 226.642 197.98 227.233C194.211 229.274 191.299 228.174 189.793 225.396C188.286 222.612 188.973 219.599 192.742 217.559H192.736Z" fill="white"/>
<path d="M214.529 218.977C218.076 215.513 218.146 209.83 214.681 206.283C211.261 202.78 205.661 202.66 202.095 206.022C198.51 209.461 198.485 215.061 201.924 218.646C205.363 222.231 210.944 222.422 214.529 218.983V218.977ZM204.504 208.527C206.786 206.334 209.717 206.785 211.91 209.067C214.103 211.349 214.408 214.279 212.126 216.466C209.844 218.653 206.952 218.208 204.759 215.926C202.566 213.644 202.222 210.713 204.504 208.52V208.527Z" fill="white"/>
<path d="M230.826 196.417L233.21 192.183L224.8 193.213C225.01 191.064 223.916 188.999 222.028 187.962C219.365 186.462 215.971 187.314 214.343 190.206L209.703 198.451L224.876 206.994L226.802 203.574L221.361 200.504L223.154 197.313L230.832 196.41L230.826 196.417ZM221.024 194.859L218.691 199.004L214.382 196.576L216.714 192.431C217.318 191.255 218.761 190.791 219.937 191.395C219.975 191.414 220.013 191.433 220.052 191.459C221.247 192.101 221.698 193.588 221.062 194.783C221.05 194.808 221.037 194.834 221.024 194.853V194.859Z" fill="white"/>
<path d="M236.062 182.234C237.588 175.668 235.083 170.544 230.119 169.387C225.154 168.231 220.635 171.714 219.109 178.287L218.188 182.259L235.14 186.207L236.062 182.234ZM232.846 180.734L232.642 181.598L222.459 179.227L222.662 178.363C223.438 175.026 225.58 172.521 229.191 173.36C232.801 174.199 233.621 177.397 232.846 180.734Z" fill="white"/>
<path d="M233.532 151.591C230.316 151.699 229.801 153.491 228.485 157.223C227.239 160.769 226.966 161.876 225.866 161.914C224.849 161.945 224.474 161.094 224.398 158.64C224.334 156.727 224.512 154.813 224.913 152.945L221.709 152.449C221.213 154.527 220.984 156.663 221.029 158.799C221.194 163.738 222.885 165.931 226.101 165.823C229.159 165.721 230.087 163.732 231.422 159.765C232.515 156.536 232.693 155.538 233.767 155.506C235.077 155.462 235.611 156.752 235.687 158.971C235.757 160.986 235.382 163.217 234.753 165.435L237.785 166.147C238.643 163.795 239.056 161.31 239.005 158.812C238.865 154.527 236.799 151.483 233.538 151.591H233.532Z" fill="white"/>
<path d="M103.076 111.118L100.762 108.715C99.4652 109.808 98.2956 111.048 97.2786 112.408C93.9033 116.87 94.2783 122.432 98.5308 125.649C102.491 128.649 107.919 128.102 111.625 123.208C112.617 121.898 114.06 119.343 114.53 118.027L107.799 112.929L105.587 115.847L110.049 119.222C109.642 119.979 109.172 120.697 108.65 121.377C106.489 124.231 103.419 124.435 100.895 122.521C98.0795 120.392 97.7617 117.525 100.349 114.105C101.156 113.025 102.065 112.02 103.069 111.118H103.076Z" fill="white"/>
<path d="M121.123 109.326C119.292 110.674 117.067 110.426 115.58 108.411L109.554 100.217L106.395 102.544L112.421 110.731C114.804 113.973 119.387 114.952 123.201 112.148C127.015 109.345 127.441 104.68 125.057 101.438L119.031 93.2441L115.872 95.5706L121.898 103.764C123.385 105.786 122.96 107.985 121.123 109.326Z" fill="white"/>
<path d="M129.365 88.4864L125.777 90.0703L132.806 105.992L136.394 104.408L129.365 88.4864Z" fill="white"/>
<path d="M136.629 85.5023L139.903 102.601L143.697 101.877L141.542 90.5811L151.967 100.294L155.711 99.5756L152.444 82.4766L148.649 83.2076L150.81 94.5285L140.379 84.784L136.629 85.5023Z" fill="white"/>
<path d="M172.036 95.1577L165.114 82.6735L161.325 82.2031L159.164 99.4738L163.003 99.9505L164.434 88.5406L171.356 100.999L175.138 101.47L177.306 84.1991L173.466 83.7223L172.036 95.1577Z" fill="white"/>
<path d="M178.473 102.69L190.194 107.794L191.542 104.705L183.412 101.164L184.982 97.5664L192.648 100.91L193.995 97.8206L186.329 94.4771L187.677 91.3878L195.801 94.9284L197.148 91.8328L185.427 86.7285L178.473 102.69Z" fill="white"/>
<path d="M199.456 110.871C197.879 109.619 196.411 107.896 195.127 105.977L192.629 107.833C193.868 110.007 195.496 111.933 197.434 113.509C200.797 116.173 204.452 116.567 206.48 114.005C208.476 111.482 207.44 109.931 205.444 106.517C203.543 103.275 202.876 102.347 203.556 101.489C204.191 100.688 205.075 100.961 207.001 102.481C208.501 103.669 209.849 105.036 211.012 106.555L213.466 104.426C212.201 102.703 210.72 101.146 209.06 99.7982C205.189 96.728 202.418 96.6073 200.422 99.1244C198.521 101.521 199.443 103.517 201.611 107.102C203.365 110.026 204.013 110.808 203.346 111.647C202.532 112.67 201.197 112.251 199.462 110.871H199.456Z" fill="white"/>
<path d="M226.465 120.45C225.69 118.46 224.66 116.572 223.408 114.843C220.465 110.877 217.82 110.038 215.24 111.958C212.786 113.782 213.155 115.943 214.318 119.967C215.252 123.24 215.678 124.162 214.82 124.804C213.771 125.586 212.595 124.829 211.267 123.05C210.066 121.435 209.099 119.382 208.356 117.202L205.457 118.346C206.093 120.761 207.167 123.043 208.629 125.071C211.184 128.51 214.61 129.838 217.236 127.893C219.816 125.98 219.219 124.207 218.176 120.393C217.178 116.769 216.778 115.702 217.662 115.047C218.482 114.437 219.263 114.926 220.732 116.903C221.87 118.441 222.817 120.113 223.548 121.88L226.465 120.463V120.45Z" fill="white"/>
<path d="M80.043 158.64L90.9699 161.996L80.1575 165.727L80.2083 168.835L97.6824 172.783L97.6188 168.918L87.4166 166.706L97.5298 163.242L97.4853 160.553L87.264 157.425L97.39 154.883L97.3264 151.012L79.9922 155.531L80.043 158.64Z" fill="white"/>
<defs>
<filter id="filter0_d_548_4499" x="2.02344" y="5.02539" width="315.977" height="315.975" filterUnits="userSpaceOnUse" color-interpolation-filters="sRGB">
<feFlood flood-opacity="0" result="BackgroundImageFix"/>
<feColorMatrix in="SourceAlpha" type="matrix" values="0 0 0 0 0 0 0 0 0 0 0 0 0 0 0 0 0 0 127 0" result="hardAlpha"/>
<feOffset dy="3"/>
<feGaussianBlur stdDeviation="6.5"/>
<feComposite in2="hardAlpha" operator="out"/>
<feColorMatrix type="matrix" values="0 0 0 0 0 0 0 0 0 0 0 0 0 0 0 0 0 0 0.1 0"/>
<feBlend mode="normal" in2="BackgroundImageFix" result="effect1_dropShadow_548_4499"/>
<feBlend mode="normal" in="SourceGraphic" in2="effect1_dropShadow_548_4499" result="shape"/>
</filter>
<linearGradient id="paint0_linear_548_4499" x1="15.0234" y1="160.013" x2="304.999" y2="160.013" gradientUnits="userSpaceOnUse">
<stop stop-color="white"/>
<stop offset="1" stop-color="#DCDCDC"/>
</linearGradient>
</defs>
</svg>
