<svg width="46" height="42" viewBox="0 0 46 42" fill="none" xmlns="http://www.w3.org/2000/svg">
<path d="M40.9925 4.30054V39.6772C40.9925 39.7225 40.9925 39.7735 40.9869 39.8018C40.9642 40.0283 40.8963 40.2322 40.7887 40.3964H39.5768C39.4692 40.2322 39.3956 40.0283 39.3786 39.8018C39.3729 39.7622 39.3729 39.7169 39.3729 39.6772V4.30054C39.3729 3.68327 39.0048 3.16794 38.5461 3.16794H7.23547C6.77677 3.16794 6.40868 3.67761 6.40868 4.30054V39.6772C6.40868 39.7225 6.40868 39.7735 6.40301 39.8018C6.38036 40.0283 6.31241 40.2322 6.20481 40.3964H4.99293C4.88533 40.2322 4.81171 40.0283 4.79473 39.8018C4.78906 39.7622 4.78906 39.7169 4.78906 39.6772V4.30054C4.78906 2.46573 5.88768 0.970703 7.23547 0.970703H38.5461C39.8939 0.970703 40.9925 2.46573 40.9925 4.30054Z" fill="white"/>
<path d="M6.71559 40.3965C6.52305 40.8099 6.09266 41.093 5.59432 41.093C5.1073 41.093 4.67692 40.8155 4.48438 40.3965H6.71559Z" fill="white"/>
<path d="M41.3015 40.3965C41.109 40.8099 40.6786 41.093 40.1803 41.093C39.6932 41.093 39.2629 40.8155 39.0703 40.3965H41.3015Z" fill="white"/>
<path d="M6.2072 40.3965C6.05996 40.5607 5.84477 40.6626 5.5956 40.6626C5.35775 40.6626 5.1369 40.555 4.99532 40.3965H4.01562C4.23648 41.0534 4.86507 41.5178 5.5956 41.5178C6.33745 41.5178 6.96038 41.0534 7.1869 40.3965H6.2072ZM40.7911 40.3965C40.6438 40.5607 40.4286 40.6626 40.1795 40.6626C39.9416 40.6626 39.7208 40.555 39.5792 40.3965H38.5995C38.8204 41.0534 39.4489 41.5178 40.1795 41.5178C40.9213 41.5178 41.5442 41.0534 41.7708 40.3965H40.7911Z" fill="black"/>
<path d="M45.6261 41.2006C45.6261 41.6367 45.258 41.9991 44.7993 41.9991H0.97914C0.520438 41.9991 0.152344 41.6423 0.152344 41.2006C0.152344 40.7589 0.520438 40.3965 0.97914 40.3965H44.7993C45.258 40.3965 45.6261 40.7533 45.6261 41.2006Z" fill="white"/>
<path d="M20.4632 41.7427H24.8181C25.6279 41.7427 26.2791 41.0858 26.2791 40.2817V33.6446C26.2791 32.8348 25.6222 32.1836 24.8181 32.1836H22.887V40.2817H22.0772V32.1836H20.4689C19.6591 32.1836 19.0078 32.8405 19.0078 33.6446V40.2817C19.0022 41.0858 19.6591 41.7427 20.4632 41.7427Z" fill="white"/>
<path d="M21.8595 19.8171H23.598C24.4078 19.8171 25.0591 19.1602 25.0591 18.356V16.6232C25.0591 15.8134 24.4022 15.1621 23.598 15.1621H21.8595C21.0497 15.1621 20.3984 15.819 20.3984 16.6232V18.3617C20.3984 19.1658 21.0497 19.8171 21.8595 19.8171Z" stroke="white" stroke-width="1.1326" stroke-miterlimit="10"/>
<path d="M21.8595 28.2661H23.598C24.4078 28.2661 25.0591 27.6092 25.0591 26.8051V25.0665C25.0591 24.2567 24.4022 23.6055 23.598 23.6055H21.8595C21.0497 23.6055 20.3984 24.2624 20.3984 25.0665V26.8051C20.3984 27.6092 21.0497 28.2661 21.8595 28.2661Z" stroke="white" stroke-width="1.1326" stroke-miterlimit="10"/>
<path d="M32.0743 19.8171H33.8129C34.6227 19.8171 35.2739 19.1602 35.2739 18.356V16.6232C35.2739 15.8134 34.617 15.1621 33.8129 15.1621H32.0743C31.2645 15.1621 30.6133 15.819 30.6133 16.6232V18.3617C30.6133 19.1658 31.2702 19.8171 32.0743 19.8171Z" stroke="white" stroke-width="1.1326" stroke-miterlimit="10"/>
<path d="M11.8751 19.8171H13.6137C14.4235 19.8171 15.0747 19.1602 15.0747 18.356V16.6232C15.0747 15.8134 14.4178 15.1621 13.6137 15.1621H11.8751C11.0653 15.1621 10.4141 15.819 10.4141 16.6232V18.3617C10.4141 19.1658 11.071 19.8171 11.8751 19.8171Z" stroke="white" stroke-width="1.1326" stroke-miterlimit="10"/>
<path d="M21.8595 11.4829H23.598C24.4078 11.4829 25.0591 10.826 25.0591 10.0219V8.28332C25.0591 7.47351 24.4022 6.82227 23.598 6.82227H21.8595C21.0497 6.82227 20.3984 7.47917 20.3984 8.28332V10.0219C20.3984 10.8317 21.0497 11.4829 21.8595 11.4829Z" stroke="white" stroke-width="1.1326" stroke-miterlimit="10"/>
<path d="M32.0743 11.4829H33.8129C34.6227 11.4829 35.2739 10.826 35.2739 10.0219V8.28332C35.2739 7.47351 34.617 6.82227 33.8129 6.82227H32.0743C31.2645 6.82227 30.6133 7.47917 30.6133 8.28332V10.0219C30.6133 10.8317 31.2702 11.4829 32.0743 11.4829Z" stroke="white" stroke-width="1.1326" stroke-miterlimit="10"/>
<path d="M11.8751 11.4829H13.6137C14.4235 11.4829 15.0747 10.826 15.0747 10.0219V8.28332C15.0747 7.47351 14.4178 6.82227 13.6137 6.82227H11.8751C11.0653 6.82227 10.4141 7.47917 10.4141 8.28332V10.0219C10.4141 10.8317 11.071 11.4829 11.8751 11.4829Z" stroke="white" stroke-width="1.1326" stroke-miterlimit="10"/>
<path d="M32.0743 28.2661H33.8129C34.6227 28.2661 35.2739 27.6092 35.2739 26.8051V25.0665C35.2739 24.2567 34.617 23.6055 33.8129 23.6055H32.0743C31.2645 23.6055 30.6133 24.2624 30.6133 25.0665V26.8051C30.6133 27.6092 31.2702 28.2661 32.0743 28.2661Z" stroke="white" stroke-width="1.1326" stroke-miterlimit="10"/>
<path d="M11.8751 28.2661H13.6137C14.4235 28.2661 15.0747 27.6092 15.0747 26.8051V25.0665C15.0747 24.2567 14.4178 23.6055 13.6137 23.6055H11.8751C11.0653 23.6055 10.4141 24.2624 10.4141 25.0665V26.8051C10.4141 27.6092 11.071 28.2661 11.8751 28.2661Z" stroke="white" stroke-width="1.1326" stroke-miterlimit="10"/>
</svg>
