<svg width="31" height="25" viewBox="0 0 31 25" fill="none" xmlns="http://www.w3.org/2000/svg">
<path d="M20.3027 0.876636C20.1476 0.602089 19.9373 0.393505 19.6629 0.236621C19.3795 0.0815193 19.0872 -0.000488281 18.7682 -0.000488281C18.4759 -0.000488281 18.1836 0.0815193 17.9092 0.236621C17.6258 0.391722 17.4155 0.602089 17.2516 0.876636C17.0965 1.14049 17.0234 1.43464 17.0234 1.75376C17.0234 2.07288 17.0965 2.35634 17.2516 2.63089C17.4155 2.89474 17.6258 3.1158 17.9092 3.27981C18.1836 3.44383 18.4759 3.52762 18.7682 3.52762C19.0872 3.52762 19.3795 3.44561 19.6629 3.27981C19.9373 3.1158 20.1458 2.89652 20.3027 2.63089C20.4488 2.35634 20.5219 2.06396 20.5219 1.75376C20.5219 1.44356 20.4488 1.14227 20.3027 0.876636Z" fill="white"/>
<path d="M28.0529 4.61575H9.48237C7.5772 4.61575 6.63977 5.56062 6.66293 7.45036V17.0809H5.71659V3.09326C5.54906 3.21449 5.04113 3.54787 4.30865 3.54787C3.57616 3.54787 3.06824 3.21449 2.90071 3.09326V17.0827H1.50347C0.724649 17.0827 0.09375 17.7138 0.09375 18.4929C0.09375 19.2719 0.724649 19.903 1.50347 19.903H6.66293V24.8823L8.02097 24.1389L9.49663 24.8823V19.903H28.0511C29.926 19.903 30.8777 18.9582 30.9008 17.0827V7.45214C30.8777 5.5624 29.926 4.61753 28.0511 4.61753L28.0529 4.61575ZM28.0529 17.0827H9.49841V7.45214H28.0529V17.0827Z" fill="white"/>
</svg>
