<svg width="45" height="46" viewBox="0 0 45 46" fill="none" xmlns="http://www.w3.org/2000/svg">
<path d="M22.5981 44.6004C34.4143 44.6004 44.1961 34.7954 44.1961 23.0023C44.1961 11.2093 34.395 1.40039 22.5788 1.40039C10.7626 1.40039 1 11.1823 1 22.9985C1 34.8147 10.805 44.5965 22.5981 44.5965V44.6004Z" stroke="white" stroke-width="1.58824" stroke-miterlimit="10"/>
<path d="M15.0382 2.78906C15.3972 3.61515 15.7138 4.74235 15.4281 5.93516C14.7834 8.61803 11.5524 9.71048 11.9423 11.2044C12.0465 11.6059 12.3978 11.9842 12.7916 12.1077C14.3202 12.5786 16.15 9.06582 17.5976 9.57151C17.8794 9.66802 17.7558 9.78382 18.47 10.359C19.0336 10.8106 20.1569 11.7139 20.7437 11.409C21.2918 11.1195 20.8942 10.0039 21.4424 9.6603C21.9133 9.36692 22.7548 9.84945 23.4535 10.359C23.5694 10.4594 25.1096 11.8529 24.7583 13.6788C24.6965 14.0108 24.7004 15.0338 24.0789 15.0338C23.1679 15.0338 20.7745 13.9104 18.636 13.9104C14.1697 13.9104 9.72266 17.0218 9.72266 21.5112C9.72266 25.0897 11.8419 27.2514 15.5902 27.2514C17.6439 27.2514 19.1687 28.6295 19.1687 30.5326C19.1687 33.6672 18.8097 39.28 23.4883 39.28C27.9198 39.28 30.9887 33.3197 31.6759 31.8953C31.7067 31.8297 31.7415 31.7718 31.7685 31.6984C32.2202 30.5172 30.7803 29.5907 30.6529 28.2204C30.5139 26.6647 32.2163 26.213 31.9654 24.9932C31.6604 23.5186 29.0162 23.4607 28.8811 22.1559C28.8077 21.4379 29.5025 20.4999 30.3518 20.2528C32.3823 19.6661 33.7797 23.4761 37.0069 23.48C38.5741 23.48 39.3462 22.5883 39.8866 23.0669C40.7976 23.8776 38.6436 26.4832 39.5585 28.9036C40.0758 30.2701 41.3767 31.0538 42.4112 31.5093" stroke="white" stroke-width="1.5441" stroke-miterlimit="10"/>
<path d="M32.5368 11.19C31.8497 8.9395 28.7537 8.87773 28.001 11.1205L26.7734 10.7113C27.9431 7.22941 32.7144 7.31047 33.8377 10.7808L32.5329 11.1862L32.5368 11.19Z" fill="white"/>
</svg>
