<svg width="26" height="25" viewBox="0 0 26 25" fill="none" xmlns="http://www.w3.org/2000/svg">
<path d="M6.23073 22.1485H3.84904C3.82131 22.2775 3.78665 22.4078 3.74784 22.5368C3.70763 22.6657 3.67991 22.7961 3.66327 22.9251C3.65218 23.0041 3.67714 23.0804 3.73952 23.1539C3.8019 23.2274 3.87261 23.269 3.95024 23.2801C4.42852 23.3536 4.90957 23.3827 5.39478 23.3688C5.88 23.355 6.35411 23.3023 6.8213 23.2135L6.37353 24.7764C5.20209 24.9567 4.02511 24.9816 2.84258 24.8527C2.57779 24.8249 2.36152 24.7376 2.19655 24.5906C2.03019 24.4436 1.90542 24.2675 1.82085 24.0581C1.73628 23.85 1.68638 23.624 1.67252 23.3827C1.65866 23.14 1.67113 22.9126 1.71133 22.6976C1.79035 22.2691 1.89295 21.8489 2.0191 21.4343C2.14526 21.0197 2.29636 20.6161 2.47103 20.2223C2.39201 20.25 2.30884 20.2736 2.2215 20.2902C2.13416 20.3069 2.04405 20.3304 1.95116 20.3582C1.85828 20.3859 1.76263 20.4275 1.6642 20.4802C1.56578 20.5343 1.46595 20.6147 1.36337 20.7215C1.34673 20.7381 1.33287 20.7465 1.32178 20.7465C1.29405 20.7631 1.26356 20.7645 1.2289 20.7506C1.19424 20.7368 1.18731 20.7118 1.20395 20.6785C1.37308 20.3512 1.56577 20.0531 1.78204 19.7827C1.99969 19.5122 2.2423 19.2807 2.51263 19.0851C2.78296 18.891 3.08241 18.7398 3.41235 18.633C3.74229 18.5263 4.10551 18.4722 4.50616 18.4722H8.13831L7.68221 19.9837H4.99691C4.87907 19.9837 4.78203 20.0212 4.70578 20.0933C4.62953 20.1668 4.56577 20.2542 4.5117 20.3554C4.45763 20.4566 4.41189 20.562 4.37307 20.673C4.33286 20.7825 4.28851 20.874 4.23721 20.9475C4.28851 20.942 4.34812 20.9378 4.41882 20.9351C4.48952 20.9323 4.6032 20.9309 4.76124 20.9309C4.91928 20.9309 5.15079 20.9323 5.44054 20.9351C5.73028 20.9378 6.11706 20.9392 6.60227 20.9392L6.23073 22.1471V22.1485Z" fill="white"/>
<path d="M12.5252 23.1138C12.5986 23.2039 12.6749 23.2566 12.7539 23.2747C13.2322 23.3482 13.7049 23.3676 14.1735 23.3329C14.6407 23.2996 15.1079 23.2344 15.5751 23.1388L15.1273 24.7016C14.502 24.8084 13.9018 24.8708 13.3292 24.8875C12.7553 24.9041 12.1786 24.8708 11.5977 24.7862C11.1014 24.7238 10.7631 24.5089 10.5802 24.14C10.3972 23.7711 10.3902 23.2663 10.5594 22.6229C10.5649 22.5896 10.5732 22.5494 10.5843 22.505C10.5954 22.4606 10.6148 22.3885 10.6425 22.2901C10.6703 22.1916 10.7091 22.0557 10.7562 21.8796C10.8034 21.7048 10.8713 21.4691 10.9586 21.1737C11.046 20.8783 11.1569 20.5122 11.2927 20.0754C11.4286 19.6386 11.5908 19.1102 11.7821 18.4917H13.6647L12.6 22.0141C12.5723 22.1611 12.539 22.3011 12.503 22.437C12.4669 22.573 12.442 22.713 12.4309 22.86C12.4198 22.9391 12.4503 23.0237 12.5238 23.1138V23.1166L12.5252 23.1138Z" fill="white"/>
<path d="M20.8613 23.0023L20.3123 24.794H18.4297L20.3303 18.4995H23.5313C23.8017 18.4995 24.0623 18.5397 24.3132 18.6174C24.5628 18.6964 24.7846 18.8309 24.9759 19.0223C25.0882 19.1402 25.1755 19.2789 25.2379 19.437C25.3003 19.5951 25.3308 19.7573 25.3308 19.9265C25.3308 20.2593 25.2836 20.5852 25.188 20.9069C25.0923 21.2273 24.9537 21.5296 24.7735 21.8111C24.6723 21.9637 24.56 22.112 24.4352 22.2549C24.3105 22.3977 24.176 22.5253 24.0304 22.6349C23.8835 22.7444 23.7282 22.8332 23.5618 22.9011C23.3955 22.9691 23.2222 23.0023 23.042 23.0023H20.8627H20.8613ZM22.188 21.7099C22.346 21.7099 22.475 21.6988 22.5762 21.6766C22.6774 21.6544 22.7633 21.6225 22.834 21.5837C22.9047 21.5449 22.9629 21.4977 23.0115 21.445C23.0586 21.3909 23.1085 21.3368 23.1598 21.28C23.2887 21.1399 23.3899 20.9818 23.4606 20.8071C23.5313 20.6324 23.566 20.4465 23.566 20.2496C23.566 20.1817 23.5535 20.1123 23.5272 20.0388C23.5022 19.9653 23.4662 19.9001 23.4218 19.8405C23.3775 19.7823 23.3234 19.7337 23.261 19.6977C23.1986 19.6616 23.1279 19.6422 23.0503 19.6422H21.8761L21.2425 21.7127H22.188V21.7099Z" fill="white"/>
<path d="M20.1532 4.06987C19.9841 4.06016 19.815 4.04906 19.6472 4.03936C19.6139 4.03658 19.5793 4.0352 19.546 4.03242C19.1939 4.01439 18.8431 3.99914 18.4924 3.97695C18.2082 3.95892 17.9254 3.93396 17.6426 3.91177C17.4471 3.89652 17.2517 3.87988 17.0562 3.86601C16.8136 3.84798 16.5696 3.83134 16.327 3.81193C16.0968 3.79251 15.8681 3.77032 15.6394 3.74952C15.4647 3.73427 15.2886 3.71901 15.1139 3.70515C14.8783 3.68712 14.6412 3.67048 14.4055 3.65106C14.1491 3.63165 13.894 3.60391 13.6361 3.59004C13.3117 3.5734 12.9859 3.56508 12.6615 3.56231C12.4453 3.55954 12.2276 3.56647 12.0114 3.58034C11.7882 3.5942 11.5664 3.61917 11.3445 3.64135C11.1297 3.66216 10.9148 3.69682 10.7013 3.73149C10.2341 3.80777 9.77246 3.91177 9.31636 4.03936C7.99242 4.40962 6.74613 4.96294 5.56914 5.67019C5.49428 5.71596 5.41803 5.76033 5.34317 5.8061C5.32099 5.81996 5.28772 5.79639 5.2891 5.76865C5.30297 5.46357 5.34178 5.16125 5.40694 4.8631C5.62736 3.8563 6.07792 2.96461 6.7683 2.2005C7.56682 1.31713 8.54418 0.729144 9.70037 0.442083C10.1426 0.332529 10.5918 0.278445 11.0465 0.277058C11.3917 0.275671 11.7355 0.30618 12.0793 0.340849C12.1195 0.34501 12.1597 0.350557 12.2013 0.354717C12.4855 0.372745 12.7683 0.390773 13.0525 0.408801C13.3908 0.429603 13.7276 0.451791 14.0659 0.472592C14.0867 0.473979 14.1061 0.475366 14.1269 0.476753C14.4984 0.494781 14.87 0.511422 15.2415 0.530837C15.6338 0.550251 16.0261 0.57244 16.4185 0.594628C16.4323 0.594628 16.4462 0.597401 16.4587 0.597401C16.8718 0.616816 17.2835 0.629297 17.6967 0.655645C18.2581 0.690315 18.8196 0.693088 19.381 0.712503C19.8552 0.727757 20.3279 0.723597 20.802 0.704182C20.924 0.698635 21.046 0.695862 21.168 0.693088C21.5465 0.684768 21.9249 0.651485 22.302 0.622363C22.6056 0.597401 22.9078 0.561345 23.2101 0.522516C23.5594 0.476753 23.906 0.418508 24.2498 0.347783C24.7003 0.256257 25.1467 0.148089 25.5876 0.0135726C25.6139 0.00525199 25.6403 0.00386522 25.6666 -0.000295076C25.6819 -0.00306861 25.7026 0.0246667 25.6985 0.0413079C25.6929 0.0607227 25.6888 0.0801374 25.6832 0.0995521C25.5183 0.597401 25.2923 1.06613 24.9956 1.49741C24.1389 2.74412 22.9744 3.54844 21.5035 3.90761C21.0613 4.01578 20.6121 4.06848 20.156 4.06987H20.1546H20.1532Z" fill="white"/>
<path d="M15.3273 15.3687C15.057 15.3548 14.7852 15.3437 14.5163 15.3285C14.2252 15.3105 13.9354 15.2869 13.6457 15.2647C13.4031 15.2467 13.1591 15.2314 12.9165 15.212C12.6531 15.1912 12.3911 15.169 12.1277 15.1468C11.953 15.1316 11.7769 15.1163 11.6023 15.1024C11.3721 15.0844 11.1434 15.0678 10.9133 15.0484C10.6707 15.029 10.428 15.0068 10.1854 14.9846C10.1522 14.9818 10.1175 14.9776 10.0842 14.9763C9.74042 14.9499 9.39524 14.9236 9.05143 14.9C8.90309 14.8903 8.75337 14.8861 8.60503 14.8861C8.34718 14.8861 8.09071 14.8833 7.83285 14.8917C7.56806 14.9 7.30605 14.9236 7.04403 14.9541C6.82222 14.979 6.6018 15.0081 6.37999 15.0442C5.85042 15.1274 5.33054 15.2467 4.81622 15.3951C3.50892 15.7723 2.27788 16.327 1.11476 17.0342C1.05792 17.0689 0.996916 17.1008 0.93869 17.1341C0.923441 17.1424 0.897104 17.1216 0.89849 17.1036C0.89849 17.0703 0.898484 17.0356 0.901257 17.0023C0.995527 15.8014 1.40727 14.7211 2.16281 13.7809C2.99738 12.7436 4.06622 12.0668 5.36243 11.7548C5.9128 11.6217 6.47149 11.5773 7.03572 11.6078C7.23812 11.6189 7.44052 11.6452 7.64293 11.6633C7.67065 11.666 7.69699 11.6702 7.72333 11.6716C7.99367 11.6896 8.264 11.7063 8.53433 11.7243C8.85179 11.7451 9.16926 11.7659 9.48673 11.7867C9.51445 11.7881 9.5408 11.7909 9.56714 11.7922C9.93174 11.8103 10.2977 11.8269 10.6623 11.8463C11.0477 11.8657 11.4331 11.8879 11.8185 11.9087C11.8393 11.9087 11.8587 11.9115 11.8795 11.9129C12.2857 11.9323 12.6905 11.9517 13.0967 11.9697C13.5778 11.9905 14.0574 12.0127 14.5385 12.028C14.8643 12.0377 15.1887 12.0377 15.5131 12.0432C16.1022 12.0516 16.6914 12.028 17.2792 11.9961C17.6646 11.9753 18.0486 11.942 18.4326 11.8949C18.8097 11.8491 19.184 11.795 19.5569 11.7298C20.1115 11.6314 20.6563 11.4996 21.1956 11.3415C21.2219 11.3346 21.2469 11.3277 21.2732 11.3207C21.2926 11.3152 21.3176 11.336 21.312 11.354C21.2982 11.3998 21.2871 11.4455 21.2718 11.4899C20.5662 13.5104 18.9054 14.8015 17.1628 15.2231C16.6124 15.3562 16.0551 15.4048 15.4909 15.3812C15.4368 15.3784 15.3827 15.3812 15.3287 15.3812V15.3715H15.3273V15.3687Z" fill="white"/>
<path d="M17.442 9.73646C17.0372 9.71011 16.631 9.68515 16.2262 9.6588C15.9558 9.64077 15.6855 9.62552 15.4152 9.60472C15.1587 9.5853 14.9022 9.56173 14.6458 9.54092C14.4711 9.52567 14.295 9.51042 14.1203 9.49655C13.8902 9.47852 13.6615 9.46188 13.4313 9.44246C13.1887 9.42305 12.9461 9.39947 12.7035 9.37867C12.5081 9.36203 12.3126 9.344 12.1171 9.33014C11.8343 9.30933 11.5487 9.29685 11.2659 9.27189C10.9138 9.24138 10.563 9.24 10.2109 9.24832C9.90038 9.25525 9.58985 9.27744 9.27931 9.31072C9.05057 9.33568 8.82183 9.3648 8.59447 9.39947C8.15917 9.46604 7.72941 9.55757 7.30381 9.66851C5.87313 10.0443 4.53394 10.6337 3.27101 11.3992C3.21417 11.4339 3.15456 11.4671 3.09495 11.5004C3.0797 11.5087 3.05335 11.4893 3.05474 11.4713C3.0686 11.316 3.07415 11.1607 3.09495 11.0067C3.17536 10.4201 3.33755 9.85572 3.58848 9.31765C4.28718 7.82272 5.64993 6.57879 7.47294 6.12809C7.77516 6.05321 8.08292 6.01022 8.39346 5.98248C8.84124 5.94227 9.28625 5.97555 9.73126 6.02131C9.95307 6.0435 10.1763 6.05737 10.3995 6.07262C10.7641 6.09758 11.1287 6.11977 11.4933 6.14335C11.5141 6.14473 11.5335 6.14612 11.5543 6.14751C11.9258 6.16554 12.2973 6.18356 12.6689 6.20298C13.0404 6.22239 13.4119 6.24458 13.7835 6.26538C13.8043 6.26677 13.8237 6.26816 13.8445 6.26954C14.2507 6.28896 14.6555 6.30698 15.0616 6.3264C15.5011 6.3472 15.9406 6.368 16.38 6.38742C16.5492 6.39435 16.7183 6.39851 16.8874 6.3999C17.3616 6.40267 17.8343 6.40545 18.3098 6.40406C18.8172 6.40129 19.3246 6.37216 19.8306 6.33472C20.1619 6.30976 20.4919 6.27786 20.8204 6.23626C21.2571 6.18079 21.691 6.11006 22.1208 6.01854C22.5311 5.93256 22.9387 5.82994 23.3407 5.71068C23.3726 5.70097 23.4059 5.69265 23.4392 5.6871C23.4475 5.68571 23.4655 5.70097 23.4655 5.70929C23.4655 5.7287 23.4614 5.7495 23.4544 5.76753C23.2562 6.37771 22.965 6.94074 22.5741 7.45107C21.7271 8.55632 20.6236 9.2705 19.2719 9.60194C18.9503 9.68099 18.6217 9.72536 18.289 9.74478C18.0048 9.76142 17.7206 9.75171 17.4364 9.742H17.4392L17.442 9.73646Z" fill="white"/>
</svg>
