<svg width="49" height="49" viewBox="0 0 49 49" fill="none" xmlns="http://www.w3.org/2000/svg">
<path d="M48.5592 46.7239C48.5325 45.8111 48.5048 44.8567 48.3972 43.9311C48.0926 41.4356 46.8422 39.562 44.6778 38.3648C43.6905 37.8173 42.5944 37.4115 41.3301 37.1133C41.148 37.0728 41.148 37.0664 41.1342 36.9109L41.1203 36.7149C41.0734 35.9779 41.0319 35.2131 40.8636 34.476C40.363 32.2776 39.7953 29.9578 39.1317 27.3674L38.8814 26.4002C38.4287 24.6822 37.9611 22.9109 37.8536 21.1183C37.7992 20.1852 37.7652 19.2511 37.7385 18.3181C37.7045 17.3371 37.6778 16.3572 37.6171 15.3762C37.4754 13.05 37.2518 11.1018 36.6638 9.18142C36.65 9.14733 36.6638 9.04615 36.6979 8.97159C37.3199 7.76054 37.0632 6.65813 35.9747 5.86675C35.8597 5.7858 35.7382 5.71124 35.6157 5.64307C35.5273 5.5962 35.4464 5.54827 35.3654 5.49395C35.277 5.43324 35.1695 5.35868 35.1151 5.28412C33.9659 3.78975 32.4576 2.62663 30.6171 1.81501C27.9447 0.639109 25.0763 0.320636 21.8501 0.841483C18.9007 1.3144 16.4531 2.6064 14.5795 4.67594C14.2206 5.07536 13.8222 5.48756 13.3077 5.80497C12.2256 6.47493 11.8602 7.44846 12.3001 8.48376C12.5302 9.02484 12.4695 9.45728 12.2937 9.93766C12.2469 10.0793 12.2128 10.222 12.1851 10.3701L12.1649 10.4787C11.5769 13.4004 11.4544 16.3359 11.3671 19.3321L11.3607 19.4812C11.3266 20.5974 11.3 21.7542 11.0699 22.8363C10.6439 24.8718 10.1028 26.9285 9.56809 28.9161L9.45305 29.3421C8.79694 31.8175 8.11419 34.3812 8.03963 37.0387C8.02579 37.0451 7.98531 37.059 7.95868 37.0653L7.86389 37.092C7.59335 37.1804 7.3228 37.2677 7.05226 37.3561C6.40253 37.5585 5.73364 37.7758 5.09776 38.0527C3.31261 38.8377 2.04724 40.0882 1.33786 41.7721C0.925658 42.7531 0.688135 43.8619 0.621032 45.1678C0.594404 45.7632 0.600795 46.3586 0.607186 46.9401C0.613576 47.1968 0.613576 47.4546 0.613576 47.7049V48.0021H2.20274L2.22298 47.7251C2.24322 47.3598 2.26346 47.0019 2.2773 46.6493C2.31778 45.8718 2.35186 45.1347 2.43281 44.3902C2.66927 42.1311 3.81215 40.5281 5.81459 39.6216C6.5655 39.284 7.39736 38.9996 8.28994 38.7695C10.6034 38.1741 13.0585 37.4509 15.2963 36.2537C15.357 36.2196 15.3773 36.2196 15.3773 36.2196C15.3773 36.2196 15.3975 36.226 15.4582 36.2665C17.0612 37.5244 18.8869 38.4106 20.8691 38.9038C21.2206 38.9922 21.5795 39.0657 21.9374 39.1402L22.1813 39.1945V47.5004C22.1813 47.5952 22.1813 47.69 22.1877 47.7773C22.2218 48.2779 22.519 48.5825 23.0057 48.6156H23.0664C23.5191 48.6156 23.8578 48.2907 23.9047 47.7976C23.9111 47.7028 23.9111 47.6016 23.9111 47.5068V39.3564C27.6039 39.4779 30.9175 38.4362 33.7582 36.2516C33.7784 36.2452 33.8189 36.2452 33.8253 36.2377C35.8202 37.2997 37.9643 37.9696 39.987 38.5373L40.0882 38.564C41.2247 38.8814 42.4017 39.2137 43.4764 39.693C45.2818 40.4982 46.3778 41.9724 46.6483 43.961C46.7633 44.8269 46.8038 45.7259 46.8379 46.5982C46.8518 46.9497 46.8645 47.3087 46.8848 47.6601C46.9252 48.4782 47.4322 48.6007 47.7369 48.6007C47.9808 48.6007 48.1895 48.5122 48.3451 48.3567C48.4601 48.2353 48.6018 48.0116 48.589 47.6335C48.5751 47.3353 48.5687 47.0243 48.5549 46.7207L48.5592 46.7239ZM16.7918 4.96671C18.7324 3.2966 21.5806 2.34224 24.6918 2.3497C27.7285 2.36994 30.5425 3.33707 32.415 4.96671C29.7842 4.62161 27.1874 4.45226 24.5896 4.45226C21.9928 4.45226 19.4088 4.62161 16.7918 4.96671ZM32.8209 6.76571C32.9966 6.78595 33.1723 6.80619 33.3481 6.82642C33.592 6.85305 33.8349 6.88714 34.0788 6.90098C34.4441 6.92761 34.7754 7.08312 35.1205 7.40159C35.2696 7.53686 35.3367 7.72646 35.2962 7.9022C35.2621 8.07156 35.1407 8.20683 34.9649 8.27393C34.721 8.36234 34.4441 8.38896 34.2417 8.34849C30.8866 7.66574 27.4643 7.57095 24.5565 7.56349C21.669 7.56988 18.267 7.67213 14.9523 8.35488C14.6147 8.42198 14.3164 8.38151 14.1204 8.24624C13.999 8.15783 13.9245 8.03641 13.9042 7.88729C13.884 7.75841 13.9308 7.56243 14.0054 7.48148C14.2696 7.16407 14.6136 6.97448 15.0269 6.91376C18.5908 6.40676 21.6413 6.16285 24.4479 6.16285C25.2127 6.16285 25.9561 6.18309 26.6868 6.21717C28.1141 6.28428 29.5616 6.43339 30.9675 6.58251C31.5832 6.64322 32.2052 6.70394 32.8209 6.76465V6.76571ZM13.9916 10.2764C14.0118 10.1954 14.032 10.1145 14.0523 10.0463C14.931 10.1677 15.7703 9.99943 16.5883 9.83008C17.008 9.74167 17.4404 9.65433 17.8665 9.61386C20.4228 9.35716 23.0739 9.24852 25.9689 9.29645C29.1472 9.34332 31.7312 9.59362 34.0915 10.0676C34.4228 10.1347 34.7679 10.0878 34.9916 10.041C35.08 10.0207 35.1205 10.0271 35.1268 10.0207C35.1332 10.0346 35.1471 10.0612 35.1535 10.1219C35.2142 10.4809 35.2887 10.8451 35.3633 11.2041C35.505 11.8943 35.6477 12.6111 35.701 13.3077C35.8629 15.3634 35.9853 17.5959 36.0801 20.328C36.1472 22.2281 36.5126 24.0676 36.9461 25.7931C36.5807 25.1775 36.2154 24.549 35.8842 23.9057C35.0459 22.2686 34.8702 20.4494 34.802 18.7249C34.7413 17.0815 34.7136 15.5796 34.7274 14.1321C34.7338 13.1181 34.3078 12.3129 33.4631 11.7239C32.2191 10.8579 30.7172 10.5203 28.8703 10.696C28.1737 10.7631 27.4633 10.892 26.7741 11.088C25.3128 11.4938 23.893 11.5002 22.4316 11.088C20.72 10.6151 19.2863 10.5203 17.9336 10.8036C16.9728 11.006 16.2358 11.3181 15.6276 11.7846C14.8564 12.3725 14.4709 13.1309 14.457 14.098C14.4165 16.4786 14.3484 18.4608 14.2472 20.3343C14.1588 21.9714 13.6049 23.5947 12.5696 25.2851L12.2245 25.8464C12.2384 25.7921 12.2511 25.7377 12.2714 25.6845C13.0425 22.9652 13.1096 20.1245 13.164 17.6225C13.2247 14.6199 13.4814 12.3534 13.9894 10.2774L13.9916 10.2764ZM19.1319 32.2574C19.1862 31.8579 19.2405 31.466 19.2671 31.074C19.2938 30.6948 19.2874 30.3093 19.281 29.8907V29.8843C22.8183 32.3394 26.3822 32.333 29.8992 29.8704V30.4179C29.8928 31.1283 29.879 31.8516 30.1229 32.5556C26.9978 34.2193 22.2505 34.2257 19.0914 32.5694L19.1319 32.2584V32.2574ZM28.8032 28.5039C28.5465 28.6594 28.2887 28.8149 28.0523 28.9981C27.3088 29.5594 26.5238 29.8566 25.7058 29.8843C24.8335 29.9109 23.927 29.9386 23.0749 29.8172C22.5743 29.7426 21.9992 29.52 21.4112 29.1674C20.41 28.5656 19.6932 28.0586 19.0978 27.5176C18.0092 26.544 17.2381 25.2382 16.6895 23.4392C16.7641 23.4861 16.845 23.5404 16.9334 23.6085C17.2444 23.845 17.5693 24.0889 17.8335 24.3733C18.7868 25.3948 20.0042 25.726 21.4655 25.3543L21.7499 25.2797C22.1291 25.1849 22.5072 25.0901 22.879 24.9826C23.9814 24.6651 25.0976 24.6651 26.2948 24.9762C27.1533 25.1998 28.0193 25.3415 28.8586 25.4832C29.4881 25.5844 30.1101 25.3948 30.6981 24.9155C30.9004 24.7461 31.0975 24.5778 31.2935 24.4085C31.5502 24.1848 31.8079 23.9622 32.0785 23.7523C32.2137 23.6511 32.349 23.55 32.4907 23.4616C31.7131 25.8496 30.5362 27.4718 28.8043 28.5071L28.8032 28.5039ZM28.2621 23.6948L27.9032 23.6064C27.5442 23.518 27.1799 23.4307 26.821 23.322C25.3192 22.8896 23.7641 22.896 22.1952 23.3625C21.7755 23.4839 21.3292 23.5649 20.9032 23.6469C20.7136 23.681 20.524 23.714 20.3418 23.7555C20.0372 23.8162 19.7667 23.7417 19.5036 23.5116C19.1585 23.207 18.807 22.9098 18.4619 22.6116C17.7994 22.0439 16.9739 21.4485 15.8715 21.3057C15.8853 21.1641 15.8981 21.0288 15.9184 20.8935C15.9727 20.3791 16.027 19.8923 16.0472 19.3917L16.0536 19.2969C16.1144 17.6396 16.1825 15.9215 16.1751 14.2312C16.1751 13.656 16.3987 13.2981 16.9462 12.9871C17.7578 12.527 18.6707 12.331 19.6655 12.3992C20.524 12.4599 21.2621 12.5749 21.931 12.7581C23.7502 13.2523 25.4885 13.2449 27.2534 12.7517C28.8224 12.3118 30.0132 12.2575 31.1284 12.576C31.6492 12.7251 32.1498 12.9956 32.6163 13.2662C32.7719 13.361 32.9817 13.5367 32.9955 14.0512C33.0424 16.1069 33.117 18.1157 33.2054 20.3482C33.2192 20.6326 33.2522 20.9095 33.2938 21.2067C33.3002 21.2408 33.3002 21.2812 33.3076 21.3153C31.9411 21.4911 30.9537 22.3506 30.0611 23.223C29.5264 23.7236 28.9726 23.8791 28.2621 23.6959V23.6948ZM14.8096 24.7163L15.1142 24.1613C15.6617 25.8389 16.4328 27.2119 17.4607 28.3484C17.5075 28.4027 17.5416 28.4836 17.5416 28.5305C17.5555 29.4838 17.5555 30.4381 17.5352 31.3914C17.5352 31.5001 17.515 31.6076 17.4884 31.7365C17.123 31.5405 16.8589 31.4319 16.5958 31.5203C16.2912 31.6151 16.1229 31.9123 15.8928 32.3862L15.5882 33.0083C15.3645 33.461 15.1483 33.9083 14.9182 34.3546C14.8511 34.4835 14.7627 34.5911 14.6881 34.6315C13.0042 35.5784 11.1988 36.1802 9.76407 36.5924L9.78431 36.3901C9.82478 35.9502 9.87271 35.5177 9.93982 35.0917C10.0612 34.3408 10.204 33.4748 10.4127 32.6504C10.5416 32.1434 10.7376 31.663 10.9741 31.2508C11.3735 30.5606 11.7921 29.8779 12.2117 29.1951C12.5973 28.5731 12.9765 27.9436 13.3482 27.3152C13.8488 26.4492 14.3292 25.5833 14.8096 24.7184V24.7163ZM16.6086 34.8073C16.8046 34.4696 16.9739 34.1107 17.1433 33.7592L17.2178 33.6037C22.1888 36.1941 27.018 36.1941 31.9624 33.6037L32.0369 33.7453C32.2329 34.1373 32.4289 34.5303 32.6046 34.9287C32.5844 34.9628 32.5578 34.9958 32.5375 35.0097C31.1507 36.078 29.6297 36.815 28.0129 37.2145C23.8802 38.2285 20.066 37.5052 16.6778 35.0565C16.5692 34.9756 16.5489 34.9415 16.5489 34.9415C16.5553 34.9415 16.5553 34.9074 16.6096 34.8062L16.6086 34.8073ZM32.5503 31.5203C32.4832 31.5001 32.4214 31.4937 32.3543 31.4937C32.1243 31.4937 31.9016 31.6023 31.6844 31.7237C31.6577 31.5885 31.6375 31.4596 31.63 31.3446C31.6098 30.4179 31.6162 29.4912 31.6236 28.5646C31.6236 28.49 31.6577 28.4091 31.6844 28.375C32.7463 27.198 33.5302 25.8048 34.0649 24.1347C34.5996 25.3724 35.3026 26.5089 35.9928 27.6177L36.4529 28.3611C36.5616 28.5369 36.6628 28.7201 36.7703 28.8958C37.0004 29.2953 37.2433 29.7075 37.5213 30.0866C38.6375 31.6012 38.989 33.3736 39.1647 34.7402C39.2318 35.2408 39.2936 35.7414 39.3543 36.2686L39.3948 36.5935C37.3189 35.9853 35.7627 35.3622 34.3962 34.5847C34.3493 34.558 34.2673 34.4025 34.2407 34.3408C34.0244 33.9147 33.821 33.495 33.6112 33.069L33.1787 32.1967C33.0435 31.8995 32.8613 31.6087 32.5492 31.5203H32.5503Z" fill="white"/>
<path d="M25.333 42.653H25.367C25.9422 42.653 26.3885 42.2269 26.4087 41.6518C26.429 41.0702 25.9891 40.5898 25.415 40.5696C25.1242 40.5558 24.8473 40.658 24.6374 40.854C24.4276 41.05 24.3126 41.3141 24.3126 41.5974C24.3062 42.179 24.745 42.6328 25.334 42.653H25.333Z" fill="white"/>
<path d="M25.334 44.418C24.7589 44.4318 24.3062 44.9122 24.3126 45.4863C24.319 46.0742 24.7727 46.5077 25.3607 46.5077H25.367C25.955 46.5077 26.4023 46.0615 26.4087 45.4724C26.4087 45.1817 26.3001 44.9111 26.0977 44.7151C25.8953 44.5192 25.6312 44.4308 25.334 44.418Z" fill="white"/>
</svg>
