<svg version="1.2" xmlns="http://www.w3.org/2000/svg" viewBox="0 0 480 480" width="480" height="480">
	<title>grants</title>
	<style>
		.s0 { fill: #356589 } 
	</style>
	<filter id="f0">
		<feFlood flood-color="#1b8354" flood-opacity="1" />
		<feBlend mode="normal" in2="SourceGraphic"/>
		<feComposite in2="SourceAlpha" operator="in" />
	</filter>
	<g id="Layer_2-2" filter="url(#f0)">
		<path class="s0" d="m195 411.4l14.1 3.1c37 8.2 75.7 0.4 106.7-21.5l98.6-69.6c2.8-2 4-5.5 2.9-8.7l-2.2-6.7c-5.5-16.7-23.7-25.8-40.4-20.2q-2.2 0.7-4.2 1.7l-6.9 3.5-3.7-1.8c-12.7-6.1-27.4-6.4-40.3-0.8l-12-3c-12.1-2.9-25-0.3-35.1 7.1l-19.8 14.9h-34.3l-11.1-5.5c-30.1-15.1-66-12.9-94 5.8l-24.3 16.3-11.2 5.6-8.9-17.9c-1.9-3.7-6.2-5.3-10-3.6l-54.1 23.2c-4 1.6-5.8 6.2-4.1 10.1q0.1 0.1 0.1 0.3l61.9 131.5c1.3 2.7 4 4.4 7 4.4 1.3 0 2.6-0.3 3.8-1l54.2-31c3.5-2 4.9-6.5 3.1-10.1l-8.3-16.5c22.3-11.6 48-15 72.5-9.6zm154.5-107.8l-35.2 30.1c-2.1-5.2-5.3-9.9-9.5-13.8l14.1-11.2c8.7-6.8 20.2-8.7 30.6-5.1zm-67.7 3.3c5.9-4.2 13.2-5.9 20.4-4.6l-11.6 9.3c-3.9-1.4-8-2.1-12.1-2.2zm-208.8 154.1l-54.9-116.6 40.1-17.2 55.4 110.6zm11.6-115.6l11.6-5.8q0.4-0.2 0.8-0.5l24.8-16.5c23.3-15.6 53.3-17.5 78.4-4.9l12.8 6.4c1.1 0.5 2.3 0.8 3.5 0.8h61.9c9.8 0 18.6 6.2 21.8 15.5h-68.2v15.4h77.3c1.9 0 3.6-0.6 5-1.8l53.5-45.8 9.5-4.8c2.3-1.1 4.8-1.7 7.3-1.7 7.2 0 13.5 4.5 15.7 11.3l0.4 1.2-93.9 66.3c-27.4 19.3-61.7 26.2-94.5 18.9l-14-3.1c-28.1-6.2-57.4-2.4-82.8 10.9l-30.9-61.8z"/>
		<path class="s0" d="m474.3 77.8l-232-77.4c-1.6-0.5-3.3-0.5-4.9 0l-232.1 77.4c-4 1.3-6.3 5.7-4.9 9.7 0.8 2.3 2.6 4.2 4.9 4.9l87.5 29.2v87.2c0 2.5 1.2 4.8 3.1 6.2 85.3 64 202.5 64 287.8 0 1.9-1.4 3.1-3.7 3.1-6.2v-87.2l38.6-12.9v61.5c-3.1 0-6 1.9-7.2 4.8l-15.4 38.7q-0.6 1.4-0.6 2.9v15.4c0 4.3 3.5 7.8 7.8 7.8h46.4c4.2 0 7.7-3.5 7.7-7.8v-15.4q0-1.5-0.6-2.9l-15.4-38.7c-1.2-2.9-4-4.8-7.2-4.8v-66.6l33.4-11.2c4-1.3 6.2-5.7 4.9-9.7-0.8-2.4-2.6-4.2-4.9-5v0.1zm-25.7 140.3v6.2h-30.9v-6.2l13-32.4h5zm-208.9 29.4c-47.2-0.1-93.2-15-131.5-42.5v-20.1c39.1 25.6 84.8 39.3 131.5 39.4 46.7-0.1 92.4-13.8 131.5-39.4v20.1c-38.3 27.5-84.3 42.4-131.5 42.5zm131.5-81.4c-38.3 27.6-84.3 42.6-131.5 42.7-47.2-0.1-93.2-15.1-131.5-42.7v-39.4l129.1 43.1c1.6 0.5 3.3 0.5 4.9 0l129-43.1c0 0 0 39.4 0 39.4zm-131.5-11.8l-207.6-69.2 207.6-69.2 207.6 69.2-207.6 69.2z"/>
		<path fill-rule="evenodd" class="s0" d="m239.8 100.6c-8.5 0-15.5-7-15.5-15.5 0-8.6 7-15.5 15.5-15.5 8.6 0 15.5 6.9 15.5 15.5 0 8.5-6.9 15.5-15.5 15.5z"/>
	</g>
</svg>