<?xml version="1.0" encoding="UTF-8"?><svg id="Layer_2" xmlns="http://www.w3.org/2000/svg" viewBox="0 0 291.04 291.04"><defs><style>.cls-1{fill:none;}.cls-2{fill:#fff;}.cls-3{fill:#c6922c;}.cls-4{fill:#102b4e;}.cls-5{fill:#102a4d;}.cls-6{fill:#231f20;}.cls-7{fill:#097798;}</style></defs><g id="Layer_3"><g id="tm"><polygon class="cls-6" points="256.2 244.78 259.34 244.78 259.34 252.81 260.96 252.81 260.96 244.78 264.13 244.78 264.13 243.38 256.2 243.38 256.2 244.78"/><polygon class="cls-6" points="272.42 243.38 270.05 250.91 267.6 243.38 265.22 243.38 265.22 252.81 266.71 252.81 266.71 244.78 269.31 252.81 270.78 252.81 273.28 244.9 273.28 252.81 274.76 252.81 274.76 243.38 272.42 243.38"/></g><circle class="cls-7" cx="145.52" cy="145.52" r="145.52"/><circle class="cls-2" cx="145.52" cy="145.52" r="138.42"/><ellipse class="cls-5" cx="145.52" cy="145.92" rx="135.19" ry="135.27"/><path id="inner_white_circle" class="cls-2" d="M232.86,146.05c0-48.23-39.11-87.34-87.34-87.34S58.18,97.82,58.18,146.05s39.1,87.34,87.34,87.34,87.34-39.1,87.34-87.34Z"/><g id="pillar"><path class="cls-4" d="M120.44,169.29l-5.1,2.39c-.34,.2-.55,.55-.57,.94v37.89c.02,.39,.24,.74,.57,.93l5.1,2.39c.19,.11,.43,.05,.54-.14,.04-.08,.06-.16,.05-.25v-43.76c.03-.21-.12-.41-.33-.44-.09-.01-.18,0-.26,.05Z"/><path class="cls-4" d="M133.47,165.68l-5.01,1.04c-.36,.1-.61,.42-.62,.79v48.12c.01,.37,.27,.69,.62,.79l5.01,1.04c.28,.06,.55-.11,.62-.39,.01-.05,.01-.09,.01-.14v-50.71c.01-.29-.21-.53-.49-.54-.05,0-.09,0-.14,.01Z"/><path class="cls-4" d="M147.87,164.68s-1.15-.03-2.05-.03c-1.2,0-2.92,.06-2.92,.06-.36,.02-.64,.31-.64,.67v52.37c0,.36,.29,.65,.64,.67,0,0,1.72,.06,2.92,.06,.9,0,2.05-.03,2.05-.03,.35-.01,.64-.3,.64-.66v-52.44c0-.36-.28-.64-.64-.66Z"/><path class="cls-4" d="M162.31,166.5l-5-.97c-.28-.06-.56,.12-.62,.41,0,.04-.01,.08-.01,.13v50.97c-.01,.29,.21,.54,.5,.55,.04,0,.09,0,.13-.01l5-.97c.36-.09,.62-.41,.63-.78v-48.56c-.01-.37-.27-.69-.63-.78Z"/><path class="cls-4" d="M175.69,171.34l-5.09-2.3c-.19-.11-.44-.04-.54,.15-.04,.07-.06,.16-.05,.25v44.22c-.03,.22,.13,.42,.35,.45,.08,.01,.17,0,.25-.05l5.09-2.29c.34-.19,.55-.54,.58-.93v-38.58c-.02-.39-.24-.73-.58-.92Z"/><path class="cls-4" d="M195.59,141.38H95.45c-.28-.01-.52,.21-.54,.49,0,.05,0,.09,.01,.14l2.08,9.92c.1,.36,.42,.61,.79,.62h95.47c.37-.02,.69-.27,.79-.62l2.08-9.92c.06-.28-.11-.55-.39-.62-.05-.01-.09-.01-.14-.01Z"/><path class="cls-4" d="M188.69,155.65H102.36c-.27-.02-.5,.19-.52,.46,0,.05,0,.11,.02,.16l.86,3.6c.11,.36,.43,.61,.8,.62h84.01c.37-.02,.69-.27,.8-.62l.86-3.6c.07-.26-.08-.53-.34-.61-.05-.02-.11-.02-.16-.02Z"/></g><path id="star" class="cls-3" d="M175.28,96.37l-19.55-1.81c-.82-.12-1.53-.64-1.9-1.38l-7.76-18.02c-.15-.35-.35-.52-.54-.52s-.39,.17-.54,.52l-7.76,18.02c-.37,.74-1.08,1.26-1.9,1.38l-19.55,1.81c-.75,.07-.9,.53-.33,1.03l14.74,12.95c.59,.58,.86,1.41,.72,2.23l-4.31,19.16c-.16,.73,.23,1.02,.88,.63l16.88-10.03c.74-.38,1.61-.38,2.35,0l16.88,10.03c.65,.39,1.04,.1,.87-.63l-4.31-19.16c-.14-.82,.14-1.65,.73-2.23l14.75-12.95c.56-.5,.41-.96-.34-1.03Z"/><g id="words"><path class="cls-1" d="M240.78,192.65c-1.79-1.05-4.1-.45-5.15,1.35-.03,.06-.07,.12-.1,.18l-3.67,6.52,6.78,3.82,3.67-6.52c1.07-1.85,.44-4.21-1.41-5.28-.04-.02-.08-.04-.11-.06Z"/><path class="cls-1" d="M48.11,177.77c-1.57-4.72-5.96-6.21-10.68-4.65s-7.32,5.37-5.75,10.1,5.93,6.26,10.66,4.7,7.34-5.42,5.78-10.15Z"/><path class="cls-1" d="M61.85,211.36c1.72-1.17,2.16-3.51,.99-5.22-.04-.06-.08-.12-.13-.17l-4.32-6.11-6.34,4.49,4.32,6.11c1.21,1.76,3.62,2.2,5.37,.99,.04-.03,.07-.05,.11-.08Z"/><path class="cls-1" d="M228.3,231.99c3.59-3.45,3.1-8.05-.34-11.64s-8.05-4.3-11.65-.85-3.05,8.05,.4,11.64,8,4.3,11.59,.85Z"/><path class="cls-1" d="M255.16,164.18c-5.69-1.32-9.05,2.62-10.27,7.87l-.32,1.36,16.02,3.73,.32-1.36c1.22-5.25-.06-10.28-5.75-11.6Z"/><path class="cls-1" d="M148.6,251.85c.05-2.3-1.68-3.86-3.82-3.91l-7.48-.17-.17,7.77,7.48,.17c2.13,.07,3.92-1.6,3.99-3.73,0-.04,0-.09,0-.13Z"/><path class="cls-1" d="M97.47,236.64l-1.25-.61-7.22,14.78,1.25,.61c4.84,2.36,10.03,2.24,12.59-3.01s-.53-9.41-5.37-11.77Z"/><path class="cls-2" d="M53.3,176.05c-2.46-7.42-10.4-11.24-17.82-8.78-7.29,2.52-11.15,10.48-8.62,17.76,2.52,7.29,10.48,11.15,17.76,8.62,7.23-2.5,11.1-10.35,8.68-17.61Zm-21.63,7.17c-1.56-4.72,1.03-8.53,5.75-10.1s9.11-.08,10.68,4.65-1.05,8.58-5.78,10.15c-4.72,1.57-9.09,.03-10.66-4.7Z"/><path class="cls-2" d="M51.97,229.57l4.21-12.64c2.91,1.74,6.58,1.58,9.33-.4,3.93-2.78,5-8.17,1.99-12.43l-8.59-12.16-22.36,15.8,3.56,5.04,8.02-5.67,3.32,4.7-3.9,11.51,4.41,6.25Zm6.44-29.72l4.32,6.11c1.26,1.65,.95,4.01-.7,5.27-.06,.04-.11,.09-.17,.13-1.71,1.27-4.13,.91-5.4-.81-.03-.04-.05-.07-.08-.11l-4.32-6.11,6.34-4.48Z"/><polygon class="cls-2" points="76.42 214.8 58.8 235.76 73.62 248.23 77.04 244.17 66.93 235.67 81.14 218.77 76.42 214.8"/><path class="cls-2" d="M98.84,231.22l-5.77-2.81-12.01,24.61,5.77,2.81c9.53,4.65,18.27,2.6,21.79-4.61s-.24-15.36-9.78-20.01Zm4.01,17.2c-2.56,5.25-7.75,5.37-12.59,3.01l-1.25-.61,7.22-14.78,1.25,.61c4.84,2.36,7.93,6.53,5.37,11.78Z"/><path class="cls-2" d="M130.63,270.03l6.16,.14,.22-9.83,5.76,.13,6.93,9.99,7.64,.17-7.65-10.91c3.13-1.3,5.19-4.34,5.23-7.74,.11-4.81-3.58-8.88-8.8-9l-14.88-.34-.62,27.38Zm6.67-22.26l7.48,.17c2.14,.05,3.87,1.61,3.82,3.91,0,2.13-1.74,3.86-3.87,3.86-.04,0-.08,0-.12,0l-7.48-.17,.17-7.76Z"/><polygon class="cls-2" points="166.66 268.88 186.17 264 184.88 258.85 171.36 262.24 169.86 256.26 182.62 253.06 181.33 247.91 168.57 251.11 167.28 245.97 180.8 242.58 179.51 237.44 160.01 242.32 166.66 268.88"/><path class="cls-2" d="M197.81,233.71c1.71-.93,3.55-1.61,5.45-2.02l-1.23-5.13c-2.67,.48-5.23,1.41-7.58,2.75-7.99,4.32-10.42,12.79-6.7,19.66s12.23,9.47,20.15,5.18c2.36-1.25,4.49-2.89,6.3-4.86l-3.47-3.82c-1.39,1.37-2.96,2.53-4.67,3.46-5.93,3.21-10.51,1.48-12.88-2.89-2.37-4.38-1.29-9.12,4.64-12.33Z"/><path class="cls-2" d="M232.09,235.94c5.58-5.45,5.69-14.39,.24-19.97-5.38-5.51-14.19-5.7-19.8-.41-5.64,5.41-5.68,14.22-.27,19.86,5.41,5.64,14.19,5.94,19.83,.53Zm-15.77-16.44c3.59-3.45,8.2-2.74,11.65,.85s3.93,8.2,.34,11.64-8.14,2.74-11.59-.85-3.99-8.2-.4-11.65h0Z"/><path class="cls-2" d="M257.73,200.45l3.75-6.66-13.23,1.62c.33-3.38-1.39-6.63-4.36-8.26-4.19-2.36-9.53-1.02-12.09,3.53l-7.3,12.97,23.87,13.44,3.03-5.38-8.56-4.83,2.82-5.02,12.08-1.42Zm-15.42-2.45l-3.67,6.52-6.78-3.82,3.67-6.52c.95-1.85,3.22-2.58,5.07-1.63,.06,.03,.12,.06,.18,.1,1.88,1.01,2.59,3.35,1.59,5.23-.02,.04-.04,.08-.06,.11Z"/><path class="cls-2" d="M265.97,178.14c2.4-10.33-1.54-18.39-9.35-20.21-7.81-1.82-14.92,3.66-17.32,14l-1.45,6.25,26.67,6.21,1.45-6.25Zm-5.06-2.36l-.32,1.36-16.02-3.73,.32-1.36c1.22-5.25,4.59-9.19,10.27-7.87s6.97,6.35,5.75,11.6Z"/><path class="cls-2" d="M261.99,129.93c-5.06,.17-5.87,2.99-7.94,8.86-1.96,5.58-2.39,7.32-4.12,7.38-1.6,.05-2.19-1.29-2.31-5.15-.1-3.01,.18-6.02,.81-8.96l-5.04-.78c-.78,3.27-1.14,6.63-1.07,9.99,.26,7.77,2.92,11.22,7.98,11.05,4.81-.16,6.27-3.29,8.37-9.53,1.72-5.08,2-6.65,3.69-6.7,2.06-.07,2.9,1.96,3.02,5.45,.11,3.17-.48,6.68-1.47,10.17l4.77,1.12c1.35-3.7,2-7.61,1.92-11.54-.22-6.74-3.47-11.53-8.6-11.36Z"/><path class="cls-2" d="M56.75,66.26l-3.64-3.78c-2.04,1.72-3.88,3.67-5.48,5.81-5.31,7.02-4.72,15.77,1.97,20.83,6.23,4.72,14.77,3.86,20.6-3.84,1.56-2.06,3.83-6.08,4.57-8.15l-10.59-8.02-3.48,4.59,7.02,5.31c-.64,1.19-1.38,2.32-2.2,3.39-3.4,4.49-8.23,4.81-12.2,1.8-4.43-3.35-4.93-7.86-.86-13.24,1.27-1.7,2.7-3.28,4.28-4.7Z"/><path class="cls-2" d="M85.14,63.44c-2.88,2.12-6.38,1.73-8.72-1.44l-9.48-12.89-4.97,3.66,9.48,12.88c3.75,5.1,10.96,6.64,16.96,2.23s6.67-11.75,2.92-16.85l-9.48-12.89-4.97,3.66,9.48,12.89c2.34,3.18,1.67,6.64-1.22,8.75Z"/><rect class="cls-2" x="97.74" y="30.74" width="6.17" height="27.38" transform="translate(-9.36 44.5) rotate(-23.82)"/><polygon class="cls-2" points="109.54 25.96 114.69 52.86 120.66 51.72 117.27 33.95 133.67 49.23 139.56 48.1 134.42 21.2 128.45 22.35 131.85 40.16 115.44 24.83 109.54 25.96"/><polygon class="cls-2" points="165.24 41.15 154.35 21.51 148.39 20.77 144.99 47.94 151.03 48.69 153.28 30.74 164.17 50.34 170.12 51.08 173.53 23.91 167.49 23.16 165.24 41.15"/><polygon class="cls-2" points="175.37 53 193.81 61.03 195.93 56.17 183.14 50.6 185.61 44.94 197.67 50.2 199.79 45.34 187.73 40.08 189.85 35.22 202.63 40.79 204.75 35.92 186.31 27.89 175.37 53"/><path class="cls-2" d="M208.38,65.87c-2.48-1.97-4.79-4.68-6.81-7.7l-3.93,2.92c1.95,3.42,4.51,6.45,7.56,8.93,5.29,4.19,11.04,4.81,14.23,.78,3.14-3.97,1.51-6.41-1.63-11.78-2.99-5.1-4.04-6.56-2.97-7.91,1-1.26,2.39-.83,5.42,1.56,2.36,1.87,4.48,4.02,6.31,6.41l3.86-3.35c-1.99-2.71-4.32-5.16-6.93-7.28-6.09-4.83-10.45-5.02-13.59-1.06-2.99,3.77-1.54,6.91,1.87,12.55,2.76,4.6,3.78,5.83,2.73,7.15-1.28,1.61-3.38,.95-6.11-1.22Z"/><path class="cls-2" d="M250.87,80.94c-1.22-3.13-2.84-6.1-4.81-8.82-4.63-6.24-8.79-7.56-12.85-4.54-3.86,2.87-3.28,6.27-1.45,12.6,1.47,5.15,2.14,6.6,.79,7.61-1.65,1.23-3.5,.04-5.59-2.76-1.89-2.54-3.41-5.77-4.58-9.2l-4.56,1.8c1,3.8,2.69,7.39,4.99,10.58,4.02,5.41,9.41,7.5,13.54,4.44,4.06-3.01,3.12-5.8,1.48-11.8-1.57-5.7-2.2-7.38-.81-8.41,1.29-.96,2.52-.19,4.83,2.92,1.79,2.42,3.28,5.05,4.43,7.83l4.59-2.23Z"/><polygon class="cls-2" points="20.52 141.02 37.71 146.3 20.7 152.17 20.78 157.06 48.27 163.27 48.17 157.19 32.12 153.71 48.03 148.26 47.96 144.03 31.88 139.11 47.81 135.11 47.71 129.02 20.44 136.13 20.52 141.02"/></g></g></svg>