<svg version="1.2" xmlns="http://www.w3.org/2000/svg" viewBox="0 0 374 385" width="374" height="385">
	<title>IU_medina_1</title>
	<style>
		.s0 { fill: #1b8354 } 
	</style>
	<g id="Layer_1-2">
		<g>
			<path class="s0" d="m185.8 384c-7.2-1-14.5-1.8-21.8-3-78.6-12.9-144.3-75.7-159.6-153.9-14.3-73.3 6.3-136.1 60.1-187.7 17.4-16.6 37.9-28.8 60.2-37.8 1.2-0.5 2.3-1.1 3.4-1.6h3.7c5 4.1 5 7.1 0 11.5-31.8 27.9-51.7 62.7-58.1 104.5-8.1 52.9 5.2 100.4 40 141.3 28.8 33.8 65.7 53.5 109.7 59.7 13.7 2 27.6 2.2 41.5 0.5 3.9-0.4 6.7 1.5 7.2 4.9 0.4 3.3-1.8 5.7-5.8 6.3-1 0.2-2 0.3-3 0.4-25.2 2.2-50.1 0.1-74-8.2-65.8-22.9-108.3-68.1-124.3-136-13.3-56.7-0.8-108.9 34.4-155.6 0.6-0.9 1.3-1.7 2.2-2.8-41.9 22.7-91.8 82.6-90.4 163.1 1.4 82.8 59.7 156.6 140.1 177.2 79.2 20.3 154.2-14.2 192.2-64.1-1.6 0.8-2.7 1.4-3.7 2-13.6 7.8-27.9 14-43 18.1-1.7 0.5-4.1 0.9-5.3 0.1-1.7-1.1-3.1-3.3-3.4-5.3-0.3-2.7 1.8-4.4 4.5-5.2 6.5-2.2 13.1-4.1 19.4-6.7 18.6-7.4 35.4-18 50.4-31.2 1.5-1.3 3.7-2.5 5.5-2.6 4.4-0.1 6.8 4.7 4.2 8.8-6 9.6-11.8 19.5-18.8 28.3-33.3 41.4-76.5 65.6-129 73.3-4.8 0.7-9.6 1.1-14.5 1.7q-12 0-24 0z"/>
			<g>
				<path class="s0" d="m353.4 99.9c0-25.2-9-46.1-28.8-62-0.5-0.3-0.8-0.8-1.2-1.2h-0.5c-0.7 0.7-1.3 1.5-2.1 2.1-18.6 15.3-27.5 35.3-27.7 59.2-0.2 16.5 0 33 0 49.5v2.6c-0.3 0.1-0.3 0.1-0.5 0.2q-1.5-2.1-3-4.2c-5.4-7.5-12-14.1-19.6-19.5-14.8-10.5-29.6-20.9-44.6-31.4-2.2 1.5-4.4 3-6.6 4.6-12.4 8.7-25 17.1-37.2 26.1-25.1 18.6-38 43.7-39.2 74.9-0.1 5.4 0 10.8 0 16.4h-14.9v59.2c5 0.1 8.3 8.7 13.4 8.8l1.7-52.7h165.4v14.9c-1 0-2 0.1-2.9 0.1-14 0-28 0.1-42-0.1-2.4 0-4 0.8-5.6 2.4q-13 13.2-26.2 26.2c-0.4 0.4-0.9 0.7-1.5 1 0.2 0.6-9 40.2-9 40.3 6.9 1.5 19 3.3 19 3.3 0 0 6.4-34.6 6.9-35.2 4-5 11.4-14 16.7-20 1.9-2.1 3.4-2.8 5.2-2.8 12.2 0.1 24.3 0 36.5 0h2.9v46.8c5.1-0.1 10.2-6.2 15.3-6.2v-85.8h-14.9v-90.2l29.8 21.4v148.6c11.1-5.1 5.4-2.3 15.2-7.8v-15.1c0-58.1-0.1-116.3 0-174.4zm-186.6 65.1c6-11.1 14.2-20.3 24.5-27.6q16.1-11.4 32.4-22.6c0.6-0.5 2.1-0.8 2.7-0.4 12.7 8.9 25.7 17.4 37.8 27 14.4 11.2 23 26.3 27 44 0.2 0.5 0.2 1 0.2 1.7h-132.3c1.4-7.8 4.1-15.1 7.7-22.1zm126 52.2h-135.2v-14.7h135.2zm30.4-160.1c6.4 7.2 10.6 15.3 13 24.5h-26c2.4-9.2 6.6-17.2 13-24.5zm15 54.6h-29.8v-14.8h29.8z"/>
				<path class="s0" d="m172.4 247.7v14.7h-14.8v-14.7z"/>
				<path class="s0" d="m187.8 262.4v-14.7h14.8v14.7z"/>
			</g>
		</g>
	</g>
</svg>