<svg width="134" height="40" viewBox="0 0 134 40" fill="none" xmlns="http://www.w3.org/2000/svg">
<path d="M13.2384 17.948C11.5761 18.7466 9.86405 19.146 8.09228 19.146C5.57397 19.146 3.61307 18.4495 2.18968 17.0472C0.766289 15.6542 0.0595703 13.7876 0.0595703 11.4567C0.0595703 9.12578 0.786197 7.1106 2.2494 5.63404C3.71261 4.15747 5.70337 3.41455 8.23163 3.41455C9.87401 3.41455 11.3571 3.67457 12.6611 4.19462L11.9145 6.80414C10.7798 6.36767 9.56544 6.15408 8.2814 6.15408C6.7087 6.15408 5.5242 6.61841 4.71794 7.55635C3.91169 8.49429 3.50358 9.79441 3.50358 11.4567C3.50358 13.0168 3.91169 14.2427 4.71794 15.1063C5.5242 15.9793 6.69875 16.4064 8.23163 16.4064C8.88858 16.4064 9.54553 16.3321 10.2124 16.1928V12.8218H7.53487V10.2587H13.2384V17.948Z" fill="white"/>
<path d="M28.2887 5.57832C29.5926 7.01773 30.2496 8.92147 30.2496 11.2803C30.2496 13.639 29.5926 15.5428 28.2887 16.9822C26.9847 18.4216 25.1831 19.146 22.8838 19.146C20.5844 19.146 18.7828 18.4216 17.4689 16.9822C16.155 15.5428 15.498 13.639 15.498 11.2803C15.498 8.92147 16.155 7.01773 17.4589 5.57832C18.7629 4.1389 20.5745 3.41455 22.8838 3.41455C25.193 3.41455 26.9847 4.1389 28.2887 5.57832ZM19.9474 7.51921C19.2805 8.42929 18.9421 9.68297 18.9421 11.2803C18.9421 12.8775 19.2805 14.1312 19.9474 15.0413C20.6143 15.9514 21.5898 16.4064 22.8838 16.4064C24.1778 16.4064 25.1234 15.9514 25.8002 15.0413C26.4671 14.1312 26.8056 12.8775 26.8056 11.2803C26.8056 9.68297 26.4671 8.42929 25.8002 7.51921C25.1333 6.60912 24.1578 6.15408 22.8838 6.15408C21.6097 6.15408 20.6143 6.60912 19.9474 7.51921Z" fill="white"/>
<path d="M40.303 18.8862H36.5504C35.4356 16.7317 34.4004 14.3079 33.4548 11.6148C32.5092 8.93099 31.7427 6.27504 31.1455 3.6748H34.5895C35.784 8.76383 37.0581 12.8406 38.4118 15.9145C39.7655 12.9056 41.0396 8.81955 42.2539 3.6748H45.6979C45.1107 6.28433 44.3343 8.93099 43.3887 11.6148C42.4431 14.2986 41.4079 16.7224 40.293 18.8862H40.303Z" fill="white"/>
<path d="M48.5545 17.6047C48.5047 18.069 48.3255 18.4219 47.997 18.6633C47.6686 18.9048 47.2405 18.9977 46.713 18.9605C46.1655 18.9141 45.7574 18.7469 45.4887 18.4498C45.2199 18.1526 45.1104 17.7626 45.1702 17.2889C45.2896 16.3046 45.9167 15.8588 47.0315 15.9424C47.579 15.9888 47.9771 16.156 48.2459 16.4531C48.5047 16.7503 48.6142 17.1404 48.5445 17.614L48.5545 17.6047Z" fill="white"/>
<path d="M50.5059 18.2545L51.113 15.6264C52.6459 16.1743 54.0793 16.4529 55.4031 16.4529C57.2048 16.4529 58.1006 15.8771 58.1006 14.7163C58.1006 14.0755 57.8717 13.6112 57.4138 13.314C56.9559 13.0168 56.1298 12.6918 54.9353 12.3296C53.492 11.8653 52.3971 11.2895 51.6605 10.6116C50.9239 9.93371 50.5556 8.98648 50.5556 7.78852C50.5556 6.39553 51.0434 5.31829 52.0188 4.5568C52.9943 3.7953 54.3779 3.41455 56.1696 3.41455C57.8318 3.41455 59.2951 3.67457 60.5492 4.19462L59.8923 6.77628C58.668 6.33053 57.4934 6.09836 56.3786 6.09836C54.7462 6.09836 53.93 6.6277 53.93 7.68636C53.93 8.23427 54.1191 8.65216 54.4874 8.92147C54.8557 9.20007 55.5524 9.49724 56.5578 9.83156C57.3541 10.0916 58.0011 10.333 58.5187 10.5559C59.0363 10.7788 59.5339 11.076 60.0217 11.4474C60.5094 11.8189 60.8678 12.2646 61.1066 12.794C61.3356 13.3233 61.455 13.9455 61.455 14.6698C61.455 16.0907 60.9175 17.1865 59.8326 17.9666C58.7576 18.7374 57.3242 19.1274 55.5325 19.1274C53.5617 19.1274 51.8795 18.8302 50.5059 18.2359V18.2545Z" fill="white"/>
<path d="M73.8774 18.8862L72.9019 15.543H66.8898C66.5613 16.5553 66.2329 17.6696 65.9143 18.8862H62.4902C64.3516 12.5249 66.2428 7.45443 68.1539 3.6748H71.6278C73.5987 7.57516 75.4899 12.6456 77.3114 18.8862H73.8873H73.8774ZM69.8959 6.97153C69.3384 8.10449 68.6019 10.0732 67.706 12.8871H72.0658C71.1301 9.97109 70.4135 8.00234 69.8959 6.97153Z" fill="white"/>
<path d="M5.93246 34.161H5.46463C4.55884 34.161 3.97156 33.8731 3.70281 33.288C3.2748 33.3345 2.87664 33.353 2.4984 33.353C1.72201 33.353 1.11482 33.2323 0.666904 32.9909C0.218983 32.7494 0 32.378 0 31.8858C0 30.985 0.437967 30.2513 1.32385 29.6941C2.20974 29.1277 3.26484 28.8491 4.48916 28.8491V32.0065C4.48916 32.378 4.57874 32.638 4.76786 32.7866C4.95699 32.9352 5.28546 33.0094 5.7732 33.0094H5.9225V34.161H5.93246ZM2.71738 32.3408C2.96623 32.3408 3.23498 32.3315 3.51369 32.3037V29.9449C2.74725 30.0099 2.13011 30.2142 1.66228 30.5671C1.19445 30.92 0.955564 31.2636 0.955564 31.6257C0.955564 31.8393 1.10487 32.0158 1.40348 32.1458C1.7021 32.2758 2.14006 32.3408 2.72734 32.3408H2.71738ZM2.13011 26.7317L2.93637 27.3911L2.25951 28.0876L1.46321 27.4561L2.13011 26.7224V26.7317ZM3.74262 26.6946L4.54888 27.3539L3.87202 28.0504L3.07572 27.4189L3.74262 26.6853V26.6946Z" fill="white"/>
<path d="M6.19132 35.2298L6.99757 35.8891L6.32072 36.5856L5.52441 35.9541L6.19132 35.2205V35.2298ZM5.93252 34.1618C5.84294 34.1618 5.76331 34.1061 5.70358 33.9947C5.64386 33.8832 5.614 33.7439 5.614 33.586C5.614 33.4282 5.64386 33.2889 5.70358 33.1774C5.76331 33.066 5.83298 33.0103 5.93252 33.0103H6.12164C6.87813 33.0103 7.37582 32.9081 7.60476 32.7038C7.84365 32.4995 7.96309 32.1931 7.96309 31.7937V30.345L9.00824 30.2708V31.7009C9.00824 32.1188 8.96843 32.4624 8.87884 32.7317C9.30685 32.9174 9.89413 33.0103 10.6307 33.0103H10.7103V34.1618H10.4814C9.56565 34.1618 8.84898 33.9761 8.32143 33.6046C7.87351 33.9761 7.16679 34.1618 6.20127 34.1618H5.93252ZM7.80383 35.1926L8.61009 35.852L7.93323 36.5485L7.13693 35.917L7.80383 35.1833V35.1926Z" fill="white"/>
<path d="M10.7199 34.1615C10.6303 34.1615 10.5507 34.1058 10.491 33.9944C10.4312 33.8829 10.4014 33.7436 10.4014 33.5858C10.4014 33.4279 10.4312 33.2886 10.491 33.1771C10.5507 33.0657 10.6204 33.01 10.7199 33.01H10.909C11.6655 33.01 12.1632 32.9078 12.3921 32.7035C12.631 32.4992 12.7505 32.1928 12.7505 31.7935V30.3447L13.7956 30.2705V31.7006C13.7956 32.1185 13.7558 32.4621 13.6662 32.7314C14.0942 32.9171 14.6815 33.01 15.4181 33.01H15.4977V34.1615H15.2688C14.353 34.1615 13.6363 33.9758 13.1088 33.6043C12.6609 33.9758 11.9542 34.1615 10.9886 34.1615H10.7199ZM11.8148 28.1067L12.6808 28.8125L11.9542 29.5647L11.0981 28.8868L11.8148 28.1067Z" fill="white"/>
<path d="M15.4982 34.1617C15.4086 34.1617 15.329 34.106 15.2693 33.9946C15.2095 33.8831 15.1797 33.7438 15.1797 33.586C15.1797 33.4281 15.2095 33.2888 15.2693 33.1773C15.329 33.0659 15.3987 33.0102 15.4982 33.0102H16.6031C16.8022 32.713 16.9515 32.4158 17.0311 32.1094C17.1207 31.8122 17.1605 31.385 17.1605 30.8278V26.3889L18.2554 26.3053V29.3884C18.2554 30.1499 18.1857 30.8186 18.0464 31.3758C19.0517 30.0849 20.2064 29.4349 21.5203 29.4349C22.3166 29.4349 22.9337 29.6763 23.3916 30.1499C23.8395 30.6235 24.0684 31.2457 24.0684 32.0165C24.0684 32.5551 23.9788 33.0659 23.8096 33.5395C23.292 33.7624 22.6351 33.9203 21.8487 34.0224C21.0624 34.1153 20.0272 34.1617 18.7431 34.1617H15.4883H15.4982ZM21.3709 30.54C20.7339 30.54 20.1367 30.7257 19.5793 31.0972C19.0219 31.4686 18.4047 32.1094 17.7179 33.0102H18.9124C19.9575 33.0102 20.7837 32.9823 21.4008 32.9359C22.0179 32.8895 22.5754 32.7873 23.073 32.6387C23.073 32.5923 23.083 32.5273 23.083 32.4344C23.083 31.8029 22.9237 31.3293 22.6152 31.0136C22.2966 30.6978 21.8885 30.54 21.3709 30.54Z" fill="white"/>
<path d="M26.6762 36.5569C26.2383 36.5569 25.8202 36.5011 25.4121 36.4083L25.5316 35.4518C25.8401 35.5075 26.1885 35.5353 26.5568 35.5353C27.3332 35.5353 27.9304 35.3868 28.3485 35.0803C28.7665 34.7738 29.0154 34.421 29.1149 34.0216C28.6471 34.0495 28.229 34.0681 27.8707 34.0681C26.9948 34.0681 26.3776 33.8916 26.0292 33.548C25.6809 33.2044 25.5116 32.7308 25.5116 32.1179C25.5116 31.3935 25.7207 30.7899 26.1387 30.2977C26.5568 29.8148 27.0943 29.5641 27.7413 29.5641C28.4679 29.5641 29.0652 29.8705 29.5131 30.4927C29.961 31.1057 30.1899 31.9507 30.1899 33.0094H30.9763V34.1609H30.0705C29.8913 34.941 29.5131 35.5261 28.9457 35.9439C28.3783 36.3618 27.6219 36.5569 26.6862 36.5569H26.6762ZM28.1594 33.0094H29.2045C29.2045 32.3872 29.0652 31.83 28.7864 31.3378C28.5077 30.8456 28.1394 30.6042 27.6816 30.6042C27.2834 30.6042 26.9848 30.7435 26.7758 31.0221C26.5667 31.3007 26.4573 31.6071 26.4573 31.9507C26.4573 32.2943 26.5867 32.5636 26.8355 32.7401C27.0843 32.9165 27.5223 33.0094 28.1494 33.0094H28.1594Z" fill="white"/>
<path d="M30.966 34.162C30.8764 34.162 30.7968 34.1063 30.737 33.9948C30.6773 33.8834 30.6475 33.7441 30.6475 33.5862C30.6475 33.4284 30.6773 33.2891 30.737 33.1776C30.7968 33.0662 30.8664 33.0105 30.966 33.0105H31.0556C31.603 33.0105 32.0908 32.9547 32.5387 32.8433C32.5885 32.249 32.6183 31.5618 32.6183 30.7724C32.6183 29.8159 32.5984 28.3486 32.5685 26.3613L33.6734 26.2777C33.6933 28.2093 33.7132 29.6209 33.7132 30.5124C33.7132 31.4039 33.6933 32.0632 33.6635 32.4904C33.6336 32.9176 33.554 33.3169 33.4445 33.6884C33.1857 33.8184 32.8273 33.9298 32.3794 34.0227C31.9315 34.1156 31.4836 34.162 31.0456 34.162H30.966Z" fill="white"/>
<path d="M36.5109 34.1612H35.416V26.3698L36.5109 26.2863V34.1705V34.1612Z" fill="white"/>
<path d="M46.703 34.161H46.2351C45.3293 34.161 44.7421 33.8731 44.4733 33.288C44.0453 33.3345 43.6472 33.353 43.2689 33.353C42.4925 33.353 41.8853 33.2323 41.4374 32.9909C40.9895 32.7494 40.7705 32.378 40.7705 31.8858C40.7705 30.985 41.2085 30.2513 42.0944 29.6941C42.9802 29.1277 44.0353 28.8491 45.2597 28.8491V32.0065C45.2597 32.378 45.3492 32.638 45.5384 32.7866C45.7275 32.9352 46.056 33.0094 46.5437 33.0094H46.693V34.161H46.703ZM43.4879 32.3408C43.7367 32.3408 44.0055 32.3315 44.2842 32.3037V29.9449C43.5178 30.0099 42.9006 30.2142 42.4328 30.5671C41.965 30.92 41.7261 31.2636 41.7261 31.6257C41.7261 31.8393 41.8754 32.0158 42.174 32.1458C42.4726 32.2758 42.9106 32.3408 43.4978 32.3408H43.4879ZM42.9006 26.7317L43.7069 27.3911L43.03 28.0876L42.2337 27.4561L42.9006 26.7224V26.7317ZM44.5131 26.6946L45.3194 27.3539L44.6425 28.0504L43.8462 27.4189L44.5131 26.6853V26.6946Z" fill="white"/>
<path d="M58.3492 34.1613C57.6126 34.1613 56.9955 34.0127 56.5078 33.7062C55.6318 34.0313 54.4473 34.1984 52.9344 34.1984C52.0186 34.1984 51.2721 34.1427 50.7047 34.022C50.1373 33.9105 49.5998 33.7341 49.1021 33.5112C48.694 33.9477 47.9674 34.1613 46.9322 34.1613H46.7033C46.6137 34.1613 46.5341 34.1056 46.4743 33.9941C46.4146 33.8827 46.3848 33.7434 46.3848 33.5855C46.3848 33.4276 46.4146 33.2883 46.4743 33.1769C46.5341 33.0655 46.6037 33.0097 46.7033 33.0097H46.9521C47.6389 33.0097 48.0769 32.9076 48.2859 32.7033C48.495 32.499 48.5945 32.1925 48.5945 31.7932V30.3445L49.6397 30.2702V31.5982C49.6397 31.9325 49.6197 32.2297 49.57 32.4897C49.6596 32.5269 49.789 32.5733 49.9781 32.629C50.7047 31.5146 51.4512 30.7067 52.2077 30.2052C52.9642 29.7037 53.7705 29.453 54.6365 29.453C55.4228 29.453 56.0399 29.6852 56.4879 30.1588C56.9358 30.6231 57.1647 31.2453 57.1647 32.0068C57.1647 32.3225 57.1349 32.6011 57.0851 32.8519C57.4832 32.9633 57.9013 33.019 58.3492 33.019H58.5981V34.1706H58.3492V34.1613ZM53.1832 33.0283C54.3777 33.0283 55.373 32.9169 56.1693 32.6754V32.4618C56.1693 31.8211 56.02 31.3382 55.7115 31.0224C55.4029 30.7067 54.9948 30.5395 54.4672 30.5395C53.8501 30.5395 53.2827 30.716 52.7651 31.0596C52.2475 31.4125 51.6503 32.0068 50.9934 32.8705C51.5806 32.9819 52.3073 33.0376 53.1832 33.0376V33.0283Z" fill="white"/>
<path d="M58.5978 34.1615C58.5082 34.1615 58.4286 34.1058 58.3689 33.9944C58.3092 33.8829 58.2793 33.7436 58.2793 33.5858C58.2793 33.4279 58.3092 33.2886 58.3689 33.1771C58.4286 33.0657 58.4983 33.01 58.5978 33.01H58.7869C59.5434 33.01 60.0411 32.9078 60.2701 32.7035C60.5089 32.4992 60.6284 32.1928 60.6284 31.7935V30.3447L61.6735 30.2705V31.7006C61.6735 32.1185 61.6337 32.4621 61.5441 32.7314C61.9722 32.9171 62.5594 33.01 63.296 33.01H63.3756V34.1615H63.1467C62.231 34.1615 61.5143 33.9758 60.9867 33.6043C60.5388 33.9758 59.8321 34.1615 58.8666 34.1615H58.5978ZM59.6927 28.1067L60.5587 28.8125L59.8321 29.5647L58.9761 28.8868L59.6927 28.1067Z" fill="white"/>
<path d="M70.9004 34.1609C70.2335 34.1609 69.7358 34.0123 69.4073 33.7058C68.8599 34.0216 68.2129 34.1702 67.4464 34.1702C66.5008 34.1702 65.7045 33.9751 65.0277 33.5758C64.6295 33.9659 64.1119 34.1609 63.4749 34.1609H63.3654C63.2758 34.1609 63.1962 34.1052 63.1365 33.9937C63.0767 33.8823 63.0469 33.743 63.0469 33.5851C63.0469 33.4272 63.0767 33.2879 63.1365 33.1765C63.1962 33.0651 63.2659 33.0093 63.3654 33.0093H63.5247C63.9228 33.0093 64.2314 32.8979 64.4603 32.6565C64.6892 32.4243 64.958 32.0064 65.2865 31.3935C65.595 30.8363 65.9136 30.4184 66.252 30.1491C66.5805 29.8798 67.0284 29.7405 67.5858 29.7405C68.1432 29.7405 68.6011 29.9262 68.9296 30.2977C69.258 30.6691 69.5168 31.2356 69.7159 31.9785C69.8155 32.3964 69.9448 32.6657 70.1141 32.7958C70.2833 32.9258 70.552 33.0001 70.9402 33.0001H71.2189V34.1516H70.8905L70.9004 34.1609ZM67.5659 33.1022C68.1134 33.1022 68.5812 33.0093 68.9395 32.8329V32.7958C68.7404 32.0528 68.5513 31.5235 68.3721 31.2263C68.193 30.9292 67.9043 30.7806 67.546 30.7806C67.2474 30.7806 66.9786 30.8827 66.7596 31.0777C66.5407 31.2728 66.2719 31.6535 65.9733 32.2107L65.6846 32.7215C66.2719 32.9722 66.9089 33.1022 67.5759 33.1022H67.5659Z" fill="white"/>
<path d="M71.2297 34.162C71.1401 34.162 71.0604 34.1063 71.0007 33.9948C70.941 33.8834 70.9111 33.7441 70.9111 33.5862C70.9111 33.4284 70.941 33.2891 71.0007 33.1776C71.0604 33.0662 71.1301 33.0105 71.2297 33.0105H71.3192C71.8667 33.0105 72.3544 32.9547 72.8024 32.8433C72.8521 32.249 72.882 31.5618 72.882 30.7724C72.882 29.8159 72.8621 28.3486 72.8322 26.3613L73.9371 26.2777C73.957 28.2093 73.9769 29.6209 73.9769 30.5124C73.9769 31.4039 73.957 32.0632 73.9271 32.4904C73.8973 32.9176 73.8176 33.3169 73.7081 33.6884C73.4493 33.8184 73.091 33.9298 72.6431 34.0227C72.1952 34.1156 71.7473 34.162 71.3093 34.162H71.2297Z" fill="white"/>
<path d="M76.7736 34.1612H75.6787V26.3698L76.7736 26.2863V34.1705V34.1612Z" fill="white"/>
<path d="M103.883 37.691C103.504 37.691 103.136 37.5238 102.907 37.2081L82.5218 9.71987C82.273 9.37627 82.2431 8.9398 82.4422 8.56834C82.6512 8.20616 83.0494 7.974 83.4973 7.974H97.6217C98.2787 7.974 98.8162 8.47547 98.8162 9.08838C98.8162 9.7013 98.2787 10.2028 97.6217 10.2028H85.7668L104.858 35.9544C105.236 36.4558 105.097 37.1523 104.56 37.4959C104.35 37.626 104.112 37.691 103.883 37.691Z" fill="white"/>
<path d="M106.54 31.543C106.162 31.543 105.794 31.3758 105.565 31.0601L94.0182 15.4958C93.64 14.9943 93.7793 14.2978 94.3168 13.9542C94.8543 13.6013 95.6009 13.7314 95.9692 14.2328L107.516 29.7971C107.894 30.2986 107.754 30.995 107.217 31.3386C107.008 31.4687 106.769 31.5337 106.54 31.5337V31.543Z" fill="white"/>
<path d="M107.994 23.7611C107.616 23.7611 107.247 23.5939 107.018 23.2782L102.977 17.827C102.599 17.3255 102.738 16.629 103.276 16.2854C103.813 15.9325 104.56 16.0625 104.928 16.564L108.969 22.0152C109.348 22.5167 109.208 23.2132 108.671 23.5568C108.462 23.6868 108.223 23.7518 107.994 23.7518V23.7611Z" fill="white"/>
<path d="M116.952 26.1107C116.574 26.1107 116.206 25.9436 115.977 25.6278L99.9112 3.96229H88.9122C88.2553 3.96229 87.7178 3.46082 87.7178 2.84791C87.7178 2.23499 88.2553 1.73352 88.9122 1.73352H100.538C100.926 1.73352 101.295 1.90996 101.514 2.21642L117.937 24.3648C118.316 24.8663 118.176 25.5628 117.639 25.9064C117.43 26.0364 117.191 26.1014 116.962 26.1014L116.952 26.1107Z" fill="white"/>
<path d="M124.169 26.111C123.791 26.111 123.422 25.9439 123.194 25.6281L111.388 9.72028C111.01 9.21881 111.149 8.52232 111.687 8.17871C112.224 7.82583 112.971 7.95584 113.339 8.45731L125.144 24.3652C125.523 24.8666 125.383 25.5631 124.846 25.9067C124.637 26.0367 124.398 26.1018 124.169 26.1018V26.111Z" fill="white"/>
<path d="M114.563 38.2572C114.563 38.2572 114.513 38.2572 114.493 38.2572L103.813 37.6908C103.156 37.6536 102.658 37.1336 102.688 36.5207C102.728 35.9078 103.285 35.4434 103.942 35.4713L114.622 36.0378C115.279 36.0749 115.777 36.595 115.747 37.2079C115.707 37.8022 115.19 38.2572 114.563 38.2572Z" fill="white"/>
<path d="M130.101 32.8712C130.101 32.8712 130.051 32.8712 130.031 32.8712L106.471 31.5525C105.814 31.5154 105.316 30.986 105.356 30.3731C105.396 29.7602 105.963 29.2959 106.62 29.333L129.255 30.6053L130.658 26.5285L124.099 26.1199C123.442 26.0827 122.944 25.5534 122.994 24.9405C123.034 24.3276 123.601 23.8633 124.258 23.9097L132.34 24.4112C132.709 24.4297 133.037 24.6155 133.246 24.8941C133.455 25.1727 133.505 25.5348 133.396 25.8599L131.246 32.1097C131.086 32.574 130.628 32.8805 130.111 32.8805L130.101 32.8712Z" fill="white"/>
<path d="M88.9022 5.11336C90.238 5.11336 91.3209 4.10303 91.3209 2.85673C91.3209 1.61043 90.238 0.600098 88.9022 0.600098C87.5663 0.600098 86.4834 1.61043 86.4834 2.85673C86.4834 4.10303 87.5663 5.11336 88.9022 5.11336Z" fill="white"/>
<path d="M112.363 11.3446C113.699 11.3446 114.782 10.3342 114.782 9.08793C114.782 7.84163 113.699 6.8313 112.363 6.8313C111.027 6.8313 109.944 7.84163 109.944 9.08793C109.944 10.3342 111.027 11.3446 112.363 11.3446Z" fill="white"/>
<path d="M114.563 39.3999C115.899 39.3999 116.982 38.3895 116.982 37.1432C116.982 35.8969 115.899 34.8866 114.563 34.8866C113.227 34.8866 112.145 35.8969 112.145 37.1432C112.145 38.3895 113.227 39.3999 114.563 39.3999Z" fill="white"/>
</svg>
