<?xml version="1.0" encoding="UTF-8"?>
<svg id="Layer_2" xmlns="http://www.w3.org/2000/svg" viewBox="0 0 663.03 335.95">
  <defs>
    <style>
      .cls-1 {
        fill: #fff;
      }
    </style>
  </defs>
  <g id="Layer_1-2" data-name="Layer_1">
    <g>
      <path class="cls-1" d="M15.68,318.07c.41.49.66.49.91,0l12.6-23.97c.16-.33.41-.49.74-.49h2.31c.41,0,.82.41.82.82v27.52c0,.49-.41.82-.82.82h-2.31c-.49,0-.82-.41-.82-.82v-21.42l-11.04,20.6c-1.24,2.22-3.95,2.22-5.11,0l-9.06-17.88v18.78c0,.49-.33.82-.82.82H.85c-.41,0-.82-.41-.82-.82v-27.52c0-.49.41-.82.82-.82h2.31c.33,0,.58.16.74.49h0l11.78,23.89h0Z"/>
      <path class="cls-1" d="M43.2,301.1h2.31c.49,0,.82.41.82.82v20.02c0,.49-.33.82-.82.82h-2.31c-.49,0-.82-.41-.82-.82v-20.02c0-.49.41-.82.82-.82h0Z"/>
      <path class="cls-1" d="M44.35,293.61c1.15,0,2.14.99,2.14,2.14s-.99,2.14-2.14,2.14-2.14-.99-2.14-2.14.99-2.14,2.14-2.14h0Z"/>
      <path class="cls-1" d="M85.05,301.1h2.31c.49,0,.82.41.82.82v20.02c0,.49-.41.82-.82.82h-2.31c-.41,0-.82-.41-.82-.82v-20.02c0-.49.41-.82.82-.82h0Z"/>
      <path class="cls-1" d="M86.2,293.61c1.15,0,2.14.99,2.14,2.14s-.99,2.14-2.14,2.14-2.14-.99-2.14-2.14.99-2.14,2.14-2.14h0Z"/>
      <path class="cls-1" d="M383.84,301.1h2.31c.41,0,.82.41.82.82v20.02c0,.49-.41.82-.82.82h-2.31c-.49,0-.82-.41-.82-.82v-20.02c0-.49.41-.82.82-.82h0Z"/>
      <path class="cls-1" d="M385,293.61c1.15,0,2.14.99,2.14,2.14s-.99,2.14-2.14,2.14-2.14-.99-2.14-2.14.99-2.14,2.14-2.14h0Z"/>
      <path class="cls-1" d="M71.62,309.75c0-5.11-4.28-6.84-13.1-6.76v18.87c0,.41-.41.82-.82.82h-2.31c-.41,0-.82-.41-.82-.82v-20.02c0-.49.41-.82.82-.82,3.46,0,6.92-.08,10.38,0,6.18.25,9.8,4.12,9.8,10.13v10.79c0,.41-.41.82-.82.82h-2.31c-.41,0-.82-.41-.82-.82v-12.19h0Z"/>
      <path class="cls-1" d="M437.31,309.75c0-5.11-4.28-6.84-13.1-6.76v18.87c0,.41-.41.82-.82.82h-2.31c-.41,0-.82-.41-.82-.82v-20.02c0-.49.41-.82.82-.82,3.46,0,6.92-.08,10.38,0,6.18.25,9.8,4.12,9.8,10.13v10.79c0,.41-.41.82-.82.82h-2.31c-.41,0-.82-.41-.82-.82v-12.19h0Z"/>
      <path class="cls-1" d="M291.74,313.95c0,5.11,4.28,6.84,13.1,6.76v-18.87c0-.41.41-.82.82-.82h2.31c.41,0,.82.41.82.82v20.02c0,.49-.41.82-.82.82-3.46,0-6.92.08-10.38,0-6.18-.25-9.8-4.12-9.8-10.13v-10.79c0-.41.41-.82.82-.82h2.31c.41,0,.82.41.82.82v12.19h0Z"/>
      <path class="cls-1" d="M116.19,312.64v-18.21c0-.49.41-.82.82-.82h2.31c.49,0,.82.41.82.82v6.26c0,.25.16.41.41.41h5.77c.25,0,.41.16.41.41v1.15c0,.25-.16.41-.41.41h-5.77c-.25,0-.41.16-.41.41v11.12c0,3.3,1.89,5.19,5.68,6.01,2.31.49,2.97,2.22.16,2.14-6.1-.16-9.8-4.12-9.8-10.13h0Z"/>
      <path class="cls-1" d="M365.88,312.64v-18.21c0-.49.41-.82.82-.82h2.31c.41,0,.82.41.82.82v6.26c0,.25.16.41.41.41h5.77c.25,0,.41.16.41.41v1.15c0,.25-.16.41-.41.41h-5.77c-.25,0-.41.16-.41.41v11.12c0,3.3,1.89,5.19,5.68,6.01,2.31.49,2.97,2.22.16,2.14-6.18-.16-9.8-4.12-9.8-10.13h0Z"/>
      <path class="cls-1" d="M209.61,303.74v18.21c0,.41.41.82.82.82h2.31c.41,0,.82-.41.82-.82v-12.52c0-.25.16-.41.41-.41h5.77c.25,0,.41-.16.41-.41v-1.15c0-.25-.16-.41-.41-.41h-5.77c-.25,0-.41-.16-.41-.41v-4.78c0-3.3,1.89-5.19,5.68-6.01,2.31-.49,2.97-2.22.16-2.14-6.18.08-9.8,4.04-9.8,10.05h0Z"/>
      <path class="cls-1" d="M132.99,311.15v10.79c0,.41.41.82.82.82h2.31c.41,0,.82-.41.82-.82,0-13.92,0,6.1,0-12.69,0-3.3,1.89-5.19,5.68-6.01,2.31-.49,2.97-2.22.16-2.14-6.18.16-9.8,4.04-9.8,10.05h0Z"/>
      <path class="cls-1" d="M164.88,323.18c0-.25-.16-.41-.41-.41-1.57,0-2.55,0-4.7-.08-6.18-.25-9.8-4.12-9.8-10.13v-10.79c0-.41.41-.82.82-.82h2.31c.41,0,.82.41.82.82v12.11c0,3.71,2.39,7,5.6,7,1.98,0,5.44-1.57,5.44-5.68v-13.43c0-.41.41-.82.82-.82h2.31c.41,0,.82.41.82.82v24.06c0,6.01-3.62,9.97-9.8,10.13-2.8.08-2.14-1.65.16-2.14,3.79-.82,5.68-2.97,5.77-6.26l-.16-4.37h0Z"/>
      <path class="cls-1" d="M236.05,293.61h18.87c.33,0,.58.25.58.58v1.65c0,.33-.25.58-.58.58h-15.73v9.72h11.2c.33,0,.58.25.58.58v1.65c0,.33-.25.58-.58.58h-11.2v11.04h15.73c.33,0,.58.25.58.58v1.65c0,.33-.25.58-.58.58h-18.87c-.49,0-.82-.41-.82-.82v-27.52c0-.41.41-.82.82-.82h0Z"/>
      <path class="cls-1" d="M196.51,301.1h-4.94c-4.53,0-8.24,3.71-8.24,8.24v5.19c0,4.53,3.71,8.24,8.24,8.24h4.94c4.53,0,8.24-3.71,8.24-8.24v-5.19c0-4.53-3.71-8.24-8.24-8.24ZM200.46,315.6c0,2.72-2.22,5.03-5.03,5.03h-2.97c-2.72,0-5.03-2.22-5.03-5.03v-7.33c.08-2.8,2.31-5.03,5.03-5.03h2.97c2.72,0,5.03,2.22,5.03,5.03v7.33Z"/>
      <path class="cls-1" d="M406.75,301.1h-4.94c-4.53,0-8.24,3.71-8.24,8.24v5.19c0,4.53,3.71,8.24,8.24,8.24h4.94c4.53,0,8.24-3.71,8.24-8.24v-5.19c0-4.53-3.71-8.24-8.24-8.24ZM410.78,315.6c0,2.72-2.22,5.03-5.03,5.03h-2.97c-2.72,0-5.03-2.22-5.03-5.03v-7.33c.08-2.8,2.31-5.03,5.03-5.03h2.97c2.72,0,5.03,2.22,5.03,5.03v7.33Z"/>
      <path class="cls-1" d="M279.55,293.61h-2.31c-.41,0-.82.41-.82.82v6.26c0,.25-.16.41-.41.41h-9.23c-4.53,0-8.24,3.71-8.24,8.24v5.19c0,4.53,3.71,8.24,8.24,8.24h12.77c.49,0,.82-.41.82-.82v-27.52c0-.49-.41-.82-.82-.82ZM276.42,320.46c0,.25-.16.41-.41.41h-7.41c-3.3,0-6.01-2.72-6.01-6.01v-5.77c0-3.3,2.72-6.01,6.01-6.01h7.41c.25,0,.41.16.41.41v16.97Z"/>
      <path class="cls-1" d="M358.14,301.1h-12.69c-4.53,0-8.24,3.71-8.24,8.24v5.19c0,4.53,3.71,8.24,8.24,8.24,4.04,0,8.98-.58,9.56-.49.41.08.58.49,1.24.49h1.89c.49,0,.82-.41.82-.82v-20.02c0-.49-.41-.82-.82-.82ZM355.09,315.77c0,1.98-1.32,5.52-7.83,5.03-3.3-.25-6.01-2.72-6.01-6.01v-5.77c0-3.3,2.72-6.01,6.01-6.01h7.41c.25,0,.41.16.41.41v12.36Z"/>
      <path class="cls-1" d="M322.22,322.77c-4.53,0-8.24-3.71-8.24-8.24v-5.19c0-4.53,3.71-8.24,8.24-8.24h10.79c.08,0,.16.08.16.16v1.57c0,.08-.08.16-.16.16h-9.06c-3.3,0-6.01,2.72-6.01,6.01v5.77c0,3.3,2.72,6.01,6.01,6.01h9.06c.08,0,.16.08.16.16v1.57c0,.08-.08.16-.16.16l-10.79.08h0Z"/>
      <path class="cls-1" d="M107.04,302.75c1.98,0,1.98-2.72.08-2.88-5.52-.58-10.63.66-11.95,5.03-.99,3.3.99,6.26,5.77,7.17,6.26,1.15,8.65,4.2,6.01,7-1.4,1.4-5.6.91-8.65,1.07-3.3.16-2.88,2.64,0,2.64,4.94.08,10.46.74,12.44-2.55,2.06-3.46.33-8.24-3.54-9.06-5.19-1.07-8.4-2.22-7.74-5.19.58-2.97,3.13-3.13,7.58-3.21h0Z"/>
      <path class="cls-1" d="M441.92,133.87c3.3,0,5.93,2.64,5.93,5.93s-2.64,5.93-5.93,5.93-5.93-2.64-5.93-5.93c.08-3.3,2.72-5.93,5.93-5.93h0Z"/>
      <path class="cls-1" d="M441.92,82.88c3.54,0,6.43,2.88,6.43,6.43s-2.88,6.43-6.43,6.43-6.43-2.88-6.43-6.43c0-3.54,2.88-6.43,6.43-6.43h0Z"/>
      <path class="cls-1" d="M471.41,107.1c3.54,0,6.43,2.88,6.43,6.43s-2.88,6.43-6.43,6.43-6.43-2.88-6.43-6.43,2.88-6.43,6.43-6.43h0Z"/>
      <path class="cls-1" d="M413.75,108.17c3.54,0,6.43,2.88,6.43,6.43s-2.88,6.43-6.43,6.43-6.43-2.88-6.43-6.43c-.08-3.54,2.8-6.43,6.43-6.43h0Z"/>
      <path class="cls-1" d="M354.27,117.15c3.3,0,5.93,2.64,5.93,5.93s-2.64,5.93-5.93,5.93-5.93-2.64-5.93-5.93,2.64-5.93,5.93-5.93h0Z"/>
      <path class="cls-1" d="M529.99,116.4c3.3,0,5.93,2.64,5.93,5.93s-2.64,5.93-5.93,5.93-5.93-2.64-5.93-5.93,2.72-5.93,5.93-5.93h0Z"/>
      <path class="cls-1" d="M472.9,59.81c3.87,0,6.92,3.13,6.92,6.92s-3.13,6.92-6.92,6.92-6.92-3.13-6.92-6.92,3.05-6.92,6.92-6.92h0Z"/>
      <path class="cls-1" d="M412.1,60.55c3.87,0,6.92,3.13,6.92,6.92s-3.13,6.92-6.92,6.92-6.92-3.13-6.92-6.92,3.13-6.92,6.92-6.92h0Z"/>
      <path class="cls-1" d="M381.87,86.42c3.87,0,6.92,3.13,6.92,6.92s-3.13,6.92-6.92,6.92-6.92-3.13-6.92-6.92,3.13-6.92,6.92-6.92h0Z"/>
      <path class="cls-1" d="M503.13,85.26c4.12,0,7.41,3.3,7.41,7.41s-3.3,7.41-7.41,7.41-7.41-3.3-7.41-7.41,3.38-7.41,7.41-7.41h0Z"/>
      <path class="cls-1" d="M505.36,39.46c4.53,0,8.16,3.62,8.16,8.16s-3.62,8.16-8.16,8.16-8.16-3.62-8.16-8.16,3.62-8.16,8.16-8.16h0Z"/>
      <path class="cls-1" d="M539.79,23.73c5.6,0,10.13,4.53,10.13,10.13s-4.53,10.13-10.13,10.13-10.13-4.53-10.13-10.13,4.53-10.13,10.13-10.13h0Z"/>
      <path class="cls-1" d="M575.54,12.6c6.51,0,11.78,5.27,11.78,11.78s-5.27,11.78-11.78,11.78-11.78-5.27-11.78-11.78,5.27-11.78,11.78-11.78h0Z"/>
      <path class="cls-1" d="M612.12,5.03c6.84,0,12.27,5.52,12.27,12.27s-5.52,12.27-12.27,12.27-12.36-5.52-12.36-12.27,5.52-12.27,12.36-12.27h0Z"/>
      <path class="cls-1" d="M649.28,0c7.58,0,13.76,6.18,13.76,13.76s-6.18,13.76-13.76,13.76-13.76-6.18-13.76-13.76c0-7.66,6.18-13.76,13.76-13.76h0Z"/>
      <path class="cls-1" d="M537.48,68.29c4.53,0,8.16,3.62,8.16,8.16s-3.62,8.16-8.16,8.16-8.16-3.62-8.16-8.16c-.08-4.45,3.62-8.16,8.16-8.16h0Z"/>
      <path class="cls-1" d="M573.32,55.11c5.6,0,10.13,4.53,10.13,10.13s-4.53,10.13-10.13,10.13-10.13-4.53-10.13-10.13c0-5.52,4.53-10.13,10.13-10.13h0Z"/>
      <path class="cls-1" d="M611.05,46.71c6.51,0,11.78,5.27,11.78,11.78s-5.27,11.78-11.78,11.78-11.78-5.27-11.78-11.78,5.27-11.78,11.78-11.78h0Z"/>
      <path class="cls-1" d="M650.76,45.39c6.84,0,12.27,5.52,12.27,12.27s-5.52,12.36-12.27,12.36-12.36-5.52-12.36-12.36,5.52-12.27,12.36-12.27h0Z"/>
      <path class="cls-1" d="M568.46,98.61c4.53,0,8.16,3.62,8.16,8.16s-3.62,8.16-8.16,8.16-8.16-3.62-8.16-8.16,3.62-8.16,8.16-8.16h0Z"/>
      <path class="cls-1" d="M611.05,88.48c5.6,0,10.13,4.53,10.13,10.13s-4.53,10.13-10.13,10.13-10.13-4.53-10.13-10.13,4.53-10.13,10.13-10.13h0Z"/>
      <path class="cls-1" d="M651.83,87.41c6.1,0,11.04,4.94,11.04,11.04s-4.94,11.04-11.04,11.04-11.04-4.94-11.04-11.04c-.08-6.1,4.94-11.04,11.04-11.04h0Z"/>
      <path class="cls-1" d="M379.48,40.53c4.53,0,8.16,3.62,8.16,8.16s-3.62,8.16-8.16,8.16-8.16-3.62-8.16-8.16c0-4.45,3.62-8.16,8.16-8.16h0Z"/>
      <path class="cls-1" d="M345.54,25.21c5.6,0,10.13,4.53,10.13,10.13s-4.53,10.13-10.13,10.13-10.13-4.53-10.13-10.13c-.08-5.6,4.53-10.13,10.13-10.13h0Z"/>
      <path class="cls-1" d="M309.54,14c6.51,0,11.78,5.27,11.78,11.78s-5.27,11.78-11.78,11.78-11.78-5.27-11.78-11.78c0-6.51,5.27-11.78,11.78-11.78h0Z"/>
      <path class="cls-1" d="M273.04,6.84c6.84,0,12.27,5.52,12.27,12.36s-5.52,12.27-12.27,12.27-12.36-5.52-12.36-12.27,5.52-12.36,12.36-12.36h0Z"/>
      <path class="cls-1" d="M235.97,0c7.58,0,13.76,6.18,13.76,13.76s-6.18,13.76-13.76,13.76-13.76-6.18-13.76-13.76c0-7.66,6.18-13.76,13.76-13.76h0Z"/>
      <path class="cls-1" d="M347.51,69.36c4.53,0,8.16,3.62,8.16,8.16s-3.62,8.16-8.16,8.16-8.16-3.62-8.16-8.16,3.62-8.16,8.16-8.16h0Z"/>
      <path class="cls-1" d="M311.35,56.27c5.6,0,10.13,4.53,10.13,10.13s-4.53,10.13-10.13,10.13-10.13-4.53-10.13-10.13,4.53-10.13,10.13-10.13h0Z"/>
      <path class="cls-1" d="M273.04,47.78c6.51,0,11.78,5.27,11.78,11.78s-5.27,11.78-11.78,11.78-11.78-5.27-11.78-11.78,5.27-11.78,11.78-11.78h0Z"/>
      <path class="cls-1" d="M234.49,46.46c6.84,0,12.36,5.52,12.36,12.27s-5.52,12.36-12.36,12.36-12.27-5.52-12.27-12.36,5.44-12.27,12.27-12.27h0Z"/>
      <path class="cls-1" d="M316.7,99.68c4.53,0,8.16,3.62,8.16,8.16s-3.62,8.16-8.16,8.16-8.16-3.62-8.16-8.16,3.62-8.16,8.16-8.16h0Z"/>
      <path class="cls-1" d="M275.18,89.63c5.6,0,10.13,4.53,10.13,10.13s-4.53,10.13-10.13,10.13-10.13-4.53-10.13-10.13,4.53-10.13,10.13-10.13h0Z"/>
      <path class="cls-1" d="M232.67,88.56c6.1,0,11.04,4.94,11.04,11.04s-4.94,11.04-11.04,11.04-11.04-4.94-11.04-11.04,4.94-11.04,11.04-11.04h0Z"/>
      <circle class="cls-1" cx="58.85" cy="261.56" r="3.3"/>
      <circle class="cls-1" cx="223.28" cy="209.74" r="3.3"/>
      <path class="cls-1" d="M69.97,258.26c-1.89,0-3.38,1.48-3.3,3.3,0,1.81,1.48,3.3,3.3,3.3s3.3-1.48,3.3-3.3-1.48-3.3-3.3-3.3Z"/>
      <circle class="cls-1" cx="324.45" cy="209.74" r="3.3"/>
      <path class="cls-1" d="M234.4,213.04c1.81,0,3.3-1.48,3.3-3.3s-1.48-3.3-3.3-3.3-3.38,1.48-3.3,3.3c0,1.81,1.48,3.3,3.3,3.3Z"/>
      <path class="cls-1" d="M313.41,213.04c1.81,0,3.3-1.48,3.3-3.3s-1.48-3.3-3.3-3.3-3.38,1.48-3.3,3.3c0,1.81,1.48,3.3,3.3,3.3Z"/>
      <path class="cls-1" d="M392.49,221.85h-5.35c-.33,0-.58.25-.66.58v29.08c0,9.72-4.53,10.05-6.34,10.71-2.39.82-1.81,3.54.99,3.13,4.12-.58,11.95-3.54,11.95-16.64v-26.28c0-.33-.25-.58-.58-.58Z"/>
      <circle class="cls-1" cx="389.94" cy="209.74" r="3.3"/>
      <path class="cls-1" d="M440.6,221.69h-19.03c-11.7,0-19.19,4.04-19.11,15.41v12.19c0,.33.25.58.58.58h31.06c.33.16.66.41.66.74v7.41c-.08,1.81-2.64,3.3-4.12,4.53-1.32,1.15-1.32,1.98,1.48,1.73,3.54-.33,9.14-4.7,9.06-8.73v-33.28c0-.33-.25-.58-.58-.58ZM434.67,244.01c0,.33-.33.66-.66.66h-24.3c-.33,0-.66-.33-.66-.66v-8.49c0-3.79,2.64-8.32,10.05-8.32h14.91c.33,0,.66.33.66.66v16.15Z"/>
      <path class="cls-1" d="M374.12,206.36h-5.35c-.33,0-.58.33-.58.66v42.51c0,.33.25.58.58.58h5.35c.33,0,.58-.25.58-.58v-42.59c0-.33-.25-.58-.58-.58Z"/>
      <path class="cls-1" d="M273.21,206.36h-5.35c-.25,0-.58.33-.58.66v42.51c0,.33.25.58.58.58h5.35c.33,0,.58-.25.58-.58v-42.59c0-.33-.25-.58-.58-.58Z"/>
      <path class="cls-1" d="M356.49,221.85h-5.35c-.33,0-.58.25-.66.58v29.08c0,9.72-4.53,10.05-6.34,10.71-2.39.82-1.81,3.54.99,3.13,4.12-.58,11.95-3.54,11.95-16.64v-26.28c0-.33-.25-.58-.58-.58Z"/>
      <path class="cls-1" d="M336.31,221.85h-19.03c-11.7,0-19.19,4.04-19.11,15.41v12.19c0,.33.25.58.58.58h37.57c.33,0,.58-.25.58-.58v-27.02c0-.33-.25-.58-.58-.58ZM330.3,244.01c0,.33-.33.66-.66.66h-24.3c-.33,0-.66-.33-.66-.66v-8.49c0-3.79,2.64-8.32,10.05-8.32h14.91c.33,0,.66.33.66.66v16.15h0Z"/>
      <path class="cls-1" d="M255.74,206.28h-5.27c-.33,0-.58.25-.58.58v36.08c0,.33-.25.58-.58.58h-16.56c-.33,0-.58-.25-.58-.58v-20.68c0-.33-.25-.58-.58-.58h-5.35c-.33,0-.58.25-.58.58v20.68c0,.33-.25.58-.58.58h-67.72c-.33,0-.66-.33-.66-.66v-7.33c0-3.79,2.64-8.4,10.05-8.4h27.43c.33,0,.58-.25.58-.58v-4.2c0-.33-.25-.58-.58-.58h-24.96c-11.7,0-19.19,4.04-19.11,15.41v5.68c0,.33-.25.58-.58.58h-55.03c-.33,0-.58-.25-.58-.58v-36.17c0-.33-.25-.58-.58-.58h-5.35c-.33,0-.58.25-.58.58v36.25c0,.33-.25.58-.58.58h-18.54c-.33,0-.58-.25-.58-.58v-20.27c0-.33-.25-.58-.58-.58h-5.35c-.33,0-.58.25-.58.58v20.27c0,.33-.25.58-.58.58h-12.03c-.33,0-.58-.25-.58-.58v-5.68c.08-11.37-7.41-15.41-19.11-15.41H5.47c-.33,0-.58.25-.58.58v35.59h.08c-.08,1.81-2.64,3.3-4.12,4.53-1.32,1.15-1.32,1.98,1.48,1.73,3.54-.33,9.14-4.7,9.06-8.73v-5.6h244.34c.33,0,.58-.25.58-.58v-42.51c0-.33-.25-.58-.58-.58ZM41.55,242.86c0,.33-.25.66-.66.66H12.14c-.33,0-.66-.33-.66-.66v-14.99c0-.33.33-.66.66-.66h19.36c7.41,0,10.05,4.53,10.05,8.32v7.33h0Z"/>
    </g>
  </g>
</svg>