<svg width="48" height="44" viewBox="0 0 48 44" fill="none" xmlns="http://www.w3.org/2000/svg">
<path d="M7.26324 18.6837H17.8982C19.3469 18.6837 20.7488 19.0947 21.9513 19.869L23.494 20.8482C23.5524 20.8837 23.6233 20.9182 23.7115 20.9421C23.8284 20.9776 23.9108 20.9891 23.9932 20.9891C24.0698 20.9891 24.1455 20.9776 24.2509 20.9479C24.3448 20.9182 24.4148 20.8894 24.4502 20.8597L26.0284 19.8623C27.2366 19.088 28.6385 18.677 30.0873 18.677H40.7164C41.2386 18.677 41.6612 18.2602 41.6612 17.7447V0.926567C41.6612 0.415853 41.2386 0 40.7164 0H30.0873C28.2801 0 26.5266 0.510714 25.0012 1.47848L23.9922 2.13005L22.9775 1.47848C21.4588 0.510714 19.7053 0 17.8982 0H7.26324C6.74678 0 6.32422 0.416811 6.32422 0.926567V17.7504C6.32422 18.2669 6.74103 18.6827 7.26228 18.6827L7.26324 18.6837ZM23.9932 9.22734C24.5096 9.22734 24.9322 8.81053 24.9322 8.29502V3.74268L26.0293 3.03841C27.2491 2.2642 28.6519 1.85313 30.0882 1.85313H39.7669V16.8123H30.0882C28.2696 16.8123 26.5161 17.3288 25.0022 18.2966L24.9322 18.3435V11.5615C24.9322 11.045 24.5096 10.6292 23.9932 10.6292C23.4767 10.6292 23.0484 11.046 23.0484 11.5615V18.3483L22.9785 18.3071C21.4655 17.3336 19.711 16.8171 17.8982 16.8171H8.20801V1.85984H17.8991C19.3421 1.85984 20.7382 2.2709 21.9522 3.04512L23.0494 3.74939V8.30173C23.0436 8.81244 23.4719 9.2283 23.9941 9.2283L23.9932 9.22734Z" fill="white"/>
<path d="M30.0871 20.4785C28.28 20.4785 26.5208 20.995 25.0011 21.9685L23.9921 22.6201L22.9774 21.9685C21.4644 20.995 19.71 20.4785 17.8971 20.4785H13.8315C13.3093 20.4785 12.8867 20.8953 12.8867 21.4108C12.8867 21.9263 13.3093 22.3431 13.8315 22.3431H17.8971C19.3401 22.3431 20.7362 22.7542 21.9502 23.5284L23.4699 24.4962C23.6222 24.5958 23.7986 24.6485 23.9864 24.6485C24.1742 24.6485 24.3505 24.6016 24.5086 24.5019L26.0283 23.5284C27.248 22.7542 28.6508 22.3431 30.0871 22.3431H34.146C34.6682 22.3431 35.0908 21.9263 35.0908 21.4108C35.0908 20.8953 34.6682 20.4785 34.146 20.4785H30.0871Z" fill="white"/>
<path d="M47.0451 34.9258H45.7783V10.1069C45.7783 8.60539 44.5404 7.37891 43.0159 7.37891C42.4994 7.37891 42.0769 7.79572 42.0769 8.31122C42.0769 8.82673 42.4994 9.24354 43.0159 9.24354C43.5026 9.24354 43.8955 9.63065 43.8955 10.1059V34.9258H4.10008V10.1069C4.10008 9.6316 4.49294 9.2445 4.9682 9.2445C5.49041 9.2445 5.91297 8.82768 5.91297 8.31218C5.91297 7.79668 5.49041 7.37986 4.9682 7.37986C3.44277 7.37986 2.20575 8.60634 2.20575 10.1078V34.9258H0.939023C0.42256 34.9258 0 35.3426 0 35.8581C0 40.0579 3.54338 43.883 7.43266 43.883H40.5581C44.4532 43.883 47.9965 40.0579 47.9965 35.8581C47.9908 35.3417 47.5625 34.9258 47.046 34.9258H47.0451ZM40.5514 42.0174H7.42595C4.60409 42.0174 2.39834 39.3134 1.96428 36.7905H14.6651V36.9256C14.6651 38.6148 16.0611 39.9879 17.7744 39.9879H30.2049C31.9182 39.9879 33.3142 38.6148 33.3142 36.9256V36.7905H46.0256C45.58 39.3067 43.3685 42.0174 40.5524 42.0174H40.5514ZM31.418 36.9256C31.418 37.5886 30.8728 38.1281 30.204 38.1281H17.7744C17.1056 38.1281 16.5603 37.5886 16.5603 36.9256V36.7905H31.4189V36.9256H31.418Z" fill="white"/>
<path d="M7.26146 33.2551H40.7156C41.2378 33.2551 41.6604 32.8325 41.6604 32.3161V21.4167C41.6604 20.9002 41.2378 20.4844 40.7156 20.4844C40.1934 20.4844 39.7708 20.9012 39.7708 21.4167V31.3952H8.21198V21.4167C8.21198 20.9002 7.78942 20.4844 7.26721 20.4844C6.74499 20.4844 6.32818 20.9012 6.32818 21.4167V32.3161C6.32243 32.8325 6.73829 33.2551 7.2605 33.2551H7.26146Z" fill="white"/>
<path d="M18.2364 11.9316H12.0073C11.4851 11.9316 11.0625 12.3485 11.0625 12.864C11.0625 13.3795 11.4851 13.803 12.0073 13.803H18.2374C18.7596 13.803 19.1822 13.3804 19.1822 12.864C19.1822 12.3475 18.7596 11.9316 18.2374 11.9316H18.2364Z" fill="white"/>
<path d="M18.2364 7.93164H12.0073C11.4851 7.93164 11.0625 8.3542 11.0625 8.87066C11.0625 9.38713 11.4851 9.80298 12.0073 9.80298H18.2374C18.7596 9.80298 19.1822 9.38617 19.1822 8.87066C19.1822 8.35516 18.7596 7.93164 18.2374 7.93164H18.2364Z" fill="white"/>
<path d="M18.2364 3.94141H12.0073C11.4851 3.94141 11.0625 4.35822 11.0625 4.87372C11.0625 5.38923 11.4851 5.81274 12.0073 5.81274H18.2374C18.7596 5.81274 19.1822 5.39018 19.1822 4.87372C19.1822 4.35726 18.7596 3.94141 18.2374 3.94141H18.2364Z" fill="white"/>
<path d="M29.7338 13.803H35.9755C36.4919 13.803 36.9145 13.3804 36.9145 12.864C36.9145 12.3475 36.4919 11.9316 35.9755 11.9316H29.7338C29.2116 11.9316 28.7891 12.3485 28.7891 12.864C28.7891 13.3795 29.2116 13.803 29.7338 13.803Z" fill="white"/>
<path d="M29.7338 9.80298H35.9755C36.4919 9.80298 36.9145 9.38617 36.9145 8.87066C36.9145 8.35516 36.4919 7.93164 35.9755 7.93164H29.7338C29.2116 7.93164 28.7891 8.3542 28.7891 8.87066C28.7891 9.38713 29.2116 9.80298 29.7338 9.80298Z" fill="white"/>
<path d="M29.7338 5.81275H35.9755C36.4919 5.81275 36.9145 5.39018 36.9145 4.87372C36.9145 4.35726 36.4919 3.94141 35.9755 3.94141H29.7338C29.2116 3.94141 28.7891 4.35822 28.7891 4.87372C28.7891 5.38923 29.2116 5.81275 29.7338 5.81275Z" fill="white"/>
</svg>
