<svg width="39" height="40" viewBox="0 0 39 40" fill="none" xmlns="http://www.w3.org/2000/svg">
<path d="M20.1429 14.4294H13.7143V20.858H20.1429V14.4294ZM22.2857 25.1437V27.2866H11.5714V25.1437H22.2857ZM22.2857 12.2866V23.0008H11.5714V12.2866H22.2857ZM33 25.1437V27.2866H24.4286V25.1437H33ZM33 20.858V23.0008H24.4286V20.858H33ZM33 16.5723V18.7151H24.4286V16.5723H33ZM33 12.2866V14.4294H24.4286V12.2866H33ZM7.28571 28.358V12.2866H5.14286V28.358C5.14286 28.6482 5.24888 28.8993 5.46094 29.1113C5.67299 29.3234 5.92411 29.4294 6.21429 29.4294C6.50446 29.4294 6.75558 29.3234 6.96763 29.1113C7.17969 28.8993 7.28571 28.6482 7.28571 28.358ZM35.1429 28.358V10.1437H9.42857V28.358C9.42857 28.7263 9.36719 29.0834 9.24442 29.4294H34.0714C34.3616 29.4294 34.6127 29.3234 34.8248 29.1113C35.0368 28.8993 35.1429 28.6482 35.1429 28.358ZM37.2857 8.00084V28.358C37.2857 29.2508 36.9732 30.0098 36.3482 30.6348C35.7232 31.2598 34.9643 31.5723 34.0714 31.5723H6.21429C5.32143 31.5723 4.5625 31.2598 3.9375 30.6348C3.3125 30.0098 3 29.2508 3 28.358V10.1437H7.28571V8.00084H37.2857Z" fill="#676A6C"/>
</svg>
