<?xml version="1.0" encoding="UTF-8"?><svg id="Layer_2" xmlns="http://www.w3.org/2000/svg" viewBox="0 0 350.41 88.74"><defs><style>.cls-1{fill:#e1b252;}</style></defs><g id="Layer_2-2"><g id="Layer_1-2"><path class="cls-1" d="m306.04,88.74l-13-13h-18.37v-18.37l-13-13,13-12.96V13h18.37l13-13,13,13h18.37v18.37l13,13-13,13v18.37h-18.37s-13,13-13,13Zm-28.88-15.49h16.91l11.97,11.97,11.97-11.97h16.91v-16.91l11.97-11.97-11.97-11.97V15.49h-16.91l-11.97-11.97-11.97,11.97h-16.91v16.95l-11.97,11.93,11.97,11.97v16.91Z"/><path class="cls-1" d="m218.82,88.74l-13-13h-18.37v-18.37l-13-13,13-12.96V13h18.37l13-13,13,13h18.37v18.37l13,13-13,13v18.37h-18.37s-13,13-13,13Zm-28.88-15.49h16.91l11.97,11.97,11.97-11.97h16.91v-16.91l11.97-11.97-11.97-11.97V15.49h-16.91l-11.97-11.97-11.97,11.97h-16.91v16.95l-11.97,11.93,11.97,11.97v16.91Z"/><path class="cls-1" d="m131.6,88.74l-13-13h-18.37v-18.37l-13-13,13-12.96V13h18.37l13-13,13,13h18.37v18.37l13,13-13,13v18.37h-18.37s-13,13-13,13Zm-28.88-15.49h16.91l11.97,11.97,11.97-11.97h16.91v-16.91l11.97-11.97-11.97-11.97V15.49h-16.91l-11.97-11.97-11.97,11.97h-16.91v16.95l-11.97,11.93,11.97,11.97s0,16.91,0,16.91Z"/><path class="cls-1" d="m44.37,88.74l-13-13H13v-18.37L0,44.37l13-12.96V13h18.37L44.37,0l13,13h18.37v18.37l13,13-13,13v18.37h-18.37s-13,13-13,13Zm-28.88-15.49h16.91l11.97,11.97,11.97-11.97h16.91v-16.91l11.97-11.97-11.97-11.97V15.49h-16.91l-11.97-11.97-11.97,11.97H15.49v16.95l-11.97,11.93,11.97,11.97v16.91Z"/></g></g></svg>