<svg width="91" height="70" viewBox="0 0 91 70" fill="none" xmlns="http://www.w3.org/2000/svg">
<path d="M24.9403 40.9798C25.5268 40.8123 26.1132 40.3934 26.532 40.9798C26.9509 41.5662 26.532 42.1526 26.1969 42.5715C23.9351 48.1843 20.3328 52.7918 15.6416 56.7291C13.2959 58.8234 10.3639 60.4151 7.68318 62.1743C5.58886 63.5147 5.17 65.8603 6.34281 67.8708C7.34808 69.7976 9.60995 70.384 11.788 69.4625C12.7095 69.0437 13.5473 68.541 14.3012 68.1222C20.9193 64.1849 26.6996 59.1585 31.6422 53.2944C41.1085 41.9851 44.1243 29.1679 39.9356 14.9265C37.0874 5.29268 27.286 -0.571404 17.5683 0.936504C7.5994 2.61196 0.5625 10.8217 0.5625 20.9582C0.646273 34.0267 11.9556 43.3255 24.9403 40.9798ZM73.4447 40.9798C74.0311 40.8123 74.6175 40.3934 75.0364 40.9798C75.4553 41.5662 75.0364 42.1526 74.7013 42.5715C72.4394 48.1843 68.8372 52.7918 64.1459 56.7291C61.8003 58.8234 58.8683 60.4151 56.1875 62.1743C54.0932 63.5147 53.6744 65.8603 54.8472 67.8708C55.8524 69.7976 58.1143 70.384 60.2924 69.4625C61.2139 69.0437 62.0516 68.541 62.8056 68.1222C69.5074 64.1849 75.2039 59.1585 80.2303 53.2944C89.6966 41.9851 92.7124 29.1679 88.44 14.9265C85.5917 5.29268 75.7903 -0.571404 66.0727 0.936504C56.1038 2.52818 49.0669 10.8217 49.0669 20.9582C49.3182 34.0267 60.6275 43.3255 73.4447 40.9798Z" fill="#CAB36A"/>
</svg>
