<svg width="91" height="71" viewBox="0 0 91 71" fill="none" xmlns="http://www.w3.org/2000/svg">
<path d="M80.6149 0C82.4578 0 84.0495 0.921489 84.971 2.59692C86.4789 5.11008 85.8087 7.95832 83.2956 9.54998C82.5416 10.0526 81.7877 10.5552 80.95 10.9741C79.0232 12.1469 77.1802 13.3197 75.5048 14.7438C70.8136 18.7649 67.4627 23.2048 65.3684 28.3148L65.2009 28.5662C65.2846 28.5662 65.2846 28.5662 65.3684 28.5662H65.4522C71.9026 27.3934 78.353 28.985 83.128 33.0061C87.9868 36.9433 90.7513 42.8911 90.7513 49.3416C90.7513 59.813 83.5469 68.3577 73.1592 70.2007C62.8553 71.7086 52.8026 65.5095 49.8706 55.6244C45.682 41.3832 48.5303 28.3148 58.2478 16.7543C63.4417 10.639 69.3057 5.61271 75.6723 1.84298L76.175 1.50789C76.7614 1.1728 77.5153 0.753946 78.2693 0.418859C79.0232 0.167543 79.8609 0 80.6149 0ZM63.5254 27.4771C65.7873 22.1157 69.2219 17.4245 74.1644 13.2359C75.9237 11.728 77.9342 10.4715 79.8609 9.21489C80.6149 8.71226 81.3688 8.2934 82.1228 7.79077C83.7144 6.78551 84.0495 5.19385 83.128 3.60219C82.3741 2.17807 80.6986 1.75921 79.107 2.42938C78.4368 2.76447 77.7666 3.09955 77.1802 3.43464L76.6776 3.68596C70.5623 7.28814 64.8658 12.1469 59.9232 18.0947C50.7084 29.0688 47.9439 41.467 51.8812 54.9543C54.5619 63.8341 63.5254 69.4468 72.8241 68.1064C82.2065 66.5148 88.657 58.8078 88.657 49.3416C88.657 43.5613 86.1438 38.1161 81.7877 34.5977C77.4315 30.9955 71.6513 29.5714 65.871 30.5767C65.7873 30.5767 65.7035 30.6605 65.6197 30.6605C65.2009 30.828 63.9443 31.2469 63.1903 30.1578C62.6877 29.4039 62.7715 28.4824 63.5254 27.4771ZM32.6974 0C34.5404 0 36.1321 0.921489 37.0536 2.59692C38.4777 5.11008 37.8075 7.95832 35.3781 9.54998C34.6242 10.0526 33.8702 10.5552 33.0325 10.9741C31.1058 12.1469 29.2628 13.3197 27.5874 14.7438C22.8961 18.8486 19.629 23.2885 17.5347 28.3986L17.3672 28.6499C17.451 28.6499 17.451 28.6499 17.5347 28.6499H17.6185C23.9014 27.4771 30.268 29.0688 35.043 33.0061C39.9018 36.9433 42.75 42.9749 42.9176 49.4253C42.9176 59.9806 35.6294 68.5253 25.3255 70.2845C15.0216 71.7924 4.96898 65.5933 2.03697 55.7082C-2.15162 41.5508 0.612846 28.4824 10.3304 16.8381C15.7755 10.4715 21.472 5.61271 27.7549 1.92675L28.2575 1.67543C28.8439 1.34035 29.5979 0.921489 30.3518 0.586402C31.1058 0.167544 31.9435 0 32.6974 0ZM15.608 27.4771C17.8698 22.1157 21.3045 17.4245 26.247 13.2359C28.0062 11.728 30.0167 10.4715 31.9435 9.21489C32.6974 8.71226 33.4514 8.2934 34.2053 7.79077C35.797 6.78551 36.1321 5.19385 35.2106 3.60219C34.4566 2.17807 32.7812 1.75921 31.1895 2.42938C30.5194 2.76447 29.8492 3.09955 29.2628 3.43464L28.7602 3.68596C22.6448 7.20437 17.1159 11.9794 11.8383 18.0947C2.5396 29.0688 -0.0573281 41.467 3.87994 54.9543C6.56064 63.7503 15.5242 69.4468 24.8229 68.0227C34.1215 66.5148 40.6557 58.8078 40.6557 49.2578C40.572 43.3938 37.975 37.9486 33.6189 34.4302C29.2628 30.828 23.6501 29.4877 17.9536 30.5767C17.8698 30.5767 17.7861 30.6605 17.7023 30.6605C17.2834 30.828 16.0268 31.2469 15.2729 30.1578C14.7703 29.4039 14.854 28.4824 15.608 27.4771Z" fill="#CAB36A"/>
</svg>
