<svg width="48" height="49" viewBox="0 0 48 49" fill="none" xmlns="http://www.w3.org/2000/svg">
<path d="M41.0856 16.8662H41.0995C41.9385 16.8598 42.6144 16.169 42.608 15.33C42.6016 14.8566 42.2359 14.4846 41.7626 14.4707H40.4022C39.8948 14.4771 39.543 14.8566 39.543 15.3641C39.543 15.7564 39.7125 16.1423 39.9961 16.4259C40.2871 16.7106 40.673 16.8662 41.0856 16.8662ZM41.4918 15.54C41.4779 15.5869 41.4449 15.6349 41.4108 15.669C41.3223 15.7575 41.2082 15.8108 41.0792 15.8108C40.9502 15.8108 40.8361 15.7639 40.7541 15.6754C40.7135 15.6349 40.6794 15.5944 40.6592 15.54H41.4918Z" fill="white"/>
<path d="M39.4962 7.19701C39.4556 7.19062 39.4151 7.18316 39.3746 7.19062C38.9141 7.23753 38.4407 7.29936 37.9674 7.37292C37.6763 7.41983 37.5004 7.67036 37.5409 7.97527C37.5814 8.23966 37.7915 8.4081 38.0623 8.4081H38.123L38.4951 8.36119C38.8202 8.32068 39.1443 8.28017 39.4695 8.23966C39.5036 8.23326 39.5303 8.2258 39.5644 8.21301C39.7947 8.13838 39.9428 7.92836 39.9301 7.68529C39.9237 7.53603 39.849 7.40064 39.7403 7.30682C39.6731 7.24606 39.591 7.20554 39.4972 7.19808L39.4962 7.19701Z" fill="white"/>
<path d="M42.6031 8.21843C42.6298 8.23228 42.6575 8.23228 42.6916 8.24508C43.1319 8.29945 43.5712 8.36661 44.0104 8.41459C44.0445 8.41459 44.0648 8.42098 44.0914 8.42098C44.3686 8.42098 44.5786 8.23868 44.6127 7.96789C44.6532 7.67045 44.4709 7.41352 44.1724 7.36555C43.8547 7.31864 43.536 7.27066 43.2257 7.23015L42.8132 7.17578H42.7993C42.7524 7.17578 42.7044 7.18218 42.6639 7.20243C42.4208 7.24934 42.2449 7.43911 42.2311 7.68324C42.197 7.91992 42.3601 8.1438 42.6031 8.21736V8.21843Z" fill="white"/>
<path d="M41.295 8.18C41.3355 8.18 41.3835 8.1736 41.4304 8.1736C41.457 8.1736 41.4773 8.1736 41.505 8.16721C41.7694 8.12669 41.9378 7.92414 41.9453 7.65974C41.9517 7.40921 41.7961 7.19919 41.5594 7.14588V7.13949C41.5253 7.13309 41.4848 7.12563 41.4506 7.12563C41.2076 7.11177 40.9496 7.11177 40.7065 7.12563C40.666 7.12563 40.6319 7.13203 40.6052 7.13949H40.5988C40.3686 7.21411 40.2204 7.41028 40.2268 7.64695C40.2268 7.91134 40.4091 8.1139 40.6532 8.16827C40.6799 8.16827 40.7001 8.17467 40.7278 8.17467C40.8163 8.18107 40.8973 8.18107 40.9784 8.17467H41.1809C41.215 8.17467 41.2555 8.18107 41.2961 8.18107L41.295 8.18Z" fill="white"/>
<path d="M10.5037 20.579H11.8704C12.1551 20.5726 12.3513 20.3828 12.3513 20.1184C12.3577 19.8476 12.1551 19.6451 11.8779 19.6376C11.411 19.6312 10.9515 19.6312 10.4845 19.6376C10.3427 19.6376 10.2137 19.692 10.1263 19.7933C10.0378 19.8881 9.99731 20.0097 10.0048 20.1387C10.025 20.3892 10.2276 20.5715 10.5058 20.579H10.5037Z" fill="white"/>
<path d="M47.967 24.5448V24.0576C47.9403 21.3923 46.1876 19.2068 43.6173 18.6183C43.435 18.5778 43.2452 18.5437 43.0554 18.5235C43.0213 18.5171 42.9808 18.5171 42.9542 18.5096V18.4957C42.9542 18.3539 42.9542 18.2047 42.9478 18.0629C42.9478 17.968 42.9616 17.9211 43.0362 17.8667C43.145 17.7857 43.226 17.6908 43.3134 17.5959C43.3603 17.5416 43.4019 17.4947 43.4488 17.4467L43.4893 17.4062C43.5704 17.3316 43.6386 17.2644 43.7196 17.2164C44.951 16.5331 45.8241 15.5256 46.3038 14.2122C46.338 14.1237 46.3582 14.1034 46.4254 14.0768C47.1557 13.806 47.6429 13.1098 47.6365 12.338C47.6365 11.5736 47.1354 10.8763 46.4115 10.6055L46.3028 10.565V9.9968C46.3092 9.42857 46.3092 8.86674 46.3028 8.30597C46.2964 7.23667 45.613 6.28358 44.6045 5.92431C44.4957 5.8838 44.3817 5.84968 44.2665 5.82942L44.1247 5.78891L38.1173 5.78252L37.9883 5.82303C36.8582 6.03945 36.0597 6.85821 35.9179 7.97441C35.871 8.31237 35.871 8.66418 35.8774 8.99574V10.5725C35.0789 10.8433 34.5714 11.4723 34.5512 12.2505C34.5171 13.1034 34.9776 13.7868 35.8028 14.1173C35.8166 14.1237 35.8497 14.1578 35.8571 14.1919C36.3102 15.4168 37.0746 16.3635 38.1439 17.0405C38.435 17.2164 38.7122 17.3859 38.9019 17.6557C38.9627 17.7441 39.0437 17.8049 39.1183 17.8582C39.1386 17.8849 39.1727 17.9051 39.2068 17.9328L39.2207 17.9467C39.2271 18.1365 39.2207 18.3252 39.2207 18.5149V18.5288C37.5224 18.6983 36.0341 19.6183 35.1343 21.0053C35.1077 20.8635 35.0736 20.7207 35.0458 20.5789C34.7889 19.3945 34.4979 18.0554 33.9904 16.8102C33.4968 15.5991 32.6514 14.7878 31.467 14.4083C30.5267 14.1034 29.5661 13.8198 28.6386 13.5426L28.4765 13.4957C28.3412 13.4552 28.1652 13.4755 28.0299 13.5501C27.9147 13.6109 27.807 13.6311 27.7388 13.597C27.6503 13.5565 27.6098 13.4478 27.5832 13.3603C27.5565 13.2591 27.5288 13.1503 27.5021 13.049C27.4552 12.839 27.4009 12.6301 27.3401 12.4264C27.2996 12.2974 27.3198 12.2367 27.4147 12.1354C28.1119 11.4051 28.5714 10.5586 28.7751 9.6258C28.7953 9.54478 28.8017 9.53731 28.8635 9.51066C29.6887 9.15245 30.2505 7.86034 29.9531 6.96695C29.9264 6.88593 29.8923 6.78465 29.8038 6.71002C29.6546 6.60128 29.6546 6.46695 29.6546 6.22281V5.75586C29.6546 5.5597 29.6546 5.36354 29.6482 5.16738C29.5938 3.66525 29.3635 2.44136 28.9243 1.32516C28.7953 0.993604 28.5991 0.783582 28.3358 0.696162L28.1397 0.628998C27.6791 0.473348 27.1994 0.311301 26.7122 0.210021C26.3262 0.128998 25.9339 0.0948827 25.5554 0.054371C25.3859 0.0405117 25.2239 0.0202559 25.0341 0H23.0853L22.9499 0.0138593C22.8486 0.0277186 22.7473 0.0405117 22.6386 0.0479744C21.8806 0.108742 20.9883 0.217484 20.1215 0.535181C19.5469 0.745203 19.2218 1.08316 19.1066 1.59701C19.0864 1.67804 19.0597 1.75906 19.032 1.83369C19.0117 1.89446 18.9915 1.95522 18.9712 2.01599C18.6055 3.22708 18.4499 4.57996 18.484 6.258C18.4904 6.46802 18.484 6.5693 18.3753 6.65672C18.2537 6.758 18.1994 6.92751 18.1652 7.02239C17.8945 7.89552 18.4499 9.12687 19.2878 9.51919C19.3145 9.53305 19.3422 9.55331 19.3422 9.55331C19.5384 10.5416 20.0117 11.4073 20.7836 12.2122C20.8038 12.2388 20.8305 12.2729 20.8305 12.2527C20.742 12.645 20.6482 13.0576 20.5192 13.4701C20.4989 13.5309 20.4648 13.5789 20.4041 13.5991C20.323 13.6333 20.2218 13.6194 20.1333 13.565C19.9915 13.484 19.7953 13.4638 19.6461 13.5043C18.7601 13.7612 17.806 14.0384 16.8582 14.3433C15.8433 14.6684 15.1461 15.1482 14.6599 15.8657C14.6333 15.9062 14.6055 15.9542 14.5789 15.9947C14.2537 15.7644 13.8817 15.5885 13.4691 15.4936C12.9883 15.3849 12.5021 15.2772 12.0213 15.1759C11.581 15.0874 11.1418 14.9936 10.7026 14.8987C10.5736 14.8646 10.4318 14.79 10.3305 14.6962C10.2559 14.6354 10.2356 14.5949 10.2217 14.5874C10.2356 14.5736 10.2761 14.5405 10.3571 14.4925C10.9659 14.1471 11.2569 13.613 11.2303 12.9296C11.2239 12.7537 11.2239 12.5917 11.2239 12.4222V12.3412C11.806 12.2324 12.1908 11.8742 12.306 11.3124C12.4275 10.7441 12.2249 10.2633 11.7377 9.93923C11.7719 9.6887 11.8188 9.42537 11.8593 9.17484L11.9403 8.66098C12.0011 8.31557 12.0693 7.95096 11.9808 7.57143C11.7783 6.63753 11.1684 5.98188 10.161 5.6226C10.0192 5.57569 9.86994 5.53412 9.70789 5.50107C9.64712 5.49467 9.57889 5.47441 9.51812 5.46055L7.15672 5.45416L7.10981 5.48827C6.77825 5.68444 6.81237 5.94883 6.84542 6.08316C6.95416 6.41471 7.29851 6.41471 7.39979 6.41471C7.71748 6.40832 8.04264 6.40832 8.36674 6.40832H8.78572C7.99467 7.16631 6.29638 8.26866 5.44989 8.55331C5.43603 8.45842 5.41578 8.371 5.40299 8.27612C5.29424 7.70789 5.48401 7.24094 5.96482 6.86247C6.0597 6.78785 6.15458 6.73348 6.25586 6.68017C6.31663 6.63966 6.3774 6.60554 6.43817 6.57889C6.66098 6.4371 6.73561 6.18657 6.62793 5.95629C6.5064 5.72601 6.25586 5.63859 6.01279 5.73348C5.95203 5.76013 5.89126 5.78785 5.83049 5.82196C4.84222 6.32942 4.28785 7.33049 4.4435 8.33156C4.53198 8.88593 4.6194 9.44776 4.71429 10.0096L4.91045 9.97548L4.69403 10.064C4.18017 10.3891 3.95629 10.984 4.13966 11.5522C4.29531 12.0661 4.65352 12.3849 5.20149 12.4861V12.9531C5.16738 13.6365 5.46589 14.1578 6.05437 14.5096C6.14286 14.5565 6.17591 14.5842 6.18337 14.5842C6.17697 14.6045 6.14925 14.645 6.08209 14.7196C6.06823 14.7463 6.04797 14.7601 6.03518 14.774C5.8049 14.5437 5.52132 14.4563 5.19616 14.5309C4.59382 14.6599 3.98507 14.7953 3.38273 14.9232L3.24733 14.9574C2.91578 15.0384 2.6855 15.2484 2.59808 15.5661C2.58422 15.6066 2.58422 15.613 2.5096 15.6407C1.41365 16.081 0.723881 16.9062 0.540512 18.0149C0.452026 18.5288 0.418977 19.0501 0.384861 19.5512C0.378465 19.7409 0.358209 19.9168 0.350746 20.0991L0.215352 21.8316C0.154584 22.6162 0.0938166 23.4083 0.033049 24.193C0.0266525 24.2878 0.0266525 24.3891 0.0469083 24.4904C0.0127932 24.565 0 24.6322 0 24.7132C0 25.5458 0.0469083 26.371 0.128998 27.1823V27.1887C0.16951 27.5544 0.217484 27.919 0.270789 28.2783C0.527719 29.9691 0.974414 31.6002 1.5629 33.1557C1.63753 33.3657 1.71215 33.5682 1.79318 33.7708C1.83369 33.8795 1.88806 33.9808 1.92857 34.0821C5.1823 41.9499 12.516 47.7079 21.2974 48.6748C21.5405 48.709 21.7846 48.7292 22.0416 48.7495C22.6567 48.8038 23.2868 48.8305 23.9158 48.8305C24.5448 48.8305 25.1738 48.8038 25.79 48.7495C26.0405 48.7356 26.291 48.709 26.5341 48.6748C30.7964 48.2079 34.7132 46.5981 37.9947 44.1823C38.3934 43.8913 38.7793 43.5874 39.1578 43.2761C39.1983 43.242 39.2463 43.209 39.2868 43.1748C43.7313 39.4872 46.8369 34.2441 47.7303 28.2708C47.7846 27.9051 47.8316 27.5405 47.8721 27.1812V27.1748C47.9531 26.3699 48.0011 25.5373 48.0011 24.7058C47.9808 24.6311 47.9744 24.5906 47.967 24.5501V24.5448ZM11.2377 10.7228C11.3188 10.7836 11.3731 10.8987 11.3795 10.9872C11.3795 11.129 11.3326 11.2303 11.2377 11.3049V10.7228ZM5.17591 11.4467C5.08742 11.3923 5.03412 11.2974 5.02026 11.1962C5.0064 11.0469 5.06077 10.9254 5.17591 10.8507V11.4456V11.4467ZM23.9019 47.0874C20.3977 47.0874 17.177 42.7239 15.371 36.3774C18.0096 36.8646 20.8849 37.1279 23.9019 37.1279C26.919 37.1279 29.7878 36.8635 32.4264 36.3774C30.613 42.7164 27.4062 47.0874 23.9019 47.0874ZM20.4584 1.63006C21.1684 1.33902 21.9264 1.2516 22.5085 1.20362C24.0853 1.07463 25.3774 1.1226 26.581 1.33902C26.9062 1.39979 27.2377 1.50853 27.5618 1.6162L27.7516 1.67697C27.7783 1.68337 27.8262 1.73134 27.8401 1.76546C28.1983 2.67164 28.3945 3.69403 28.4691 4.97228H19.6535V4.93817C19.6599 4.77612 19.6674 4.61301 19.6876 4.45096C19.7687 3.51706 19.9446 2.67164 20.2292 1.87313C20.2697 1.74414 20.3305 1.68337 20.4595 1.63006H20.4584ZM20.8241 17.8603C21.1013 17.9755 21.1759 18.0906 21.1759 18.3742C21.162 19.193 21.162 20.0117 21.162 20.8305V21.9808C21.162 22.7719 21.4936 23.4019 22.1567 23.8475L22.6098 24.1525H19.2409C19.2548 23.3401 19.2548 22.5149 19.2473 21.7164C19.2473 21.6077 19.2132 21.5203 19.1663 21.4318C19.0853 21.2154 18.8817 21.0661 18.6322 21.0661C18.3145 21.0661 18.0778 21.2964 18.0576 21.6279V22.4606C18.0576 23.0224 18.0576 23.5832 18.0512 24.145V24.1514H13.5522L13.7889 23.0416C14.0938 21.6279 14.4041 20.1663 14.7356 18.7324C14.871 18.1578 15.0938 17.596 15.3177 17.0682C15.6429 16.2836 16.2313 15.7495 17.0704 15.4648C17.3753 15.3635 17.6855 15.2687 18.0043 15.1802L18.2548 15.1055C18.2548 15.1119 18.2612 15.1194 18.2612 15.1258C18.7004 16.4041 19.5597 17.3241 20.8252 17.8593L20.8241 17.8603ZM23.4627 17.2857V23.3209C23.4424 23.307 23.4158 23.2942 23.3955 23.274C23.1247 23.0917 22.8614 22.9158 22.6173 22.726C22.4211 22.5704 22.3262 22.3337 22.3262 22.0021V20.6151C22.3262 19.8369 22.3262 19.0522 22.3326 18.274C22.339 17.5768 22.0149 17.0896 21.3721 16.8262C20.3977 16.4275 19.7548 15.7974 19.403 14.8913C19.3891 14.8571 19.3763 14.8241 19.3689 14.79L19.3955 14.7836C20.194 16.6237 21.8038 17.097 23.4616 17.2868L23.4627 17.2857ZM19.7687 6.37313C19.7623 6.38699 19.7548 6.39979 19.7548 6.40725L19.7207 6.39339C19.6866 6.37953 19.6258 6.35928 19.6258 6.31237C19.6397 6.258 19.6397 6.20362 19.6397 6.15032H19.8827C19.8561 6.20469 19.8284 6.25906 19.8017 6.31237L19.7676 6.37313H19.7687ZM28.4691 6.14286V6.34542C28.4083 6.36567 28.3539 6.36567 28.3273 6.35181C28.3006 6.33795 28.2527 6.29744 28.2122 6.14179C28.3006 6.14819 28.3881 6.14179 28.4691 6.14179V6.14286ZM28.7463 14.7953C28.7196 14.8763 28.6919 14.951 28.6652 15.0256C28.307 15.8507 27.6844 16.4531 26.7985 16.8113C26.1013 17.096 25.7697 17.596 25.7836 18.3475C25.79 19.0043 25.79 19.6599 25.79 20.3166V21.9264C25.7964 22.3731 25.6205 22.6908 25.2559 22.9211C25.0533 23.0426 24.8635 23.178 24.661 23.3134V17.2857C26.3113 17.0896 27.9222 16.6226 28.7271 14.7825L28.7473 14.7964L28.7463 14.7953ZM20.662 14.7281C20.662 14.7217 20.6557 14.7217 20.6557 14.7143C20.7026 14.7004 20.7441 14.6876 20.7847 14.6738C21.2249 14.5181 21.5224 14.2004 21.6503 13.7537C21.7111 13.5373 21.7655 13.3209 21.8262 13.0842L21.8326 13.0501C23.3273 14.0789 24.8294 14.0853 26.2974 13.064C26.3241 13.1588 26.3518 13.2537 26.3646 13.3412C26.4936 14.0991 26.8518 14.5522 27.4606 14.7217C27.3454 14.9243 27.1898 15.1077 26.9797 15.2761C26.4659 15.6951 25.8294 15.9531 24.984 16.0746C23.7793 16.2505 22.7313 16.1151 21.7569 15.6684C21.2559 15.4318 20.8977 15.1269 20.661 14.7281H20.662ZM27.0011 6.14925C27.1226 6.66311 27.3593 7.07569 27.7047 7.38699C27.6983 7.58955 27.7047 7.79957 27.7111 8.00213C27.7249 8.55011 27.7377 9.06397 27.5693 9.56503C27.0075 11.2154 25.9115 12.2505 24.3081 12.6429C23.9563 12.7313 23.5842 12.6631 23.097 12.42C21.6226 11.6898 20.7697 10.6748 20.4925 9.3081C20.4041 8.88913 20.4115 8.44883 20.4115 7.98188V7.38699C20.7633 7.0693 20.9936 6.66311 21.1151 6.14925H27.0011ZM33.0021 34.0832C30.194 34.6919 27.1023 35.0299 23.903 35.0299C20.7036 35.0299 17.6109 34.6919 14.8038 34.0832C14.2697 31.5938 13.9307 28.8742 13.8699 26.0394H33.9296C33.8689 28.8742 33.5373 31.5938 33.0032 34.0832H33.0021ZM36.0267 26.0394H45.8635C45.0992 29.1652 40.9787 31.9051 35.2889 33.5224C35.7154 31.1887 35.9787 28.6716 36.0267 26.0394ZM12.5096 33.5224C6.82623 31.9126 2.70682 29.1652 1.93497 26.0394H11.7719C11.8188 28.6716 12.0693 31.1876 12.5096 33.5224ZM34.1855 24.1588H30.0245C30.0384 23.3678 30.0384 22.5821 30.0309 21.7228C30.0309 21.4723 29.8817 21.2697 29.6652 21.1887C29.5704 21.1279 29.4627 21.08 29.3337 21.08C29.016 21.08 28.7793 21.3102 28.7591 21.6343V22.4595C28.7591 23.0277 28.7591 23.5896 28.7527 24.1578V24.1642H25.5117C25.6535 24.0693 25.7964 23.968 25.9446 23.8731C26.6215 23.4264 26.9595 22.7836 26.9595 21.9648V20.564C26.9595 19.8134 26.9595 19.0618 26.9531 18.3038C26.9531 18.081 27.0139 17.9861 27.21 17.9051C28.516 17.3571 29.226 16.6269 29.8689 15.1247C31.1002 15.3955 32.3177 15.8081 32.8859 17.1951C33.3049 18.2367 33.5629 19.2996 33.7793 20.2932C33.9691 21.1588 34.145 22.032 34.3209 22.9051C34.2324 23.3241 34.1919 23.7441 34.1855 24.1567V24.1588ZM28.8475 7.45522H28.8539V7.5096C28.8539 7.48934 28.8475 7.47548 28.8475 7.45522ZM13.0096 35.8699C14.1055 40.3284 15.871 43.968 18.0704 46.3092C10.5341 44.2793 4.61407 38.387 2.58422 30.8166C4.93177 33.0149 8.57143 34.774 13.0096 35.8699ZM34.7804 35.8699C39.2249 34.7804 42.8646 33.0149 45.2058 30.8166C43.1759 38.387 37.2495 44.2868 29.7196 46.3092C31.9179 43.968 33.6844 40.3284 34.7804 35.8699ZM36.9115 8.9435C36.9179 8.57783 36.9254 8.23987 37 7.90832C37.1215 7.29318 37.6972 6.83902 38.3603 6.83902C39.3486 6.83262 40.2815 6.83262 41.1748 6.83262C42.0682 6.83262 42.968 6.83262 43.7996 6.83902C44.5437 6.83902 45.1663 7.44136 45.2207 8.1919C45.2345 8.46269 45.2271 8.73987 45.2271 9.02452C45.2271 9.07143 45.2271 9.11301 45.2207 9.15352C42.4403 8.18657 39.7068 8.18657 36.9126 9.15991V8.9435H36.9115ZM45.2335 10.7569V11.3721C44.645 11.1215 44.016 10.4382 43.7516 9.81557L43.8603 9.84968C44.1855 9.94456 44.5032 10.0394 44.807 10.1407C45.0913 10.2402 45.2335 10.4456 45.2335 10.7569ZM41.6482 9.53945C40.1333 10.5682 38.435 11.0757 36.9264 11.42V10.3102C37.9616 9.86994 39.0171 9.60661 40.0522 9.54584C40.4851 9.51919 40.9456 9.53198 41.3785 9.53945H41.6493H41.6482ZM39.0778 16.3454C37.935 15.7431 37.1567 14.8305 36.791 13.6194C36.6962 13.322 36.5064 13.1525 36.209 13.0981C35.8774 13.0437 35.6066 12.7324 35.5938 12.3881C35.58 12.1375 35.6823 11.9073 35.8785 11.7516C35.9126 11.9819 36.0277 12.1919 36.21 12.3337C36.4126 12.4893 36.6706 12.5565 36.9275 12.5032C38.8891 12.097 40.4392 11.5288 41.7985 10.71C42.0693 10.5544 42.3198 10.3721 42.5629 10.1962C42.6098 10.1557 42.6578 10.1215 42.7047 10.0874C42.7111 10.1013 42.7186 10.1215 42.7313 10.1343C42.8262 10.3241 42.9136 10.5128 43.0224 10.6962C43.5299 11.5757 44.1791 12.1375 44.9915 12.435C45.3369 12.5565 45.661 12.5362 45.8977 12.3742C46.0938 12.2388 46.2228 12.0288 46.2697 11.7516C46.452 11.887 46.5608 12.1173 46.5608 12.3603C46.5608 12.726 46.3102 13.0501 45.9861 13.1045C45.5672 13.1791 45.4243 13.436 45.3433 13.6866C44.9648 14.8635 44.2068 15.7569 43.0832 16.3454C42.9275 16.4339 42.7719 16.5618 42.6706 16.7036C42.2985 17.2111 41.7239 17.5021 41.0736 17.5021H41.0672C40.4179 17.4957 39.8358 17.2047 39.4638 16.6898C39.3689 16.5405 39.2271 16.419 39.0778 16.3444V16.3454ZM41.8859 18.436V18.7004C41.7974 18.7271 41.71 18.7473 41.6215 18.7751V18.5043L41.8859 18.4371V18.436ZM40.5256 18.4968V18.7612C40.4371 18.7345 40.3497 18.7143 40.2751 18.6866C40.2687 18.6055 40.2687 18.5171 40.2687 18.436L40.5256 18.4968ZM35.661 22.1567C36.452 20.5672 37.758 19.6876 39.5309 19.5522C39.5448 19.5522 39.5853 19.5586 39.6194 19.5789L39.6802 19.5928C39.7687 19.6269 39.8561 19.6471 39.9446 19.6738C40.1343 19.7345 40.323 19.7953 40.5533 19.8497C40.5469 20.452 40.5469 21.0405 40.5469 21.6429V22.5362C40.5469 22.7868 40.6077 22.9691 40.7292 23.0906C40.8177 23.1791 40.919 23.2324 41.0949 23.2196C41.291 23.2196 41.6162 23.1311 41.6162 22.5501V19.8444H41.6429C41.8795 19.838 42.0618 19.7974 42.2047 19.709C42.5906 19.4861 42.9829 19.5597 43.4499 19.6684C45.4925 20.1557 46.8795 21.9211 46.9136 24.0384V24.1599H45.3038V23.2665C45.2974 22.9414 45.0736 22.7122 44.7825 22.7122H44.7761C44.4787 22.7122 44.2548 22.9424 44.2484 23.2601V24.1599H37.9563V23.307C37.9563 22.9616 37.7335 22.7122 37.4286 22.7122H37.4222C37.2804 22.7122 37.1578 22.7591 37.064 22.8539C36.9552 22.9552 36.8945 23.1183 36.8945 23.307V24.1599H35.7846C35.6834 23.6727 35.5821 23.1855 35.4797 22.6919C35.5203 22.516 35.5746 22.3337 35.662 22.1578L35.661 22.1567ZM11.9275 16.1759C11.9616 16.1354 11.968 16.129 12.0085 16.1354C12.2047 16.1759 12.3945 16.2239 12.5832 16.2644C12.8337 16.3113 13.0842 16.3657 13.3273 16.42C13.6183 16.5011 13.8817 16.6503 14.1119 16.8326C13.9627 17.1706 13.8476 17.5224 13.7601 17.8817C13.4627 19.1535 13.178 20.4254 12.8945 21.7036C12.7122 22.516 12.5362 23.3273 12.3465 24.1322V24.1588H8.67271V18.0629L8.76759 18.049C8.96375 18.0149 9.15991 17.9883 9.34968 17.9403C10.419 17.6759 11.291 17.081 11.9275 16.1748V16.1759ZM10.6823 15.9456C10.7708 15.8646 10.7772 15.8646 10.8316 15.8913C10.8657 15.8977 10.8923 15.9051 10.9264 15.9179C10.8998 15.952 10.8795 15.9787 10.8518 16.0064C9.6951 17.258 7.75373 17.4947 6.31876 16.5544C6.258 16.5075 6.24414 16.4936 6.258 16.4328C6.258 16.3923 6.258 16.3518 6.26439 16.3038C6.65672 16.5949 7.05544 16.7772 7.49574 16.8721C8.72708 17.129 9.79638 16.8113 10.6823 15.9456ZM6.67697 15.4115L6.95416 15.0533C7.76653 15.6557 8.61194 15.6557 9.4307 15.0533C9.48507 15.1418 9.53945 15.2228 9.60021 15.29C9.65458 15.3507 9.72175 15.4115 9.78252 15.4723C9.39019 15.8177 8.84222 15.9936 8.24627 16C7.64392 16.0064 7.08316 15.7836 6.67697 15.4115ZM11.0341 8.15245C10.9797 8.53092 10.9126 8.91045 10.8518 9.29531L10.7974 9.62047C10.3785 9.54584 9.67484 9.20149 9.26866 8.86994L10.8785 7.3209C11.0277 7.57143 11.0746 7.85501 11.0341 8.15352V8.15245ZM5.60128 9.66738C5.59488 9.61301 5.58742 9.54584 5.57463 9.49147H5.58102C6.45416 9.13326 7.28571 8.69296 8.05757 8.15245C8.7548 7.6791 9.36994 7.15139 9.89765 6.58955C9.93817 6.54904 9.95203 6.54264 9.99254 6.55544C10.0394 6.58955 10.0874 6.60981 10.1418 6.63646L10.1557 6.65032C8.94456 8.11194 7.44989 9.10661 5.60235 9.66738H5.60128ZM6.14286 13.1311C6.13646 12.4744 6.13646 11.8124 6.13646 11.1493V10.5C6.94883 10.2356 7.71962 9.88486 8.44989 9.41791C8.84222 9.78358 9.28891 10.0746 9.76866 10.2772L9.82303 10.3038C9.95203 10.3582 10.0874 10.4126 10.2356 10.4531L10.2697 10.5C10.2697 10.919 10.2633 11.3326 10.2633 11.7516C10.2633 12.1706 10.2697 12.5842 10.2697 13.0032C10.2697 13.2878 10.161 13.484 9.92431 13.6258C9.51812 13.8763 9.1194 14.1333 8.71322 14.3902C8.3678 14.613 8.04371 14.613 7.6919 14.3902C7.27932 14.1258 6.85928 13.8625 6.4403 13.5991C6.24414 13.4701 6.14286 13.322 6.14286 13.1322V13.1311ZM3.48401 15.8305C3.51812 15.8241 3.56503 15.8166 3.59275 15.8038L5.25053 15.4318C5.27719 15.4318 5.29104 15.4254 5.3049 15.4254V22.1365C5.3049 22.2111 5.3049 22.2921 5.33156 22.387C5.37847 22.6098 5.55437 22.7452 5.79211 22.7527C6.02879 22.7463 6.19829 22.6034 6.2452 22.3742C6.25906 22.2932 6.25906 22.2186 6.25906 22.1098V17.597H6.26546C6.48188 17.6919 6.68443 17.7793 6.90192 17.8475C7.12473 17.9222 7.34222 17.9563 7.57143 18.0032C7.6258 18.0171 7.67271 18.0299 7.72068 18.0437V19.3699C7.72708 20.9595 7.72708 22.5565 7.72068 24.1461H6.25906C6.25267 24.0107 6.25267 23.8753 6.25267 23.7335V23.4286C6.24627 23.1237 6.0629 22.9073 5.79211 22.9009C5.67058 22.8945 5.54904 22.9414 5.46055 23.0224C5.35928 23.1173 5.3049 23.2591 5.29851 23.4286V24.1386H3.47228V15.8305H3.48614H3.48401ZM1.13646 22.0277L1.21109 21.1684C1.23774 20.8774 1.2516 20.5736 1.27186 20.2825C1.31876 19.6194 1.36674 18.9296 1.44136 18.2665C1.52239 17.549 1.89446 16.9947 2.53731 16.629V18.1109C2.53731 20.1269 2.53731 22.1503 2.53092 24.1663H0.98081C1.02772 23.4488 1.08209 22.7452 1.13646 22.0288V22.0277Z" fill="white"/>
</svg>
