<svg version="1.2" xmlns="http://www.w3.org/2000/svg" viewBox="0 0 451 458" width="451" height="458">
	<title>students</title>
	<style>
		.s0 { fill: #005a84 } 
	</style>
	<filter id="f0">
		<feFlood flood-color="#1b8354" flood-opacity="1" />
		<feBlend mode="normal" in2="SourceGraphic"/>
		<feComposite in2="SourceAlpha" operator="in" />
	</filter>
	<g id="Layer_1-2" filter="url(#f0)">
		<g>
			<path class="s0" d="m385.4 158.2h0.1c7.9-0.1 14.2-6.5 14.2-14.4-0.1-4.4-3.5-7.9-8-8.1h-12.7c-4.8 0.1-8.1 3.7-8.1 8.4 0 3.7 1.6 7.3 4.3 10 2.7 2.6 6.3 4.1 10.2 4.1zm3.8-12.4c-0.1 0.4-0.4 0.8-0.8 1.2-0.8 0.8-1.9 1.3-3.1 1.3-1.2 0-2.2-0.4-3-1.3-0.4-0.3-0.7-0.7-0.9-1.2z"/>
			<path class="s0" d="m370.5 67.5c-0.4 0-0.8-0.1-1.2 0-4.3 0.4-8.7 1-13.2 1.7-2.7 0.4-4.3 2.8-4 5.6 0.4 2.5 2.4 4.1 4.9 4.1h0.6l3.5-0.5q4.6-0.5 9.1-1.1c0.4-0.1 0.6-0.1 0.9-0.3 2.2-0.7 3.6-2.6 3.5-4.9-0.1-1.4-0.8-2.7-1.8-3.6-0.7-0.5-1.4-0.9-2.3-1z"/>
			<path class="s0" d="m399.6 77.1c0.3 0.1 0.5 0.1 0.8 0.3 4.2 0.5 8.3 1.1 12.4 1.5 0.3 0 0.5 0.1 0.8 0.1 2.6 0 4.5-1.7 4.8-4.2 0.4-2.8-1.3-5.2-4.1-5.7-3-0.4-6-0.9-8.9-1.3l-3.8-0.5h-0.2c-0.4 0-0.9 0.1-1.2 0.3-2.3 0.4-4 2.2-4.1 4.5-0.3 2.2 1.2 4.3 3.5 5z"/>
			<path class="s0" d="m387.4 76.7c0.3 0 0.8 0 1.2 0 0.3 0 0.5 0 0.7-0.1 2.5-0.4 4.1-2.3 4.2-4.8 0-2.3-1.4-4.3-3.7-4.8-0.3-0.1-0.7-0.2-1-0.2-2.3-0.1-4.7-0.1-7 0q-0.5 0-0.9 0.2h-0.1c-2.1 0.7-3.5 2.5-3.5 4.7 0 2.5 1.7 4.4 4 4.9 0.3 0 0.5 0.1 0.7 0.1 0.9 0 1.6 0 2.4 0h1.9c0.3 0 0.7 0 1.1 0z"/>
			<path class="s0" d="m98.5 193h12.9c2.6 0 4.5-1.8 4.5-4.3 0-2.5-1.9-4.4-4.5-4.5-4.3 0-8.6 0-13 0-1.4 0-2.6 0.5-3.4 1.5-0.8 0.9-1.2 2-1.1 3.2 0.2 2.4 2.1 4.1 4.7 4.1z"/>
			<path class="s0" d="m449.9 230.2v-4.5c-0.2-25-16.7-45.5-40.8-51.1-1.7-0.3-3.5-0.7-5.2-0.8-0.4-0.1-0.7-0.1-1-0.2v-0.1c0-1.3 0-2.7 0-4.1 0-0.9 0.1-1.3 0.8-1.8 1-0.8 1.8-1.7 2.6-2.5 0.4-0.6 0.8-1 1.3-1.4l0.3-0.4c0.8-0.7 1.4-1.4 2.2-1.8 11.5-6.4 19.7-15.9 24.2-28.2 0.4-0.8 0.5-1 1.2-1.3 6.8-2.5 11.4-9 11.3-16.3 0-7.1-4.7-13.7-11.5-16.2l-1-0.4v-5.3q0.1-8 0-15.9c0-10-6.4-19-15.9-22.3-1-0.4-2.1-0.7-3.2-0.9l-1.3-0.4-56.4-0.1-1.2 0.4c-10.6 2.1-18.1 9.7-19.4 20.2-0.4 3.2-0.4 6.5-0.4 9.6v14.8c-7.5 2.5-12.2 8.4-12.4 15.7-0.3 8 4 14.4 11.7 17.5 0.2 0.1 0.5 0.4 0.5 0.7 4.3 11.5 11.5 20.4 21.5 26.7 2.7 1.7 5.3 3.3 7.1 5.8 0.6 0.8 1.3 1.4 2 1.9 0.2 0.3 0.5 0.5 0.9 0.7l0.1 0.1c0.1 1.8 0 3.6 0 5.4v0.1c-15.9 1.6-29.9 10.2-38.3 23.2-0.3-1.3-0.6-2.6-0.9-4-2.4-11.1-5.1-23.6-9.9-35.3-4.6-11.4-12.5-19-23.6-22.6-8.9-2.8-17.9-5.5-26.6-8.1l-1.5-0.4c-1.3-0.4-2.9-0.2-4.2 0.5-1.1 0.6-2.1 0.8-2.7 0.4-0.8-0.3-1.2-1.4-1.5-2.2-0.2-0.9-0.5-2-0.7-2.9q-0.7-3-1.5-5.8c-0.4-1.3-0.2-1.8 0.7-2.8 6.5-6.8 10.8-14.8 12.7-23.5 0.2-0.8 0.3-0.8 0.8-1.1 7.8-3.4 13.1-15.5 10.3-23.9-0.3-0.7-0.6-1.7-1.4-2.4-1.4-1-1.4-2.2-1.4-4.5v-4.4q0-2.8-0.1-5.5c-0.5-14.1-2.7-25.6-6.8-36.1q-1.8-4.6-5.5-5.9l-1.8-0.6c-4.4-1.5-8.9-3-13.4-3.9-3.7-0.8-7.3-1.1-10.9-1.5-1.6-0.1-3.1-0.3-4.9-0.5h-18.3l-1.2 0.1c-1 0.2-1.9 0.3-2.9 0.3-7.2 0.6-15.5 1.6-23.7 4.6-5.3 2-8.4 5.2-9.5 10-0.2 0.7-0.4 1.5-0.7 2.2q-0.3 0.9-0.5 1.7c-3.5 11.4-4.9 24.1-4.6 39.8 0 2 0 2.9-1 3.7-1.2 1-1.7 2.6-2 3.5-2.5 8.2 2.7 19.7 10.5 23.4 0.3 0.1 0.5 0.3 0.5 0.3 1.9 9.3 6.3 17.4 13.6 24.9 0.1 0.3 0.4 0.6 0.4 0.4-0.8 3.7-1.7 7.6-2.9 11.4-0.2 0.6-0.5 1.1-1.1 1.3-0.8 0.3-1.7 0.1-2.5-0.4-1.4-0.7-3.2-0.9-4.6-0.5-8.3 2.4-17.3 5-26.2 7.8-9.5 3.1-16 7.6-20.6 14.3-0.2 0.4-0.5 0.8-0.7 1.2-3.1-2.1-6.6-3.8-10.5-4.7-4.5-1-9-2-13.5-2.9q-6.2-1.3-12.4-2.6c-1.2-0.4-2.5-1.1-3.5-1.9-0.7-0.6-0.9-1-1-1.1 0.1-0.1 0.5-0.4 1.3-0.9 5.7-3.2 8.4-8.2 8.1-14.6 0-1.7 0-3.2 0-4.8v-0.7c5.4-1.1 9.1-4.4 10.1-9.7 1.2-5.3-0.7-9.8-5.3-12.9 0.3-2.3 0.8-4.8 1.1-7.1l0.8-4.9c0.6-3.2 1.2-6.6 0.4-10.2-1.9-8.7-7.6-14.9-17.1-18.3q-2-0.6-4.2-1.1c-0.6-0.1-1.2-0.2-1.8-0.4h-22.2l-0.4 0.3c-3.1 1.8-2.8 4.3-2.5 5.6 1 3.1 4.3 3.1 5.2 3.1 3-0.1 6-0.1 9.1-0.1h3.9c-7.4 7.1-23.3 17.5-31.3 20.1-0.1-0.9-0.3-1.7-0.4-2.6-1-5.3 0.7-9.7 5.3-13.2 0.8-0.7 1.7-1.2 2.7-1.7q0.8-0.6 1.7-1c2.1-1.3 2.8-3.7 1.8-5.8-1.2-2.2-3.5-3-5.8-2.1q-0.9 0.3-1.7 0.8c-9.3 4.8-14.5 14.2-13 23.5 0.8 5.3 1.6 10.5 2.5 15.8l1.9-0.3-2.1 0.8c-4.8 3-6.9 8.6-5.2 14 1.5 4.8 4.9 7.8 10 8.7v4.4c-0.3 6.4 2.5 11.3 8 14.6 0.8 0.4 1.1 0.7 1.2 0.7-0.1 0.2-0.3 0.6-0.9 1.3-0.2 0.2-0.4 0.4-0.5 0.5-2.1-2.2-4.8-3-7.9-2.3-5.6 1.2-11.3 2.5-17 3.7l-1.2 0.3c-3.1 0.8-5.3 2.7-6.1 5.7-0.2 0.4-0.2 0.5-0.9 0.7-10.2 4.1-16.7 11.9-18.4 22.3-0.9 4.8-1.2 9.7-1.5 14.4 0 1.8-0.2 3.4-0.3 5.1l-1.3 16.3c-0.5 7.3-1.1 14.8-1.7 22.1 0 0.9 0 1.9 0.1 2.8-0.3 0.7-0.4 1.3-0.4 2.1 0 7.8 0.4 15.6 1.2 23.2q0.6 5.2 1.3 10.3c2.5 15.8 6.6 31.1 12.2 45.7 0.7 2 1.4 3.9 2.1 5.8 0.4 1 0.9 1.9 1.3 2.9 30.5 73.8 99.3 127.8 181.7 136.9 2.3 0.3 4.5 0.5 7 0.7 5.7 0.5 11.6 0.7 17.5 0.7 5.9 0 11.8-0.2 17.6-0.7 2.4-0.2 4.7-0.4 7-0.7 40-4.4 76.7-19.5 107.5-42.2 3.7-2.7 7.4-5.5 10.9-8.5 0.4-0.3 0.8-0.6 1.2-0.9 41.7-34.6 70.8-83.8 79.2-139.8q0.8-5.2 1.3-10.2v-0.1c0.8-7.5 1.3-15.4 1.3-23.2-0.2-0.7-0.3-1-0.4-1.4zm-344.5-129.7c0.8 0.6 1.3 1.7 1.3 2.5 0 1.3-0.4 2.3-1.3 3zm-56.8 6.8c-0.9-0.5-1.4-1.4-1.5-2.4-0.1-1.4 0.4-2.5 1.5-3.2 0 0 0 5.6 0 5.6zm175.6 334.3c-32.9 0-63.1-40.9-80-100.5 24.7 4.6 51.7 7.1 80 7.1 28.3 0 55.2-2.5 80-7.1-17 59.5-47.1 100.5-80 100.5zm-32.3-426.4c6.7-2.7 13.8-3.5 19.2-4 14.8-1.2 26.9-0.8 38.2 1.3 3.1 0.5 6.2 1.6 9.2 2.6l1.8 0.5c0.3 0.1 0.7 0.6 0.8 0.9 3.4 8.5 5.2 18.1 5.9 30.1h-82.6v-0.4c0-1.5 0.1-3 0.3-4.5 0.7-8.8 2.4-16.7 5.1-24.2 0.3-1.2 0.9-1.8 2.1-2.3zm3.4 152.2c2.6 1.1 3.3 2.2 3.3 4.9-0.1 7.6-0.1 15.3-0.1 23v10.8c0 7.4 3.1 13.3 9.3 17.5l4.3 2.9h-31.6c0.1-7.7 0.1-15.4 0-22.9 0-1-0.3-1.8-0.7-2.7-0.8-2-2.7-3.4-5-3.4-3 0-5.2 2.2-5.4 5.3v7.8c0 5.3 0 10.5-0.1 15.8v0.1h-42.2l2.2-10.5c2.9-13.2 5.8-26.9 8.9-40.4 1.3-5.4 3.4-10.6 5.5-15.6 3-7.3 8.6-12.4 16.4-15q4.3-1.5 8.8-2.7l2.3-0.7c0 0.1 0.1 0.1 0.1 0.2 4.1 12 12.2 20.6 24 25.6zm24.8-5.4v56.7c-0.2-0.2-0.4-0.3-0.6-0.5-2.6-1.7-5-3.3-7.3-5.1-1.9-1.5-2.8-3.7-2.8-6.8v-13c0-7.3 0-14.7 0.1-22 0.1-6.5-3-11.1-9-13.6-9.2-3.7-15.2-9.6-18.5-18.1q-0.2-0.5-0.3-1h0.2c7.5 17.2 22.6 21.7 38.2 23.5zm-34.7-102.4c0 0.1-0.1 0.2-0.1 0.3l-0.3-0.1c-0.3-0.1-0.9-0.3-0.9-0.8 0.1-0.5 0.1-1 0.1-1.5h2.3q-0.4 0.8-0.8 1.5c0 0-0.3 0.6-0.3 0.6zm81.6-2.2v1.9c-0.5 0.2-1 0.2-1.3 0.1-0.2-0.1-0.7-0.5-1.1-2 0.9 0.1 1.7 0 2.4 0zm2.6 81.2q-0.3 1.1-0.7 2.2c-3.4 7.7-9.2 13.3-17.5 16.7-6.6 2.7-9.7 7.4-9.5 14.4 0 6.2 0 12.3 0 18.5v15.1c0.1 4.2-1.6 7.2-5 9.3-1.9 1.2-3.7 2.4-5.6 3.7v-56.5c15.5-1.9 30.6-6.3 38.2-23.5l0.2 0.1zm-75.9-0.6c0-0.1 0-0.1 0-0.2q0.6-0.1 1.2-0.3c4.1-1.5 6.9-4.5 8.1-8.7 0.6-2 1.1-4 1.6-6.2l0.1-0.4c14 9.7 28.1 9.7 41.9 0.2 0.2 0.9 0.5 1.7 0.6 2.6 1.2 7.1 4.6 11.3 10.3 12.9-1.1 1.9-2.5 3.6-4.5 5.2-4.8 3.9-10.8 6.4-18.7 7.5-11.3 1.7-21.2 0.4-30.3-3.8-4.7-2.2-8.1-5.1-10.3-8.8zm59.5-80.5q1.7 7.2 6.6 11.6c-0.1 1.9 0 3.9 0 5.8 0.2 5.1 0.3 9.9-1.3 14.6-5.3 15.5-15.5 25.2-30.6 28.9-3.3 0.8-6.8 0.2-11.3-2.1-13.9-6.8-21.9-16.3-24.5-29.2-0.8-3.9-0.7-8-0.7-12.4v-5.6c3.3-3 5.4-6.8 6.6-11.6zm56.3 262c-26.4 5.7-55.4 8.9-85.4 8.9-30 0-59-3.2-85.3-8.9-5.1-23.3-8.2-48.8-8.8-75.4h188.2c-0.6 26.6-3.7 52.1-8.7 75.4zm28.3-75.4h92.3c-7.2 29.3-45.8 55-99.2 70.2 4-21.9 6.5-45.5 6.9-70.2zm-220.6 70.2c-53.3-15.1-91.9-40.9-99.1-70.2h92.2c0.5 24.7 2.8 48.3 6.9 70.2zm203.4-87.9h-39.1c0.2-7.4 0.2-14.8 0.1-22.8 0-2.4-1.4-4.3-3.4-5-0.9-0.6-1.9-1-3.1-1-3 0-5.2 2.1-5.4 5.2v7.7c0 5.3 0 10.6-0.1 15.9v0.1h-30.4c1.3-0.9 2.7-1.9 4.1-2.7 6.3-4.2 9.5-10.3 9.5-17.9v-13.2c0-7 0-14.1-0.1-21.2 0-2.1 0.6-3 2.4-3.7 12.3-5.2 18.9-12 25-26.1 11.5 2.5 22.9 6.4 28.3 19.4 3.9 9.8 6.3 19.8 8.4 29.1 1.7 8.1 3.4 16.3 5 24.5-0.8 3.9-1.2 7.8-1.2 11.7zm-50.1-156.7h0.1v0.5c0-0.1-0.1-0.3-0.1-0.5zm-148.6 266.6c10.3 41.8 26.9 75.9 47.5 97.9-70.7-19.1-126.2-74.3-145.3-145.3 22.1 20.6 56.2 37.1 97.8 47.4zm204.2 0c41.7-10.3 75.9-26.8 97.8-47.4-19 71-74.6 126.3-145.2 145.3 20.6-22 37.2-56.1 47.4-97.9zm20-252.6c0.1-3.4 0.2-6.6 0.9-9.7 1.1-5.8 6.5-10 12.7-10 9.3-0.1 18-0.1 26.4-0.1 8.4 0 16.8 0 24.6 0.1 7 0 12.9 5.6 13.4 12.6 0.1 2.6 0 5.2 0 7.9 0 0.4 0 0.8 0 1.2-26.1-9.1-51.7-9.1-78 0 0 0 0-2 0-2zm78.1 17v5.8c-5.5-2.4-11.4-8.8-13.9-14.6l1 0.3c3.1 0.9 6 1.8 8.9 2.7q4 1.4 4 5.8zm-33.6-11.4c-14.2 9.6-30.2 14.4-44.3 17.6v-10.4c9.7-4.1 19.6-6.6 29.3-7.2 4.1-0.2 8.4-0.1 12.4 0 0 0 2.6 0 2.6 0zm-24.1 63.8c-10.8-5.6-18.1-14.2-21.5-25.5-0.9-2.8-2.7-4.4-5.5-4.9-3.1-0.5-5.6-3.5-5.7-6.7-0.2-2.3 0.8-4.5 2.6-6 0.4 2.2 1.4 4.2 3.2 5.5 1.9 1.5 4.3 2.1 6.7 1.6 18.4-3.8 32.9-9.2 45.7-16.8 2.5-1.5 4.9-3.2 7.1-4.9q0.7-0.5 1.4-1c0 0.2 0.1 0.3 0.2 0.5 0.9 1.7 1.7 3.5 2.8 5.2 4.7 8.3 10.8 13.6 18.4 16.3 3.3 1.2 6.3 1 8.5-0.5 1.9-1.3 3.1-3.3 3.5-5.9 1.7 1.3 2.7 3.5 2.7 5.7 0 3.5-2.3 6.5-5.3 7-4 0.7-5.3 3.1-6.1 5.5-3.5 11-10.6 19.4-21.2 24.9-1.4 0.9-2.9 2.1-3.8 3.4-3.5 4.7-8.9 7.5-15 7.5h-0.1c-6.1-0.1-11.5-2.8-15-7.6-0.9-1.4-2.2-2.6-3.6-3.3zm26.3 19.6v2.5c-0.8 0.3-1.7 0.5-2.5 0.7v-2.5c0 0 2.5-0.7 2.5-0.7zm-12.8 0.6v2.5c-0.8-0.3-1.6-0.5-2.3-0.7-0.1-0.8-0.1-1.6-0.1-2.4zm-45.6 34.4c7.4-14.9 19.7-23.2 36.3-24.5 0.1 0 0.5 0.1 0.8 0.3l0.6 0.1c0.8 0.3 1.6 0.5 2.5 0.8 1.8 0.5 3.5 1.1 5.7 1.6-0.1 5.7-0.1 11.2-0.1 16.8v8.4c0 2.4 0.6 4.1 1.7 5.2 0.9 0.9 1.8 1.4 3.5 1.2 1.8 0 4.9-0.8 4.9-6.2v-25.4h0.2c2.2-0.1 3.9-0.5 5.3-1.3 3.6-2.1 7.3-1.4 11.7-0.4 19.1 4.6 32.1 21.2 32.4 41v1.2h-15.1v-8.4c0-3.1-2.1-5.2-4.8-5.2h-0.1c-2.8 0-4.9 2.1-5 5.1v8.5h-59v-8c0-3.3-2.1-5.6-4.9-5.6h-0.1c-1.3 0-2.5 0.4-3.3 1.3-1.1 1-1.6 2.5-1.6 4.3v8h-10.4q-1.5-6.9-2.9-13.8c0.4-1.7 0.9-3.4 1.7-5zm-222.6-56.1c0.3-0.4 0.4-0.5 0.7-0.4 1.9 0.4 3.7 0.8 5.4 1.2 2.4 0.4 4.7 1 7 1.5 2.7 0.7 5.2 2.1 7.4 3.8-1.4 3.2-2.5 6.5-3.3 9.9-2.8 11.9-5.5 23.8-8.1 35.8-1.8 7.6-3.4 15.3-5.2 22.8v0.3h-34.4v-57.2l0.8-0.2c1.9-0.3 3.7-0.5 5.5-1 10-2.5 18.2-8 24.2-16.5zm-11.7-2.2c0.8-0.7 0.9-0.7 1.4-0.5 0.3 0.1 0.6 0.1 0.9 0.3-0.3 0.3-0.4 0.5-0.7 0.8-10.9 11.7-29.1 13.9-42.5 5.1-0.6-0.4-0.7-0.5-0.6-1.1 0-0.4 0-0.8 0.1-1.2 3.6 2.7 7.4 4.4 11.5 5.3 11.6 2.4 21.6-0.6 29.9-8.7zm-37.6-5l2.6-3.4c7.7 5.7 15.6 5.7 23.3 0 0.5 0.9 1 1.6 1.6 2.3 0.5 0.5 1.1 1.1 1.7 1.7-3.7 3.2-8.9 4.9-14.4 4.9-5.7 0.1-11-2-14.8-5.5zm40.9-68.1c-0.5 3.6-1.1 7.1-1.7 10.7l-0.5 3.1c-3.9-0.7-10.5-3.9-14.4-7.1l15.1-14.5c1.4 2.4 1.9 5 1.5 7.8zm-51 14.2c0-0.5-0.1-1.1-0.2-1.6h0.1c8.1-3.4 15.9-7.5 23.2-12.6 6.5-4.4 12.3-9.4 17.2-14.6 0.4-0.4 0.6-0.5 0.9-0.4 0.5 0.4 0.9 0.5 1.4 0.8l0.2 0.1c-11.4 13.7-25.4 23.1-42.7 28.3zm5 32.5c0-6.1 0-12.4 0-18.6v-6.1c7.6-2.4 14.8-5.7 21.7-10.1 3.7 3.4 7.8 6.1 12.3 8l0.6 0.3c1.2 0.5 2.4 1 3.8 1.4l0.3 0.4c0 4 0 7.8 0 11.8 0 3.9 0 7.8 0 11.7 0 2.7-1 4.5-3.2 5.9-3.8 2.3-7.5 4.7-11.4 7.1-3.2 2.1-6.2 2.1-9.5 0-3.9-2.5-7.8-4.9-11.8-7.4-1.8-1.2-2.8-2.6-2.8-4.4zm-24.9 25.3c0.3 0 0.8-0.1 1-0.2l15.6-3.5c0.2 0 0.3-0.1 0.5-0.1v63c0 0.7 0 1.4 0.2 2.3 0.5 2.1 2.1 3.4 4.3 3.5 2.3-0.1 3.9-1.4 4.3-3.6 0.1-0.7 0.1-1.4 0.1-2.5v-42.3h0.1c2 0.9 3.9 1.7 6 2.4 2 0.7 4.1 1 6.2 1.4 0.5 0.1 1 0.3 1.4 0.4v12.4c0.1 14.9 0.1 29.9 0 44.8h-13.7c0-1.2 0-2.5 0-3.8v-2.9c-0.1-2.9-1.8-4.9-4.4-4.9-1.1-0.1-2.2 0.3-3.1 1.1-0.9 0.9-1.4 2.2-1.5 3.8v6.7h-17.1v-78h0.1zm-22 58.2l0.7-8.1c0.2-2.7 0.4-5.6 0.6-8.3 0.4-6.2 0.9-12.7 1.6-18.9 0.7-6.7 4.2-11.9 10.2-15.4v13.9c0 18.9 0 37.9 0 56.8h-14.6c0.5-6.7 1-13.3 1.5-20z"/>
		</g>
	</g>
</svg>