<svg width="47" height="45" viewBox="0 0 47 45" fill="none" xmlns="http://www.w3.org/2000/svg">
<path d="M24.272 33.9181C24.2145 33.8261 24.1627 33.7225 24.1109 33.6304C24.0073 33.4578 23.9038 33.3082 23.7944 33.1471C23.6333 32.9112 23.6103 32.7731 23.7714 32.5256C25.5322 29.6658 25.981 26.6967 25.1006 23.6528C25.0776 23.5665 25.0373 23.4687 25.0143 23.3766H29.4392L29.6291 23.3823C30.3081 23.3823 30.4232 23.3823 31.0849 23.3823H31.3035H31.7466L36.4535 23.3881H46.1204C46.6037 23.3881 47.0008 23.0026 47.0008 22.5365V1.28077C47.0008 0.791671 46.6037 0.400391 46.1147 0.400391H19.7608C19.2832 0.400391 18.8919 0.791671 18.8919 1.26351V8.5885C18.7998 8.53671 18.7078 8.47917 18.6157 8.43889C17.931 8.0994 17.2002 7.84047 16.4234 7.63907C15.7617 7.46069 15.0769 7.39164 14.3979 7.28232C14.3059 7.27081 14.2138 7.24204 14.1217 7.21902H12.2344C11.5612 7.3341 10.8764 7.42042 10.2089 7.57002C8.10294 8.05912 6.25012 9.0028 4.90941 10.7693C4.84036 10.8499 4.69075 10.9074 4.56991 10.9132C3.60322 10.9707 2.92999 11.4828 2.71709 12.3517C2.51569 13.186 2.89546 13.9628 3.70679 14.4462C3.78735 14.4922 3.89093 14.6073 3.89093 14.6994C3.98299 16.8399 3.81612 18.9689 2.91848 20.9656C2.44089 22.0244 1.95179 23.0889 1.70436 24.2455C1.08867 27.0189 1.55475 29.6256 2.92999 32.0941C3.06233 32.33 3.07384 32.4681 2.90122 32.6868C1.50297 34.4763 0.829736 36.5247 0.806719 38.7919C0.800965 39.9369 0.812473 41.0878 0.800965 42.2386C0.789457 43.3146 1.31884 43.9763 2.30854 44.3043H20.434H20.9461H24.0361C24.0936 44.2813 24.1454 44.2468 24.1972 44.2295C25.0028 43.9591 25.5207 43.3491 25.5264 42.486C25.5379 41.0072 25.5552 39.5169 25.4861 38.0438C25.4631 37.4972 25.3826 36.9621 25.2675 36.4442C25.2387 36.3061 25.1927 36.1737 25.1581 36.0414M18.9149 10.0846C19.0243 10.1594 19.1221 10.2284 19.2257 10.3205C19.2314 10.3205 19.2372 10.3262 19.2487 10.332C19.4673 10.5104 19.6745 10.706 19.8816 10.9017H6.49179C9.20198 7.99007 15.4337 7.65633 18.9149 10.0846ZM4.31098 12.2078C4.45483 12.1618 4.6217 12.1503 4.77131 12.1503H21.7862C22.1833 12.1791 22.448 12.4265 22.448 12.7833C22.4422 13.1343 22.189 13.3759 21.7805 13.3817C21.2511 13.3874 20.7102 13.3874 20.1808 13.3874H4.8346C4.70226 13.3874 4.56416 13.3874 4.43757 13.3759C4.12109 13.3299 3.94847 13.14 3.91394 12.8293C3.89093 12.5358 4.02903 12.3057 4.31098 12.2078ZM24.3123 38.4639C24.318 38.5732 24.3238 38.6768 24.3238 38.7861C24.3296 39.9369 24.3123 41.0993 24.3123 42.2616C24.3065 42.8543 24.0936 43.0614 23.501 43.0614C23.0176 43.0672 22.5343 43.0614 22.0567 43.0614H20.5951V40.8231V39.9024C20.5951 39.5054 20.6066 39.1026 20.5894 38.7056C20.5779 38.3661 20.3362 38.1474 20.0082 38.1359C19.6802 38.1244 19.427 38.32 19.3753 38.6595C19.3522 38.7746 19.3638 38.9012 19.3638 39.0163C19.358 40.2247 19.358 41.433 19.358 42.6414V43.0499H7.01541V39.0393C7.01541 38.9587 7.01541 38.8667 7.00966 38.7861C6.98664 38.3718 6.75072 38.1301 6.38821 38.1301C6.00844 38.1301 5.78403 38.3776 5.78403 38.8206C5.77828 40.0865 5.78403 41.3582 5.78403 42.6241V43.0672H4.1326C3.66652 43.0672 3.19468 43.0729 2.72859 43.0672C2.34307 43.0614 2.07263 42.8485 2.08413 42.4688C2.1129 40.6274 1.90576 38.7746 2.26827 36.9448C2.95301 33.4463 5.99693 30.6153 9.5127 30.178C10.6578 30.0341 11.2504 29.4069 11.3425 28.2618C11.3483 28.2043 11.354 28.1468 11.3713 28.0604C11.7626 28.118 12.1423 28.164 12.5796 28.2216V35.9551C12.5796 36.5765 12.781 36.8758 13.1953 36.8758C13.6154 36.8758 13.8168 36.5708 13.8168 35.9608C13.8168 33.4923 13.8225 31.0296 13.811 28.5668C13.811 28.2618 13.9031 28.1583 14.1908 28.1525C14.467 28.141 14.7374 28.0835 15.0309 28.0374C15.0424 28.1295 15.0597 28.1985 15.0597 28.2733C15.1345 29.3666 15.7329 30.0168 16.8377 30.1665C17.8965 30.3046 18.9092 30.621 19.8356 31.1562C21.5388 32.1401 22.7414 33.4175 23.4722 34.9711C23.9728 36.0126 24.249 37.175 24.3123 38.4639ZM14.772 22.7034C15.9631 22.8415 16.8377 23.8484 16.878 25.0453C16.9067 26.0292 16.9067 26.035 16.0091 26.4033C13.9088 27.2664 11.8489 27.1743 9.81191 26.1961C9.57024 26.081 9.42639 25.9487 9.46667 25.6495C9.5127 25.333 9.46091 24.9935 9.52421 24.677C9.74287 23.4917 10.7153 22.6918 11.964 22.6573C12.3725 22.6458 12.7753 22.6516 13.1953 22.6516V22.6918C13.7247 22.6918 14.2541 22.6458 14.772 22.7034ZM16.2911 27.6807C16.3198 27.6231 16.4004 27.5886 16.4637 27.5656C18.3798 26.76 19.8183 25.4366 20.8023 23.647C20.8483 23.5665 20.8943 23.4744 20.9404 23.3939C20.9461 23.3881 20.9519 23.3823 20.9576 23.3708C20.9692 23.3593 20.9807 23.3478 21.0037 23.3248C21.0785 23.4341 21.1475 23.5377 21.2166 23.647C22.0279 24.8612 22.6954 26.104 23.0924 27.4908C23.2996 28.2273 23.4377 28.9926 23.5758 29.7522C23.616 29.9651 23.57 30.2355 23.4722 30.4426C23.2708 30.9087 23.0176 31.3633 22.7644 31.8524C22.4422 31.5705 22.1775 31.3173 21.8956 31.0814C20.4513 29.9018 18.8056 29.1825 16.9585 28.9408C16.3889 28.866 16.0149 28.1813 16.2911 27.6807ZM20.1521 22.0416C19.9737 22.5653 19.755 23.0486 19.4673 23.4974C19.1163 24.0671 18.6848 24.5792 18.1611 25.0683C18.0978 24.7576 18.0806 24.4871 18.0115 24.2282C17.6203 22.6861 16.3371 21.5755 14.6914 21.4605C13.6902 21.3914 12.689 21.3914 11.682 21.4605C9.74862 21.6043 8.43093 22.9968 8.23529 25.051C8.16048 25.005 8.09143 24.9762 8.03389 24.9187C7.40094 24.3145 6.88882 23.6183 6.52056 22.8184C6.47453 22.7034 6.45151 22.5307 6.50905 22.4272C7.32038 20.9944 7.87853 19.481 8.15473 17.8584C8.16048 17.8181 8.1835 17.7893 8.21227 17.7433H18.8229C19.03 19.038 19.404 20.2463 19.9507 21.3799C19.9967 21.495 20.06 21.6043 20.1233 21.7309C20.1463 21.7769 20.1636 21.823 20.1693 21.8805C20.1693 21.9438 20.1636 21.9956 20.1521 22.0416ZM7.75194 26.3054C8.36763 26.76 9.02936 27.1686 9.73136 27.4908C10.1802 27.6922 10.0766 27.9914 10.0766 28.3021C10.0766 28.6416 9.88096 28.8372 9.56449 28.9063C9.28254 28.9696 8.98332 28.9869 8.70137 29.0501C6.92335 29.4069 5.37549 30.2182 3.98299 31.4726C3.71255 30.8685 3.28099 30.3621 3.39032 29.6256C3.70679 27.5368 4.42031 25.6264 5.63442 23.8197C6.21559 24.8151 6.87731 25.6667 7.75194 26.3054ZM24.272 26.9844C24.203 26.8406 24.1569 26.7773 24.1397 26.714C23.7657 25.6322 23.2766 24.6137 22.6839 23.6528C22.54 23.4111 22.3789 23.1752 22.2293 22.945C22.0567 22.6918 21.8956 22.4329 21.7402 22.1682C21.5906 21.9093 21.4467 21.6388 21.3144 21.3742C20.7332 20.2463 20.3304 19.038 20.0773 17.7491C20.1521 17.703 20.2384 17.657 20.3189 17.6052C20.5376 17.4614 20.6642 17.2139 20.5606 16.9838C20.4685 16.7881 20.2556 16.6558 20.083 16.5177C20.0255 16.4716 19.9104 16.4947 19.8298 16.4947C15.6063 16.4947 11.3828 16.4947 7.15351 16.5062C6.94636 16.5062 6.69318 16.5867 6.54933 16.7191C6.26162 16.978 6.35369 17.3866 6.69894 17.6512C6.77949 17.7145 6.86005 17.8699 6.84279 17.9735C6.49754 19.6537 5.86459 21.2303 4.92091 22.6631C4.0578 23.9808 3.28674 25.333 2.79764 26.8406C2.78614 26.8808 2.75737 26.9154 2.69407 27.0362C2.63077 25.753 2.82641 24.5965 3.21769 23.4744C3.47663 22.7494 3.82188 22.0646 4.12109 21.3511C4.81734 19.6767 5.16834 17.9389 5.15108 16.1322C5.14532 15.6546 5.15108 15.1655 5.15108 14.6591H21.838C21.838 15.0043 21.8438 15.3323 21.838 15.6661C21.8093 17.3808 22.0164 19.061 22.6148 20.6837C22.6954 20.9196 22.799 21.1497 22.891 21.3857C23.1615 22.0301 23.4492 22.6631 23.7024 23.3133C23.7484 23.4284 23.7829 23.5492 23.8289 23.6585C24.1339 24.5274 24.2548 25.4366 24.3123 26.3515C24.3123 26.5298 24.295 26.7025 24.272 26.9844ZM45.2343 21.6446H24.3468C24.3065 21.5525 24.2663 21.4605 24.226 21.3684C23.6966 20.114 23.2478 18.8481 23.15 17.4671C23.0752 16.4141 23.0867 15.3438 23.0809 14.2851C23.0809 14.1815 23.1615 14.0722 23.2305 13.9801C23.7081 13.3759 23.8289 12.7142 23.5125 12.0122C23.1845 11.2987 22.5918 10.9592 21.8093 10.9132C21.6769 10.9074 21.5043 10.8556 21.4352 10.7693C21.2166 10.4816 20.9749 10.1997 20.7102 9.95798V9.95223C20.6872 9.92921 20.6584 9.9062 20.6354 9.88318V2.12663H45.2343V21.6446Z" fill="white"/>
<path d="M40.4603 8.59412C40.9609 8.59412 41.3637 8.35821 41.3637 8.0705C41.3637 7.78279 40.9609 7.54688 40.4603 7.54688H25.8448C25.3442 7.54688 24.9414 7.78279 24.9414 8.0705C24.9414 8.35821 25.3442 8.59412 25.8448 8.59412" fill="white"/>
<path d="M40.4603 11.2504C40.9609 11.2504 41.3637 11.0145 41.3637 10.7267C41.3637 10.439 40.9609 10.2031 40.4603 10.2031H25.8448C25.3442 10.2031 24.9414 10.439 24.9414 10.7267C24.9414 11.0145 25.3442 11.2504 25.8448 11.2504" fill="white"/>
<path d="M40.4603 13.9105C40.9609 13.9105 41.3637 13.6746 41.3637 13.3869C41.3637 13.0992 40.9609 12.8633 40.4603 12.8633H25.8448C25.3442 12.8633 24.9414 13.0992 24.9414 13.3869C24.9414 13.6746 25.3442 13.9105 25.8448 13.9105" fill="white"/>
<path d="M40.4603 16.5687C40.9609 16.5687 41.3637 16.3328 41.3637 16.0451C41.3637 15.7574 40.9609 15.5215 40.4603 15.5215H25.8448C25.3442 15.5215 24.9414 15.7574 24.9414 16.0451C24.9414 16.3328 25.3442 16.5687 25.8448 16.5687" fill="white"/>
<path d="M13.1688 25.948C13.9341 25.925 14.544 25.6258 14.9929 25.0734C15.3036 24.6936 15.2691 24.2045 14.9181 23.9111C14.5786 23.6291 14.1355 23.6636 13.796 24.0146C13.5716 24.239 13.3587 24.3484 13.1631 24.3484C12.9674 24.3484 12.7718 24.239 12.5589 24.0261C12.2021 23.6694 11.7475 23.6291 11.408 23.9226C11.0686 24.2275 11.0513 24.7051 11.362 25.0849C11.8223 25.6315 12.4265 25.925 13.1688 25.948Z" fill="white"/>
</svg>
