<svg width="49" height="48" viewBox="0 0 49 48" fill="none" xmlns="http://www.w3.org/2000/svg">
<path d="M41.3797 6.88095C39.201 4.69121 36.6059 2.95503 33.7458 1.77367C30.8857 0.592303 27.8177 -0.0105934 24.721 0.000140855C11.7457 0.000140855 1.17058 10.5223 1.17058 23.4327C1.17058 27.5707 2.26374 31.5904 4.30747 35.1372L0.980469 47.2909L13.4567 44.0278C16.9025 45.8958 20.7761 46.8889 24.721 46.8889C37.6963 46.8889 48.2714 36.3667 48.2714 23.4564C48.2714 17.1903 45.8237 11.3026 41.3797 6.88095ZM24.721 42.9165C21.2039 42.9165 17.758 41.9707 14.74 40.1973L14.0271 39.7717L10.3198 40.7411L6.6126 41.7106L8.58504 34.5224L8.10975 33.7894C6.15572 30.6847 5.11816 27.096 5.11545 23.4327C5.11545 12.6977 13.9082 3.94892 24.6972 3.94892C29.9254 3.94892 34.8446 5.98242 38.528 9.6711C40.3519 11.4775 41.7973 13.6262 42.7804 15.9925C43.7635 18.3589 44.2648 20.8958 44.2552 23.4564C44.3027 34.1914 35.51 42.9165 24.721 42.9165ZM35.4624 28.351C34.8683 28.0672 31.9691 26.6485 31.4463 26.4357C30.8997 26.2465 30.5195 26.1519 30.1155 26.7194C29.7115 27.3106 28.5946 28.6347 28.2619 29.013C27.9292 29.415 27.5727 29.4623 26.9786 29.1549C26.3845 28.8712 24.4833 28.2327 22.2495 26.2465C20.4909 24.6859 19.3265 22.7706 18.97 22.1795C18.6373 21.5884 18.9225 21.281 19.2314 20.9736C19.4928 20.7135 19.8255 20.2879 20.1107 19.9568C20.3959 19.6258 20.5147 19.3657 20.7048 18.9874C20.8949 18.5854 20.7999 18.2544 20.6573 17.9706C20.5147 17.6869 19.3265 14.8022 18.8512 13.6199C18.3759 12.4849 17.8769 12.6268 17.5204 12.6031H16.3797C15.9757 12.6031 15.3579 12.745 14.8113 13.3361C14.2885 13.9273 12.7675 15.346 12.7675 18.2307C12.7675 21.1155 14.8826 23.9056 15.1677 24.284C15.4529 24.6859 19.3265 30.5973 25.22 33.1273C26.6221 33.7421 27.7153 34.0968 28.5708 34.3569C29.9729 34.8061 31.2562 34.7352 32.278 34.5933C33.4187 34.4278 35.7714 33.1746 36.2467 31.8032C36.7457 30.4317 36.7457 29.2731 36.5794 29.013C36.413 28.7529 36.0565 28.6347 35.4624 28.351Z" fill="#005984"/>
</svg>
